<?xml version="1.0" encoding="UTF-8" standalone="no"?>
<svg
   xmlns:dc="http://purl.org/dc/elements/1.1/"
   xmlns:cc="http://creativecommons.org/ns#"
   xmlns:rdf="http://www.w3.org/1999/02/22-rdf-syntax-ns#"
   xmlns:svg="http://www.w3.org/2000/svg"
   xmlns="http://www.w3.org/2000/svg"
   xmlns:sodipodi="http://sodipodi.sourceforge.net/DTD/sodipodi-0.dtd"
   xmlns:inkscape="http://www.inkscape.org/namespaces/inkscape"
   id="Capa_1"
   enable-background="new 0 0 512 512"
   height="106.94147"
   viewBox="0 0 140 106.94148"
   width="140"
   version="1.1"
   sodipodi:docname="attack_chain_step_danger.svg"
   inkscape:export-filename="C:\dev\ELTA\GitClones\TRADES\bundles\TRADES.design\Images\icons\attack_chain_step_danger.png"
   inkscape:export-xdpi="10.971429"
   inkscape:export-ydpi="10.971429"
   inkscape:version="0.92.4 (5da689c313, 2019-01-14)">
  <metadata
     id="metadata53">
    <rdf:RDF>
      <cc:Work
         rdf:about="">
        <dc:format>image/svg+xml</dc:format>
        <dc:type
           rdf:resource="http://purl.org/dc/dcmitype/StillImage" />
        <dc:title />
      </cc:Work>
    </rdf:RDF>
  </metadata>
  <defs
     id="defs51" />
  <sodipodi:namedview
     pagecolor="#ffffff"
     bordercolor="#666666"
     borderopacity="1"
     objecttolerance="10"
     gridtolerance="10"
     guidetolerance="10"
     inkscape:pageopacity="0"
     inkscape:pageshadow="2"
     inkscape:window-width="1920"
     inkscape:window-height="1017"
     id="namedview49"
     showgrid="false"
     fit-margin-top="0"
     fit-margin-left="0"
     fit-margin-right="0"
     fit-margin-bottom="0"
     inkscape:zoom="3.6875"
     inkscape:cx="-4.3680704"
     inkscape:cy="15.315453"
     inkscape:window-x="-8"
     inkscape:window-y="1072"
     inkscape:window-maximized="1"
     inkscape:current-layer="g46" />
  <g
     id="g46"
     transform="matrix(0.27343697,0,0,0.27343697,0,-16.528991)">
    <path
       d="m 0,111.958 v 326.697 c 0,7.122 5.774,12.895 12.896,12.895 h 486.209 c 7.122,0 12.896,-5.773 12.896,-12.895 V 111.958 L 275.988,97.77 Z"
       id="path2"
       inkscape:connector-curvature="0"
       style="fill:#665e66" />
    <path
       d="m 255.454,300.65 -24.167,13.953 c -5.703,3.293 -12.729,3.807 -18.639,0.904 -5.023,-2.467 -11.207,-2.326 -16.308,1.024 -6.979,4.584 -9.396,13.957 -5.515,21.35 1.303,2.482 3.14,4.486 5.29,5.952 4.541,3.097 7.482,8.19 7.893,13.671 0.195,2.595 1.011,5.187 2.509,7.557 4.462,7.058 13.787,9.651 21.247,5.899 5.452,-2.743 8.666,-8.027 9.041,-13.611 0.441,-6.57 4.4,-12.397 10.102,-15.69 l 29.08,-16.789 c -1.985,-11.667 -7.863,-23.377 -20.533,-24.22 z"
       id="path4"
       inkscape:connector-curvature="0"
       style="fill:#dfdde2" />
    <path
       d="m 452.908,222.808 c -1.303,-2.482 -3.14,-4.486 -5.29,-5.952 -4.541,-3.097 -7.482,-8.19 -7.893,-13.671 -0.195,-2.595 -1.011,-5.187 -2.509,-7.557 -4.462,-7.058 -13.787,-9.651 -21.247,-5.899 -5.452,2.743 -8.667,8.027 -9.042,13.611 -0.441,6.57 -4.4,12.398 -10.103,15.69 l -7.04,4.064 c 0,11.045 0,22.864 10.717,29.887 l 11.944,-6.896 c 5.703,-3.293 12.729,-3.807 18.64,-0.904 5.023,2.467 11.207,2.326 16.309,-1.025 6.978,-4.583 9.395,-13.955 5.514,-21.348 z"
       id="path6"
       inkscape:connector-curvature="0"
       style="fill:#c6c1c8" />
    <path
       d="m 257.122,223.965 -8.548,-4.935 c -5.703,-3.293 -9.662,-9.12 -10.103,-15.69 -0.375,-5.584 -3.589,-10.869 -9.042,-13.611 -7.46,-3.752 -16.785,-1.159 -21.247,5.899 -1.498,2.37 -2.315,4.962 -2.509,7.557 -0.411,5.481 -3.352,10.574 -7.893,13.671 -2.15,1.466 -3.987,3.47 -5.29,5.952 -3.881,7.393 -1.465,16.766 5.515,21.35 5.101,3.351 11.285,3.492 16.309,1.025 5.911,-2.903 12.937,-2.389 18.64,0.904 l 13.741,7.934 c 10.427,-4.685 13.279,-19.066 10.427,-30.056 z"
       id="path8"
       inkscape:connector-curvature="0"
       style="fill:#dfdde2" />
    <path
       d="m 449.058,316.531 c -5.101,-3.351 -11.285,-3.492 -16.308,-1.024 -5.911,2.903 -12.936,2.389 -18.639,-0.904 l -22.707,-13.11 c -10.39,-0.843 -14.84,0.546 -23.023,6.913 -0.241,0.188 2.413,16.923 2.216,17.148 l 27.893,16.104 c 5.703,3.293 9.661,9.12 10.103,15.69 0.375,5.584 3.589,10.869 9.041,13.611 7.46,3.752 16.785,1.159 21.247,-5.899 1.498,-2.37 2.315,-4.962 2.509,-7.557 0.411,-5.481 3.352,-10.574 7.893,-13.671 2.15,-1.466 3.987,-3.47 5.29,-5.952 3.882,-7.392 1.465,-16.765 -5.515,-21.349 z"
       id="path10"
       inkscape:connector-curvature="0"
       style="fill:#c6c1c8" />
    <path
       d="m 470.793,93.93 v 213.912 c 0,67.989 -55.116,123.105 -123.105,123.105 H 0 v 7.708 c 0,7.122 5.774,12.895 12.896,12.895 h 486.209 c 7.122,0 12.896,-5.773 12.896,-12.895 V 111.958 Z"
       id="path12"
       inkscape:connector-curvature="0"
       style="fill:#544f57" />
    <path
       d="m 401.232,263.674 c 0,-43.463 -35.745,-78.578 -79.442,-77.549 -41.731,0.982 -75.515,35.456 -75.699,77.199 -0.111,25.044 11.647,47.346 29.973,61.606 1.294,1.007 1.973,2.612 1.826,4.245 l -3.868,42.932 c -0.257,2.847 1.986,5.301 4.845,5.301 h 20.398 l 8.465,-4.73 7.001,4.73 h 17.861 l 6.69,-4.73 8.776,4.73 h 20.398 c 2.859,0 5.101,-2.453 4.845,-5.301 l -3.868,-42.931 c -0.147,-1.631 0.529,-3.236 1.822,-4.242 18.242,-14.194 29.977,-36.357 29.977,-61.26 z"
       id="path14"
       inkscape:connector-curvature="0"
       style="fill:#f1f1f4" />
    <path
       d="m 371.254,324.933 c 18.242,-14.193 29.978,-36.355 29.978,-61.259 0,-38.583 -28.169,-70.587 -65.064,-76.568 14.704,14.116 23.856,33.971 23.856,55.964 0,21.579 -8.812,41.1 -23.033,55.162 -5.673,5.609 -8.482,13.497 -7.766,21.442 l 0.7,7.772 c 1.421,15.769 -10.999,29.357 -26.831,29.357 H 275.4 l -1.379,15.303 c -0.257,2.847 1.986,5.301 4.845,5.301 h 20.398 l 8.465,-4.73 7.001,4.73 h 17.861 l 6.69,-4.73 8.776,4.73 h 20.398 c 2.859,0 5.101,-2.453 4.845,-5.301 l -3.868,-42.931 c -0.146,-1.631 0.53,-3.237 1.822,-4.242 z"
       id="path16"
       inkscape:connector-curvature="0"
       style="fill:#dfdde2" />
    <path
       d="m 272.434,265.025 c -0.503,2.113 -0.657,4.362 -0.398,6.682 0.985,8.811 8.113,15.927 16.926,16.897 11.598,1.276 21.413,-7.771 21.413,-19.111 0,-1.537 -0.181,-3.032 -0.521,-4.465 -0.291,-1.222 -1.424,-2.058 -2.68,-2.058 h -32.061 c -1.256,0 -2.389,0.834 -2.679,2.055 z"
       id="path18"
       inkscape:connector-curvature="0"
       style="fill:#665e66" />
    <path
       d="m 337.538,265.025 c -0.503,2.113 -0.657,4.362 -0.398,6.682 0.985,8.811 8.113,15.927 16.926,16.897 11.598,1.276 21.413,-7.771 21.413,-19.111 0,-1.537 -0.181,-3.032 -0.521,-4.465 -0.291,-1.222 -1.424,-2.058 -2.68,-2.058 h -32.061 c -1.256,0 -2.388,0.834 -2.679,2.055 z"
       id="path20"
       inkscape:connector-curvature="0"
       style="fill:#665e66" />
    <path
       d="m 375.478,269.493 c 0,-1.537 -0.18,-3.032 -0.521,-4.465 -0.291,-1.222 -1.424,-2.058 -2.68,-2.058 h -14.829 c -2.228,8.42 -5.837,16.278 -10.569,23.319 2.177,1.223 4.61,2.032 7.186,2.316 11.599,1.275 21.413,-7.773 21.413,-19.112 z"
       id="path22"
       inkscape:connector-curvature="0"
       style="fill:#544f57" />
    <path
       d="m 68.468,365.207 c -4.039,0 -8.016,-1.895 -10.525,-5.444 -4.106,-5.807 -2.727,-13.843 3.079,-17.949 l 80.144,-56.671 -80.144,-56.671 c -5.807,-4.106 -7.186,-12.142 -3.079,-17.949 4.106,-5.807 12.142,-7.186 17.949,-3.079 l 95.014,67.185 c 3.413,2.413 5.443,6.333 5.443,10.514 0,4.181 -2.029,8.101 -5.443,10.514 l -95.014,67.185 c -2.259,1.597 -4.854,2.365 -7.424,2.365 z"
       id="path24"
       inkscape:connector-curvature="0"
       style="fill:#f1f1f4" />
    <path
       d="m 314.731,377.406 h -15.466 c 0,-0.156 0.004,-0.313 0.014,-0.471 l 2.103,-34.463 c 0.26,-4.26 3.925,-7.513 8.183,-7.241 4.259,0.26 7.501,3.923 7.241,8.183 z m 31.213,-34.881 c -0.26,-4.259 -3.922,-7.514 -8.183,-7.241 -4.259,0.26 -7.501,3.924 -7.241,8.183 l 2.072,33.94 h 15.466 c 0,-0.156 -0.004,-0.313 -0.014,-0.471 z m -4.029,-22.26 c 3.018,-3.018 3.018,-7.909 0,-10.927 l -12.791,-12.79 c -3.017,-3.017 -7.909,-3.017 -10.927,0 l -12.791,12.79 c -3.018,3.017 -3.018,7.909 0,10.927 3.017,3.018 7.909,3.017 10.927,0 l 7.327,-7.327 7.327,7.327 c 1.509,1.509 3.486,2.263 5.463,2.263 1.977,0 3.957,-0.755 5.465,-2.263 z"
       id="path26"
       inkscape:connector-curvature="0"
       style="fill:#665e66" />
    <g
       id="g34"
       style="fill:#544f57">
      <path
         d="m 345.944,342.525 c -0.26,-4.259 -3.922,-7.514 -8.183,-7.241 -4.259,0.26 -7.501,3.924 -7.241,8.183 l 2.072,33.94 h 15.466 c 0,-0.156 -0.004,-0.313 -0.014,-0.471 z"
         id="path28"
         inkscape:connector-curvature="0" />
      <path
         d="m 336.452,322.528 c 1.977,0 3.955,-0.755 5.463,-2.263 3.018,-3.018 3.018,-7.909 0,-10.927 l -7.773,-7.773 c -3.499,4.86 -5.263,10.806 -5,16.853 l 1.846,1.846 c 1.509,1.51 3.487,2.264 5.464,2.264 z"
         id="path30"
         inkscape:connector-curvature="0" />
      <path
         d="m 303.095,356.803 h -2.587 l -1.229,20.133 c -0.01,0.158 -0.014,0.315 -0.014,0.471 h 15.466 l 1.464,-23.995 c -3.866,2.156 -8.328,3.391 -13.1,3.391 z"
         id="path32"
         inkscape:connector-curvature="0" />
    </g>
    <path
       d="M 512,73.345 C 512,66.223 506.226,60.45 499.104,60.45 H 12.896 C 5.774,60.449 0,66.223 0,73.345 v 38.614 h 512 z"
       id="path36"
       inkscape:connector-curvature="0"
       style="fill:#fb5c63;fill-opacity:1" />
    <path
       d="m 499.104,60.449 h -28.312 v 51.509 H 512 V 73.345 c 0,-7.122 -5.774,-12.896 -12.896,-12.896 z"
       id="path38"
       inkscape:connector-curvature="0"
       style="fill:#aa5d4a;fill-opacity:1" />
    <circle
       cx="30.905001"
       cy="86.204002"
       r="7.7259998"
       id="circle40"
       style="fill:#f1f1f4" />
    <circle
       cx="62.450001"
       cy="86.204002"
       r="7.7259998"
       id="circle42"
       style="fill:#f1f1f4" />
    <circle
       cx="93.996002"
       cy="86.204002"
       r="7.7259998"
       id="circle44"
       style="fill:#f1f1f4" />
  </g>
</svg>
