<?xml version="1.0" encoding="UTF-8" standalone="no"?>
<svg
   xmlns:dc="http://purl.org/dc/elements/1.1/"
   xmlns:cc="http://creativecommons.org/ns#"
   xmlns:rdf="http://www.w3.org/1999/02/22-rdf-syntax-ns#"
   xmlns:svg="http://www.w3.org/2000/svg"
   xmlns="http://www.w3.org/2000/svg"
   xmlns:sodipodi="http://sodipodi.sourceforge.net/DTD/sodipodi-0.dtd"
   xmlns:inkscape="http://www.inkscape.org/namespaces/inkscape"
   id="Capa_1"
   enable-background="new 0 0 512 512"
   height="106.94147"
   viewBox="0 0 140 106.94148"
   width="140"
   version="1.1"
   sodipodi:docname="attack_chain_step_warning.svg"
   inkscape:export-filename="C:\dev\ELTA\GitClones\TRADES\bundles\TRADES.design\Images\icons\attack_chain_step_warning.png"
   inkscape:export-xdpi="10.971429"
   inkscape:export-ydpi="10.971429"
   inkscape:version="0.92.4 (5da689c313, 2019-01-14)">
  <metadata
     id="metadata53">
    <rdf:RDF>
      <cc:Work
         rdf:about="">
        <dc:format>image/svg+xml</dc:format>
        <dc:type
           rdf:resource="http://purl.org/dc/dcmitype/StillImage" />
        <dc:title />
      </cc:Work>
    </rdf:RDF>
  </metadata>
  <defs
     id="defs51" />
  <sodipodi:namedview
     pagecolor="#ffffff"
     bordercolor="#666666"
     borderopacity="1"
     objecttolerance="10"
     gridtolerance="10"
     guidetolerance="10"
     inkscape:pageopacity="0"
     inkscape:pageshadow="2"
     inkscape:window-width="958"
     inkscape:window-height="1008"
     id="namedview49"
     showgrid="false"
     fit-margin-top="0"
     fit-margin-left="0"
     fit-margin-right="0"
     fit-margin-bottom="0"
     inkscape:zoom="5.2149125"
     inkscape:cx="-7.5516263"
     inkscape:cy="27.134315"
     inkscape:window-x="-7"
     inkscape:window-y="0"
     inkscape:window-maximized="0"
     inkscape:current-layer="Capa_1" />
  <g
     id="g853">
    <path
       d="M 0,14.084465 V 103.4155 c 0,1.94742 1.5788251,3.52597 3.5262432,3.52597 H 136.47376 c 1.94742,0 3.52624,-1.57855 3.52624,-3.52597 V 14.084465 L 75.465322,10.204942 Z"
       id="path2"
       inkscape:connector-curvature="0"
       style="fill:#665e66;stroke-width:0.27343696" />
    <path
       d="M 69.850568,65.679834 63.242416,69.4951 c -1.559411,0.900428 -3.480579,1.040975 -5.096591,0.247187 -1.373474,-0.674569 -3.064408,-0.636014 -4.45921,0.28 -1.908317,1.253435 -2.569214,3.816359 -1.508005,5.837879 0.356288,0.67867 0.858592,1.226638 1.446481,1.627497 1.241678,0.846834 2.045856,2.239448 2.158238,3.738157 0.05332,0.709568 0.276445,1.418317 0.686054,2.066363 1.220075,1.929918 3.769875,2.63894 5.809715,1.613004 1.490778,-0.750037 2.369605,-2.194878 2.472144,-3.72175 0.120585,-1.796481 1.203122,-3.389798 2.76226,-4.290226 l 7.951547,-4.590734 c -0.542772,-3.190189 -2.150035,-6.392136 -5.614481,-6.622643 z"
       id="path4"
       inkscape:connector-curvature="0"
       style="fill:#dfdde2;stroke-width:0.27343696" />
    <path
       d="m 123.84179,44.394953 c -0.35629,-0.67867 -0.85859,-1.226638 -1.44648,-1.627496 -1.24168,-0.846835 -2.04586,-2.239449 -2.15824,-3.738157 -0.0533,-0.709569 -0.27644,-1.418318 -0.68605,-2.066363 -1.22008,-1.929919 -3.76988,-2.638941 -5.80972,-1.613005 -1.49078,0.750037 -2.36988,2.194878 -2.47241,3.72175 -0.12059,1.796481 -1.20313,3.390072 -2.76254,4.290227 l -1.92499,1.111247 c 0,3.020112 0,6.251863 2.93042,8.172211 l 3.26593,-1.885621 c 1.55941,-0.900428 3.48058,-1.040975 5.09687,-0.247187 1.37347,0.674569 3.0644,0.636014 4.45948,-0.280273 1.90804,-1.253162 2.56894,-3.815813 1.50773,-5.837333 z"
       id="path6"
       inkscape:connector-curvature="0"
       style="fill:#c6c1c8;stroke-width:0.27343696" />
    <path
       d="m 70.306661,44.71132 -2.33734,-1.349411 c -1.559411,-0.900428 -2.641948,-2.493746 -2.762533,-4.290227 -0.102539,-1.526872 -0.981366,-2.971986 -2.472417,-3.72175 -2.03984,-1.025936 -4.58964,-0.316914 -5.809716,1.613005 -0.409608,0.648045 -0.633006,1.356794 -0.686053,2.066363 -0.112383,1.498708 -0.916561,2.891322 -2.158238,3.738157 -0.58789,0.400858 -1.090193,0.948826 -1.446482,1.627496 -1.061209,2.02152 -0.400585,4.584445 1.508005,5.83788 1.394802,0.916287 3.085736,0.954842 4.459484,0.280273 1.616286,-0.793788 3.537454,-0.653241 5.096865,0.247187 l 3.757297,2.169449 c 2.851128,-1.281053 3.63097,-5.21335 2.851128,-8.218422 z"
       id="path8"
       inkscape:connector-curvature="0"
       style="fill:#dfdde2;stroke-width:0.27343696" />
    <path
       d="m 122.78906,70.022287 c -1.3948,-0.916288 -3.08574,-0.954842 -4.45921,-0.28 -1.61629,0.793788 -3.53718,0.653241 -5.09659,-0.247187 l -6.20894,-3.584759 c -2.84101,-0.230507 -4.0578,0.149297 -6.29534,1.89027 -0.0659,0.05141 0.65981,4.627374 0.60594,4.688897 l 7.62698,4.403429 c 1.55941,0.900428 2.64167,2.493745 2.76253,4.290226 0.10254,1.526872 0.98137,2.971987 2.47215,3.721751 2.03984,1.025935 4.58964,0.316913 5.80971,-1.613005 0.40961,-0.648045 0.63301,-1.356794 0.68605,-2.066363 0.11239,-1.498708 0.91656,-2.891322 2.15824,-3.738157 0.58789,-0.400858 1.0902,-0.948826 1.44648,-1.627497 1.06149,-2.021246 0.40059,-4.58417 -1.508,-5.837605 z"
       id="path10"
       inkscape:connector-curvature="0"
       style="fill:#c6c1c8;stroke-width:0.27343696" />
    <path
       d="M 128.73221,9.1549436 V 67.646393 c 0,18.590706 -15.07075,33.661457 -33.661457,33.661457 H 0 v 2.10765 c 0,1.94742 1.5788251,3.52597 3.5262432,3.52597 H 136.47376 c 1.94742,0 3.52624,-1.57855 3.52624,-3.52597 V 14.084465 Z"
       id="path12"
       inkscape:connector-curvature="0"
       style="fill:#544f57;stroke-width:0.27343696" />
    <path
       d="m 109.71166,55.569229 c 0,-11.884391 -9.774002,-21.486131 -21.722377,-21.204764 -11.410799,0.268515 -20.648593,9.694981 -20.698906,21.109061 -0.03035,6.847955 3.184721,12.946146 8.195727,16.845358 0.353827,0.275351 0.539491,0.714217 0.499296,1.16074 L 74.927745,85.21882 c -0.07027,0.778475 0.543046,1.449489 1.324803,1.449489 h 5.577567 l 2.314644,-1.293357 1.914332,1.293357 h 4.883858 l 1.829293,-1.293357 2.399683,1.293357 h 5.577565 c 0.78176,0 1.3948,-0.670741 1.3248,-1.449489 l -1.05765,-11.738923 c -0.0402,-0.445976 0.14465,-0.884842 0.4982,-1.15992 4.98804,-3.881164 8.19682,-9.941348 8.19682,-16.750748 z"
       id="path14"
       inkscape:connector-curvature="0"
       style="fill:#f1f1f4;stroke-width:0.27343696" />
    <path
       d="m 101.51457,72.319704 c 4.98804,-3.880891 8.19709,-9.940801 8.19709,-16.750475 0,-10.550019 -7.70244,-19.301096 -17.790901,-20.936522 4.020618,3.859836 6.523113,9.288927 6.523113,15.302626 0,5.900497 -2.409527,11.23826 -6.298074,15.08333 -1.551208,1.533708 -2.319292,3.690579 -2.123512,5.863036 l 0.191406,2.125152 c 0.388554,4.311828 -3.007533,8.027289 -7.336587,8.027289 h -7.572563 l -0.37707,4.184406 c -0.07027,0.778475 0.543046,1.44949 1.324802,1.44949 h 5.577567 l 2.314644,-1.293357 1.914333,1.293357 h 4.883857 l 1.829294,-1.293357 2.399682,1.293357 h 5.577569 c 0.78176,0 1.3948,-0.670741 1.3248,-1.44949 l -1.05765,-11.738922 c -0.0399,-0.445976 0.14492,-0.885116 0.4982,-1.15992 z"
       id="path16"
       inkscape:connector-curvature="0"
       style="fill:#dfdde2;stroke-width:0.27343696" />
    <path
       d="m 74.493527,55.938642 c -0.137538,0.577772 -0.179648,1.192732 -0.108827,1.827106 0.269335,2.409253 2.218394,4.35503 4.628194,4.620264 3.171322,0.348906 5.855106,-2.124878 5.855106,-5.225654 0,-0.420272 -0.04949,-0.829061 -0.142461,-1.220896 -0.07957,-0.33414 -0.389374,-0.562733 -0.732811,-0.562733 h -8.766663 c -0.343437,0 -0.653241,0.228046 -0.732538,0.561913 z"
       id="path18"
       inkscape:connector-curvature="0"
       style="fill:#665e66;stroke-width:0.27343696" />
    <path
       d="m 92.295368,55.938642 c -0.137539,0.577772 -0.179648,1.192732 -0.108828,1.827106 0.269335,2.409253 2.218394,4.35503 4.628194,4.620264 3.171322,0.348906 5.855106,-2.124878 5.855106,-5.225654 0,-0.420272 -0.0495,-0.829061 -0.14246,-1.220896 -0.0796,-0.33414 -0.38937,-0.562733 -0.73281,-0.562733 h -8.766664 c -0.343437,0 -0.652968,0.228046 -0.732538,0.561913 z"
       id="path20"
       inkscape:connector-curvature="0"
       style="fill:#665e66;stroke-width:0.27343696" />
    <path
       d="m 102.66957,57.160358 c 0,-0.420272 -0.0492,-0.829061 -0.14246,-1.220896 -0.0796,-0.33414 -0.38938,-0.562733 -0.73282,-0.562733 h -4.054792 c -0.609218,2.302339 -1.596052,4.451007 -2.889955,6.376277 0.595272,0.334413 1.260544,0.555624 1.964918,0.63328 3.171595,0.348632 5.855109,-2.125426 5.855109,-5.225928 z"
       id="path22"
       inkscape:connector-curvature="0"
       style="fill:#544f57;stroke-width:0.27343696" />
    <path
       d="m 18.721682,83.332105 c -1.104411,0 -2.19187,-0.518164 -2.877924,-1.488591 -1.122732,-1.587849 -0.745662,-3.785188 0.841913,-4.907921 L 38.600003,61.439647 16.685671,45.9437 c -1.587849,-1.122732 -1.964918,-3.320071 -0.841913,-4.90792 1.122733,-1.587848 3.320072,-1.964918 4.907921,-0.841912 l 25.98034,18.370863 c 0.93324,0.659803 1.488317,1.731676 1.488317,2.874916 0,1.14324 -0.554803,2.215113 -1.488317,2.874916 l -25.98034,18.370863 c -0.617695,0.436679 -1.327264,0.646679 -2.029997,0.646679 z"
       id="path24"
       inkscape:connector-curvature="0"
       style="fill:#f1f1f4;stroke-width:0.27343696" />
    <path
       d="m 86.059091,86.667762 h -4.228976 c 0,-0.04266 0.0011,-0.08559 0.0038,-0.128789 l 0.575038,-9.423458 c 0.07109,-1.164842 1.07324,-2.054332 2.237535,-1.979957 1.164568,0.07109 2.05105,1.072693 1.979957,2.237535 z m 8.534788,-9.537755 c -0.07109,-1.164568 -1.07242,-2.054605 -2.237535,-1.979957 -1.164568,0.07109 -2.05105,1.072967 -1.979957,2.237535 l 0.566562,9.280451 h 4.228976 c 0,-0.04266 -0.0011,-0.08559 -0.0038,-0.128789 z M 93.492202,71.0433 c 0.825232,-0.825233 0.825232,-2.162613 0,-2.987846 l -3.497533,-3.497258 c -0.824959,-0.82496 -2.162613,-0.82496 -2.987845,0 l -3.497533,3.497258 c -0.825233,0.82496 -0.825233,2.162613 0,2.987846 0.82496,0.825233 2.162613,0.82496 2.987846,0 l 2.003473,-2.003472 2.003472,2.003472 c 0.412617,0.412617 0.953202,0.618788 1.493787,0.618788 0.540584,0 1.08199,-0.206445 1.494333,-0.618788 z"
       id="path26"
       inkscape:connector-curvature="0"
       style="fill:#665e66;stroke-width:0.27343696" />
    <path
       inkscape:connector-curvature="0"
       id="path28"
       d="m 94.593879,77.130007 c -0.07109,-1.164568 -1.07242,-2.054605 -2.237535,-1.979957 -1.164568,0.07109 -2.05105,1.072967 -1.979957,2.237535 l 0.566562,9.280451 h 4.228976 c 0,-0.04266 -0.0011,-0.08559 -0.0038,-0.128789 z"
       style="fill:#544f57;stroke-width:0.27343696" />
    <path
       inkscape:connector-curvature="0"
       id="path30"
       d="m 91.998415,71.662088 c 0.540585,0 1.081444,-0.206445 1.493787,-0.618788 0.825232,-0.825233 0.825232,-2.162613 0,-2.987846 l -2.125426,-2.125425 c -0.956756,1.328904 -1.439099,2.95476 -1.367185,4.608233 l 0.504765,0.504765 c 0.412616,0.41289 0.953475,0.619061 1.494059,0.619061 z"
       style="fill:#544f57;stroke-width:0.27343696" />
    <path
       inkscape:connector-curvature="0"
       id="path32"
       d="m 82.877378,81.03414 h -0.707381 l -0.336054,5.505107 c -0.0027,0.0432 -0.0038,0.08613 -0.0038,0.128789 h 4.228976 l 0.400312,-6.561121 c -1.057108,0.589531 -2.277183,0.927225 -3.582025,0.927225 z"
       style="fill:#544f57;stroke-width:0.27343696" />
    <path
       d="m 139.99973,3.5262436 c 0,-1.9474181 -1.57883,-3.5259697635 -3.52624,-3.5259697635 H 3.5262432 C 1.5788251,3.9953e-7 0,1.5788255 0,3.5262436 V 14.084739 h 139.99973 z"
       id="path36"
       inkscape:connector-curvature="0"
       style="fill:#ffc817;stroke-width:0.27343696;fill-opacity:1" />
    <path
       d="m 136.47349,3.9953e-7 h -7.74155 V 14.084465 h 11.26779 V 3.5262436 C 139.99973,1.5788255 138.4209,3.9953e-7 136.47349,3.9953e-7 Z"
       id="path38"
       inkscape:connector-curvature="0"
       style="fill:#be9200;stroke-width:0.27343696;fill-opacity:1" />
    <circle
       cx="8.4505701"
       cy="7.0423703"
       r="2.1125741"
       id="circle40"
       style="fill:#f1f1f4;stroke-width:0.27343696" />
    <circle
       cx="17.076139"
       cy="7.0423703"
       r="2.1125741"
       id="circle42"
       style="fill:#f1f1f4;stroke-width:0.27343696" />
    <circle
       cx="25.701982"
       cy="7.0423703"
       r="2.1125741"
       id="circle44"
       style="fill:#f1f1f4;stroke-width:0.27343696" />
  </g>
</svg>
