<?xml version="1.0" encoding="UTF-8" standalone="no"?>
<svg
   xmlns:dc="http://purl.org/dc/elements/1.1/"
   xmlns:cc="http://creativecommons.org/ns#"
   xmlns:rdf="http://www.w3.org/1999/02/22-rdf-syntax-ns#"
   xmlns:svg="http://www.w3.org/2000/svg"
   xmlns="http://www.w3.org/2000/svg"
   xmlns:sodipodi="http://sodipodi.sourceforge.net/DTD/sodipodi-0.dtd"
   xmlns:inkscape="http://www.inkscape.org/namespaces/inkscape"
   version="1.1"
   width="60"
   height="60"
   sodipodi:docname="controlImageOrange.svg"
   inkscape:export-filename="C:\dev\ELTA\GitClones\TRADES\bundles\dsm.TRADES.edit\icons\custom\Control.png"
   inkscape:export-xdpi="29.02857"
   inkscape:export-ydpi="29.02857"
   inkscape:version="0.92.4 (5da689c313, 2019-01-14)"
   id="svg18">
  <rect
     id="backgroundrect"
     width="100%"
     height="100%"
     x="0"
     y="3.3070946"
     style="fill:none;stroke:none" />
  <metadata
     id="metadata18">
    <rdf:RDF>
      <cc:Work
         rdf:about="">
        <dc:format>image/svg+xml</dc:format>
        <dc:type
           rdf:resource="http://purl.org/dc/dcmitype/StillImage" />
        <dc:title></dc:title>
      </cc:Work>
    </rdf:RDF>
  </metadata>
  <defs
     id="defs16" />
  <sodipodi:namedview
     pagecolor="#ffffff"
     bordercolor="#666666"
     borderopacity="1"
     objecttolerance="10"
     gridtolerance="10"
     guidetolerance="10"
     inkscape:pageopacity="0"
     inkscape:pageshadow="2"
     inkscape:window-width="1920"
     inkscape:window-height="1017"
     id="namedview14"
     showgrid="false"
     inkscape:zoom="6.5333334"
     inkscape:cx="-10.61729"
     inkscape:cy="34.056836"
     inkscape:window-x="-8"
     inkscape:window-y="1072"
     inkscape:window-maximized="1"
     inkscape:current-layer="g20"
     inkscape:document-rotation="0"
     units="mm"
     width="249mm"
     inkscape:snap-to-guides="true"
     inkscape:object-paths="true" />
  <g
     class="currentLayer"
     id="g16"
     transform="translate(0,3.3070946)">
    <title
       id="title6">Layer 1</title>
    <g
       inkscape:groupmode="layer"
       inkscape:label="Image"
       id="g20"
       class=""
       style="fill:#996000;fill-opacity:1;stroke:#995600;stroke-opacity:1">
      <rect
         style="fill:#ffffff;fill-opacity:0.00392157;stroke:#996000;stroke-width:0.5477758;stroke-linecap:round;stroke-linejoin:round;stroke-miterlimit:4;stroke-dasharray:none;stroke-opacity:1;paint-order:stroke markers fill"
         id="rect4522"
         width="58.452225"
         height="58.452225"
         x="0.77388763"
         y="-2.5332069" />
      <g
         id="g824"
         inkscape:export-filename="C:\dev\ELTA\GitClones\TRADES\bundles\dsm.TRADES.edit\icons\custom\g824.png"
         inkscape:export-xdpi="29.02857"
         inkscape:export-ydpi="29.02857"
         style="fill:#996000;fill-opacity:1;stroke:#995600;stroke-opacity:1"
         transform="matrix(0.98933635,0,0,0.98729241,3.8254321,-1.2933363)">
        <g
           id="g8"
           style="fill:#996000;fill-opacity:1;stroke:#995600;stroke-opacity:1">
          <g
             id="g6"
             style="fill:#996000;fill-opacity:1;stroke:#995600;stroke-width:0;stroke-opacity:1">
            <path
               inkscape:connector-curvature="0"
               id="path2"
               d="M 49.209248,10.444134 C 35.797216,10.604632 27.055444,4.3451725 26.995569,4.2381732 c -0.359251,-0.2674983 -0.838252,-0.2674983 -1.137628,0 -0.05988,0.0535 -8.801646,6.3664588 -22.2735539,6.1524608 -0.419126,0 -0.838252,0.267498 -0.8981271,0.695495 -0.059875,0.374498 -1.4370036,8.666945 0.7185017,17.975886 2.874007,12.46542 10.7775263,20.597368 22.8124303,23.539849 0.05987,0 0.179626,0.0535 0.239501,0.0535 0.05987,0 0.179625,0 0.2395,-0.0535 C 38.731098,49.659383 46.634617,41.527435 49.508624,29.062015 51.664129,19.753074 50.287001,11.407127 50.227126,11.086129 50.0475,10.711632 49.68825,10.444134 49.209248,10.444134 Z m -22.81243,40.60624 C 15.02054,48.214892 7.8953977,40.72494 5.1411409,28.848016 3.4047617,21.304564 4.0633883,14.242609 4.362764,12.049123 c 11.855279,-0.0535 19.878549,-4.7614693 22.034054,-6.1524604 2.155505,1.3909911 10.178775,6.0989614 22.034053,6.1524604 0.598752,4.70797 2.993758,32.741791 -22.034053,39.001251 z"
               style="fill:#996000;fill-opacity:1;stroke:#995600;stroke-width:0;stroke-opacity:1" />
            <path
               inkscape:connector-curvature="0"
               id="path4"
               d="m 41.485355,16.222097 c 0,0 0,0 0,0 -8.801647,0.160499 -14.489786,-3.958975 -14.489786,-4.012475 -0.359251,-0.267498 -0.838252,-0.267498 -1.137628,0 -0.05988,0.0535 -5.688138,4.119474 -14.54966,4.012475 0,0 0,0 0,0 -0.419126,0 -0.838252,0.267498 -0.898127,0.695495 -0.05987,0.213999 -3.7122593,23.058353 15.747163,27.766323 0.05988,0 0.179626,0.0535 0.239501,0.0535 0.05988,0 0.179625,0 0.2395,-0.0535 19.459423,-4.70797 15.807039,-27.552324 15.747164,-27.766323 -0.05987,-0.374497 -0.419126,-0.695495 -0.898127,-0.695495 z M 26.396818,43.078925 C 10.529904,39.066451 11.667532,21.518563 12.086658,17.827086 c 7.484393,-0.106999 12.633656,-2.942481 14.31016,-4.012474 1.676504,1.069993 6.825766,3.905475 14.31016,4.012474 0.419126,3.691477 1.556753,21.239365 -14.31016,25.251839 z"
               style="fill:#996000;fill-opacity:1;stroke:#995600;stroke-width:0;stroke-opacity:1" />
          </g>
        </g>
        <path
           id="path22"
           d="M 41.847734,22.600477 18.608108,38.99654"
           style="fill:#996000;fill-opacity:1;stroke:#995600;stroke-width:0.95240599;stroke-linecap:butt;stroke-linejoin:miter;stroke-miterlimit:4;stroke-dasharray:none;stroke-opacity:1"
           inkscape:connector-curvature="0" />
        <path
           id="path22-5"
           d="M 36.53911,16.797047 13.777044,31.790039"
           style="fill:#996000;fill-opacity:1;stroke:#995600;stroke-width:0.886904;stroke-linecap:butt;stroke-linejoin:miter;stroke-miterlimit:4;stroke-dasharray:none;stroke-opacity:1"
           inkscape:connector-curvature="0" />
      </g>
    </g>
  </g>
</svg>
