<?xml version="1.0" encoding="UTF-8" standalone="no"?>
<svg
   xmlns:dc="http://purl.org/dc/elements/1.1/"
   xmlns:cc="http://creativecommons.org/ns#"
   xmlns:rdf="http://www.w3.org/1999/02/22-rdf-syntax-ns#"
   xmlns:svg="http://www.w3.org/2000/svg"
   xmlns="http://www.w3.org/2000/svg"
   xmlns:sodipodi="http://sodipodi.sourceforge.net/DTD/sodipodi-0.dtd"
   xmlns:inkscape="http://www.inkscape.org/namespaces/inkscape"
   version="1.1"
   id="svg12"
   width="14mm"
   height="15mm"
   viewBox="0 0 52.913381 56.692906"
   sodipodi:docname="controlImage.svg"
   inkscape:export-filename="C:\dev\ELTA\GitClones\TRADES\bundles\dsm.TRADES.edit\icons\custom\Control.png"
   inkscape:export-xdpi="29.02857"
   inkscape:export-ydpi="29.02857"
   inkscape:version="0.92.4 (5da689c313, 2019-01-14)">
  <metadata
     id="metadata18">
    <rdf:RDF>
      <cc:Work
         rdf:about="">
        <dc:format>image/svg+xml</dc:format>
        <dc:type
           rdf:resource="http://purl.org/dc/dcmitype/StillImage" />
        <dc:title />
      </cc:Work>
    </rdf:RDF>
  </metadata>
  <defs
     id="defs16" />
  <sodipodi:namedview
     pagecolor="#ffffff"
     bordercolor="#666666"
     borderopacity="1"
     objecttolerance="10"
     gridtolerance="10"
     guidetolerance="10"
     inkscape:pageopacity="0"
     inkscape:pageshadow="2"
     inkscape:window-width="1920"
     inkscape:window-height="1017"
     id="namedview14"
     showgrid="false"
     inkscape:zoom="6.5333334"
     inkscape:cx="19.229648"
     inkscape:cy="34.056836"
     inkscape:window-x="-8"
     inkscape:window-y="1072"
     inkscape:window-maximized="1"
     inkscape:current-layer="g20"
     inkscape:document-rotation="0"
     units="mm"
     width="249mm"
     inkscape:snap-to-guides="true"
     inkscape:object-paths="true" />
  <g
     inkscape:groupmode="layer"
     inkscape:label="Image"
     id="g20">
    <g
       id="g824"
       transform="translate(-3.2614164e-8,3.6180185)"
       inkscape:export-filename="C:\dev\ELTA\GitClones\TRADES\bundles\dsm.TRADES.edit\icons\custom\g824.png"
       inkscape:export-xdpi="29.02857"
       inkscape:export-ydpi="29.02857">
      <g
         transform="matrix(0.59875146,0,0,0.53499658,-3.5407552,-2.0013284)"
         id="g8">
        <g
           id="g6">
          <path
             inkscape:connector-curvature="0"
             id="path2"
             d="M 88.1,16.5 C 65.7,16.8 51.1,5.1 51,4.9 50.4,4.4 49.6,4.4 49.1,4.9 49,5 34.4,16.8 11.9,16.4 c -0.7,0 -1.4,0.5 -1.5,1.3 -0.1,0.7 -2.4,16.2 1.2,33.6 4.8,23.3 18,38.5 38.1,44 0.1,0 0.3,0.1 0.4,0.1 0.1,0 0.3,0 0.4,-0.1 20.1,-5.5 33.3,-20.7 38.1,-44 3.6,-17.4 1.3,-33 1.2,-33.6 C 89.5,17 88.9,16.5 88.1,16.5 Z M 50,92.4 C 31,87.1 19.1,73.1 14.5,50.9 11.6,36.8 12.7,23.6 13.2,19.5 33,19.4 46.4,10.6 50,8 c 3.6,2.6 17,11.4 36.8,11.5 1,8.8 5,61.2 -36.8,72.9 z" />
          <path
             inkscape:connector-curvature="0"
             id="path4"
             d="m 75.2,27.3 c 0,0 0,0 0,0 C 60.5,27.6 51,19.9 51,19.8 c -0.6,-0.5 -1.4,-0.5 -1.9,0 -0.1,0.1 -9.5,7.7 -24.3,7.5 0,0 0,0 0,0 -0.7,0 -1.4,0.5 -1.5,1.3 -0.1,0.4 -6.2,43.1 26.3,51.9 0.1,0 0.3,0.1 0.4,0.1 0.1,0 0.3,0 0.4,-0.1 C 82.9,71.7 76.8,29 76.7,28.6 76.6,27.9 76,27.3 75.2,27.3 Z M 50,77.5 C 23.5,70 25.4,37.2 26.1,30.3 38.6,30.1 47.2,24.8 50,22.8 c 2.8,2 11.4,7.3 23.9,7.5 0.7,6.9 2.6,39.7 -23.9,47.2 z" />
        </g>
      </g>
      <path
         id="path22"
         d="M 41.847734,18.982459 18.608108,35.378522"
         style="fill:none;stroke:#000000;stroke-width:0.95240599;stroke-linecap:butt;stroke-linejoin:miter;stroke-miterlimit:4;stroke-dasharray:none;stroke-opacity:1"
         inkscape:connector-curvature="0" />
      <path
         id="path22-5"
         d="M 36.53911,13.179029 13.777044,28.172021"
         style="fill:none;stroke:#000000;stroke-width:0.886904;stroke-linecap:butt;stroke-linejoin:miter;stroke-miterlimit:4;stroke-dasharray:none;stroke-opacity:1"
         inkscape:connector-curvature="0" />
    </g>
  </g>
</svg>
