<svg xmlns:dc="http://purl.org/dc/elements/1.1/" xmlns:cc="http://creativecommons.org/ns#" xmlns:rdf="http://www.w3.org/1999/02/22-rdf-syntax-ns#" xmlns:svg="http://www.w3.org/2000/svg" xmlns="http://www.w3.org/2000/svg" xmlns:sodipodi="http://sodipodi.sourceforge.net/DTD/sodipodi-0.dtd" xmlns:inkscape="http://www.inkscape.org/namespaces/inkscape" version="1.1" width="52.913381" height="56.692906" sodipodi:docname="controlImage.svg" inkscape:export-filename="C:\dev\ELTA\GitClones\TRADES\bundles\dsm.TRADES.edit\icons\custom\Control.png" inkscape:export-xdpi="29.02857" inkscape:export-ydpi="29.02857" inkscape:version="0.92.4 (5da689c313, 2019-01-14)" style=""><rect id="backgroundrect" width="100%" height="100%" x="0" y="0" fill="none" stroke="none"/>
  <metadata id="metadata18">
    <rdf:RDF>
      <cc:Work rdf:about="">
        <dc:format>image/svg+xml</dc:format>
        <dc:type rdf:resource="http://purl.org/dc/dcmitype/StillImage"/>
        <dc:title/>
      </cc:Work>
    </rdf:RDF>
  </metadata>
  <defs id="defs16"/>
  <sodipodi:namedview pagecolor="#ffffff" bordercolor="#666666" borderopacity="1" objecttolerance="10" gridtolerance="10" guidetolerance="10" inkscape:pageopacity="0" inkscape:pageshadow="2" inkscape:window-width="1920" inkscape:window-height="1017" id="namedview14" showgrid="false" inkscape:zoom="6.5333334" inkscape:cx="19.229648" inkscape:cy="34.056836" inkscape:window-x="-8" inkscape:window-y="1072" inkscape:window-maximized="1" inkscape:current-layer="g20" inkscape:document-rotation="0" units="mm" width="249mm" inkscape:snap-to-guides="true" inkscape:object-paths="true"/>
  
<g class="currentLayer" style=""><title>Layer 1</title><g inkscape:groupmode="layer" inkscape:label="Image" id="g20" class="" fill="#000099" fill-opacity="1" stroke="#000099" stroke-opacity="1">
    <g id="g824" inkscape:export-filename="C:\dev\ELTA\GitClones\TRADES\bundles\dsm.TRADES.edit\icons\custom\g824.png" inkscape:export-xdpi="29.02857" inkscape:export-ydpi="29.02857" fill="#000099" fill-opacity="1" stroke="#000099" stroke-opacity="1">
      <g id="g8" fill="#000099" fill-opacity="1" stroke="#000099" stroke-opacity="1">
        <g id="g6" stroke-width="0" fill="#000099" fill-opacity="1" stroke="#000099" stroke-opacity="1">
          <path inkscape:connector-curvature="0" id="path2" d="M49.209248393385835,10.444133523557035 C35.79721568938584,10.604632497557034 27.05544437338584,4.345172511557035 26.995569227385836,4.238173195557035 C26.63631835138584,3.970674905557035 26.15731718338584,3.970674905557035 25.85794145338584,4.238173195557035 C25.798066307385835,4.291672853557035 17.056294991385837,10.604632497557034 3.5843871413858364,10.390633865557033 c-0.4191260220000001,0 -0.838252044,0.26749829 -0.8981271900000001,0.6954955540000001 c-0.059875146000000004,0.37449760600000015 -1.437003504,8.666944596 0.718501752,17.975885088000002 c2.874007008,12.465420314000001 10.77752628,20.597368330000002 22.812430626,23.539849520000004 c0.059875146000000004,0 0.17962543800000005,0.053499658000000005 0.23950058400000002,0.053499658000000005 c0.059875146000000004,0 0.17962543800000005,0 0.23950058400000002,-0.053499658000000005 c12.034904346000001,-2.9424811900000005 19.938423617999998,-11.074429206000001 22.812430626,-23.539849520000004 c2.155505256,-9.308940492 0.7783768980000001,-17.654887140000003 0.718501752,-17.975885088000002 C50.047500437385835,10.711631813557034 49.68824956138584,10.444133523557035 49.209248393385835,10.444133523557035 zM26.396817767385834,51.05037394555704 C15.020540027385838,48.21489207155704 7.895397653385837,40.72493995155703 5.1411409373858366,28.84801587555704 C3.404761703385836,21.304564097557037 4.063388309385836,14.242609241557036 4.362764039385835,12.049123263557036 C16.218042947385836,11.995623605557034 24.24131251138584,7.287653701557035 26.396817767385834,5.896662593557034 c2.155505256,1.3909911080000001 10.178774820000001,6.098961012000001 22.034053728,6.152460670000001 c0.59875146,4.7079699040000005 2.9937573,32.741790696 -22.034053728,39.001250682000006 z" stroke-width="0" fill="#000099" fill-opacity="1" stroke="#000099" stroke-opacity="1"/>
          <path inkscape:connector-curvature="0" id="path4" d="m41.48535455938584,16.222096587557036 c0,0 0,0 0,0 C32.68370809738583,16.38259556155704 26.995569227385836,12.263121895557035 26.995569227385836,12.209622237557035 c-0.3592508760000001,-0.26749829 -0.838252044,-0.26749829 -1.137627774,0 c-0.059875146000000004,0.053499658000000005 -5.68813887,4.119473666 -14.549660478000002,4.012474350000001 c0,0 0,0 0,0 c-0.4191260220000001,0 -0.838252044,0.26749829 -0.8981271900000001,0.6954955540000001 c-0.059875146000000004,0.21399863200000002 -3.7122590520000003,23.058352598000003 15.747163398000001,27.766322502 c0.059875146000000004,0 0.17962543800000005,0.053499658000000005 0.23950058400000002,0.053499658000000005 c0.059875146000000004,0 0.17962543800000005,0 0.23950058400000002,-0.053499658000000005 C46.09574080138584,39.97594473955704 42.44335689538583,17.131590773557036 42.38348174938584,16.917592141557037 C42.323606603385834,16.543094535557035 41.964355727385836,16.222096587557036 41.48535455938584,16.222096587557036 zM26.396817767385834,43.07892490355704 C10.529904077385837,39.06645055355704 11.667531851385835,21.51856272955704 12.086657873385837,17.827086327557037 C19.57105112338584,17.720087011557037 24.720313679385836,14.884605137557037 26.396817767385834,13.814611977557036 c1.676504088,1.06999316 6.825766644000001,3.905475034 14.310159894,4.012474350000001 c0.4191260220000001,3.6914764020000006 1.5567537960000002,21.239364226000003 -14.310159894,25.251838576000004 z" stroke-width="0" fill="#000099" fill-opacity="1" stroke="#000099" stroke-opacity="1"/>
        </g>
      </g>
      <path id="path22" d="M41.847733967385835,22.600477388748168 L18.608107967385838,38.996540388748166 " style="stroke-width: 0.952406; stroke-linecap: butt; stroke-linejoin: miter; stroke-miterlimit: 4; stroke-dasharray: none;" inkscape:connector-curvature="0" fill="#000099" fill-opacity="1" stroke="#000099" stroke-opacity="1"/>
      <path id="path22-5" d="M36.53910996738584,16.79704738874817 L13.777043967385836,31.79003938874817 " style="stroke-width: 0.886904; stroke-linecap: butt; stroke-linejoin: miter; stroke-miterlimit: 4; stroke-dasharray: none;" inkscape:connector-curvature="0" fill="#000099" fill-opacity="1" stroke="#000099" stroke-opacity="1"/>
    </g>
  </g></g></svg>