<?xml version="1.0" encoding="UTF-8" standalone="no"?>
<svg
   xmlns:dc="http://purl.org/dc/elements/1.1/"
   xmlns:cc="http://creativecommons.org/ns#"
   xmlns:rdf="http://www.w3.org/1999/02/22-rdf-syntax-ns#"
   xmlns:svg="http://www.w3.org/2000/svg"
   xmlns="http://www.w3.org/2000/svg"
   xmlns:sodipodi="http://sodipodi.sourceforge.net/DTD/sodipodi-0.dtd"
   xmlns:inkscape="http://www.inkscape.org/namespaces/inkscape"
   version="1.1"
   id="svg12"
   width="14mm"
   height="15mm"
   viewBox="0 0 52.913381 56.692906"
   sodipodi:docname="Display.svg"
   inkscape:export-filename="C:\dev\ELTA\GitClones\TRADES\bundles\TRADES.design\Images\icons\Display.png"
   inkscape:export-xdpi="29.02857"
   inkscape:export-ydpi="29.02857"
   inkscape:version="0.92.4 (5da689c313, 2019-01-14)">
  <metadata
     id="metadata18">
    <rdf:RDF>
      <cc:Work
         rdf:about="">
        <dc:format>image/svg+xml</dc:format>
        <dc:type
           rdf:resource="http://purl.org/dc/dcmitype/StillImage" />
        <dc:title />
      </cc:Work>
    </rdf:RDF>
  </metadata>
  <defs
     id="defs16" />
  <sodipodi:namedview
     pagecolor="#ffffff"
     bordercolor="#666666"
     borderopacity="1"
     objecttolerance="10"
     gridtolerance="10"
     guidetolerance="10"
     inkscape:pageopacity="0"
     inkscape:pageshadow="2"
     inkscape:window-width="1920"
     inkscape:window-height="1017"
     id="namedview14"
     showgrid="false"
     inkscape:zoom="6.5333334"
     inkscape:cx="-13.172304"
     inkscape:cy="18.404244"
     inkscape:window-x="-8"
     inkscape:window-y="1072"
     inkscape:window-maximized="1"
     inkscape:current-layer="g20"
     inkscape:document-rotation="0"
     units="mm"
     width="249mm"
     inkscape:snap-to-guides="true"
     inkscape:object-paths="true" />
  <g
     inkscape:groupmode="layer"
     inkscape:label="Image"
     id="g20">
    <g
       transform="translate(-182.60192,-168.91933)"
       id="g5" />
    <g
       transform="translate(-182.60192,-168.91933)"
       id="g7" />
    <g
       transform="translate(-182.60192,-168.91933)"
       id="g9" />
    <g
       transform="translate(-182.60192,-168.91933)"
       id="g11" />
    <g
       transform="translate(-182.60192,-168.91933)"
       id="g13" />
    <g
       transform="translate(-182.60192,-168.91933)"
       id="g15" />
    <g
       transform="translate(-182.60192,-168.91933)"
       id="g17" />
    <g
       transform="translate(-182.60192,-168.91933)"
       id="g19" />
    <g
       transform="translate(-182.60192,-168.91933)"
       id="g21" />
    <g
       transform="translate(-182.60192,-168.91933)"
       id="g23" />
    <g
       transform="translate(-182.60192,-168.91933)"
       id="g25" />
    <g
       transform="translate(-182.60192,-168.91933)"
       id="g27" />
    <g
       transform="translate(-182.60192,-168.91933)"
       id="g29" />
    <g
       transform="translate(-182.60192,-168.91933)"
       id="g31" />
    <g
       transform="translate(-182.60192,-168.91933)"
       id="g33" />
    <g
       transform="matrix(0.08862938,0,0,0.08862938,1.1043459,2.9940661)"
       id="g6">
      <g
         id="g4">
        <path
           inkscape:connector-curvature="0"
           d="m 286.049,128.572 c -107.663,0 -209.738,52.155 -273.038,139.524 L 0,286.052 13.011,304.009 c 63.299,87.362 165.375,139.518 273.038,139.518 107.663,0 209.738,-52.155 273.038,-139.524 l 13.011,-17.956 -13.011,-17.956 C 495.787,180.733 393.712,128.572 286.049,128.572 Z m 84.076,115.582 c 0,17.02 -13.794,30.82 -30.82,30.82 -17.025,0 -30.82,-13.801 -30.82,-30.82 0,-17.02 13.801,-30.82 30.82,-30.82 17.02,0 30.82,13.8 30.82,30.82 z m -84.076,138.172 c -80.466,0 -157.125,-35.612 -209.292,-96.274 29.192,-33.941 66.053,-60.025 106.953,-76.433 -6.279,14.002 -9.859,29.486 -9.859,45.833 0,61.965 50.233,112.198 112.198,112.198 61.965,0 112.198,-50.233 112.198,-112.198 0,-16.347 -3.574,-31.824 -9.859,-45.833 40.899,16.408 77.761,42.491 106.953,76.433 -52.167,60.661 -128.826,96.274 -209.292,96.274 z"
           id="path2" />
      </g>
    </g>
  </g>
</svg>
