<?xml version="1.0" encoding="UTF-8" standalone="no"?>
<svg
   xmlns:dc="http://purl.org/dc/elements/1.1/"
   xmlns:cc="http://creativecommons.org/ns#"
   xmlns:rdf="http://www.w3.org/1999/02/22-rdf-syntax-ns#"
   xmlns:svg="http://www.w3.org/2000/svg"
   xmlns="http://www.w3.org/2000/svg"
   xmlns:sodipodi="http://sodipodi.sourceforge.net/DTD/sodipodi-0.dtd"
   xmlns:inkscape="http://www.inkscape.org/namespaces/inkscape"
   version="1.1"
   id="svg12"
   width="15mm"
   height="16mm"
   viewBox="0 0 56.692908 60.472433"
   sodipodi:docname="ExteenalThreatImage.svg"
   inkscape:export-filename="C:\dev\ELTA\GitClones\TRADES\bundles\dsm.TRADES.edit\icons\custom\ExternalThreat.png"
   inkscape:export-xdpi="27.093334"
   inkscape:export-ydpi="27.093334"
   inkscape:version="0.92.4 (5da689c313, 2019-01-14)">
  <metadata
     id="metadata18">
    <rdf:RDF>
      <cc:Work
         rdf:about="">
        <dc:format>image/svg+xml</dc:format>
        <dc:type
           rdf:resource="http://purl.org/dc/dcmitype/StillImage" />
        <dc:title />
      </cc:Work>
    </rdf:RDF>
  </metadata>
  <defs
     id="defs16" />
  <sodipodi:namedview
     pagecolor="#ffffff"
     bordercolor="#666666"
     borderopacity="1"
     objecttolerance="10"
     gridtolerance="10"
     guidetolerance="10"
     inkscape:pageopacity="0"
     inkscape:pageshadow="2"
     inkscape:window-width="958"
     inkscape:window-height="1008"
     id="namedview14"
     showgrid="false"
     inkscape:zoom="4.6197643"
     inkscape:cx="30.359518"
     inkscape:cy="53.420982"
     inkscape:window-x="953"
     inkscape:window-y="0"
     inkscape:window-maximized="0"
     inkscape:current-layer="g20"
     inkscape:document-rotation="0"
     units="mm"
     width="249mm" />
  <g
     inkscape:groupmode="layer"
     inkscape:label="Image"
     id="g20">
    <path
       inkscape:connector-curvature="0"
       id="path38-3"
       d="m 18.516473,53.788583 c 5.481826,-0.03509 14.383232,-0.03508 19.7809,2.8e-5 5.397668,0.0351 0.912538,0.06381 -9.966957,0.0638 -10.879495,-1.6e-5 -15.295769,-0.02874 -9.813943,-0.06382 z m -0.01764,-3.751878 c 5.213091,-0.03521 13.743604,-0.03521 18.956695,0 5.213092,0.03521 0.947835,0.06402 -9.478347,0.06402 -10.426183,0 -14.691439,-0.02881 -9.478348,-0.06402 z m 1.886641,-2.334989 c 0.292925,-0.05609 0.716801,-0.05396 0.941947,0.0047 0.225147,0.05869 -0.01452,0.104584 -0.532591,0.101981 -0.518071,-0.0026 -0.702281,-0.05062 -0.409356,-0.106713 z m 14.600188,0 c 0.292924,-0.05609 0.716801,-0.05396 0.941947,0.0047 0.225147,0.05869 -0.01453,0.104584 -0.532591,0.101981 -0.518071,-0.0026 -0.702281,-0.05062 -0.409356,-0.106713 z m 19.665676,-1.241113 c 0,-0.580372 0.04592,-0.817796 0.102053,-0.527611 0.05613,0.290186 0.05613,0.765036 0,1.055222 -0.05613,0.290185 -0.102053,0.05276 -0.102053,-0.527611 z M 19.087555,47.00244 c 0.226656,-0.05898 0.597548,-0.05898 0.824204,0 0.226657,0.05898 0.04121,0.107241 -0.412102,0.107241 -0.453312,0 -0.638758,-0.04826 -0.412102,-0.107241 z m 17.0728,-0.0038 c 0.291416,-0.05589 0.768276,-0.05589 1.059692,0 0.291415,0.05589 0.05298,0.101622 -0.529846,0.101622 -0.58283,0 -0.821261,-0.04573 -0.529846,-0.101622 z M 5.6431124,46.460603 c 0,-0.322429 0.053449,-0.454331 0.1187763,-0.293117 0.065327,0.161214 0.065327,0.42502 0,0.586234 -0.065327,0.161214 -0.1187763,0.02931 -0.1187763,-0.293117 z m 45.2134836,0 c 0,-0.322429 0.05345,-0.454331 0.118777,-0.293117 0.06533,0.161214 0.06533,0.42502 0,0.586234 -0.06533,0.161214 -0.118777,0.02931 -0.118777,-0.293117 z M 16.086764,46.228794 c -0.0825,-0.132925 0.01202,-0.172235 0.221589,-0.09216 0.407962,0.155889 0.482604,0.323967 0.143872,0.323967 -0.121874,0 -0.286331,-0.104314 -0.365461,-0.231809 z m 23.42928,0.139651 c 0,-0.05069 0.164457,-0.155001 0.365461,-0.231809 0.209565,-0.08008 0.304089,-0.04077 0.221589,0.09216 -0.138292,0.222819 -0.58705,0.329569 -0.58705,0.139651 z M 29.24999,45.229512 c -0.4486,-0.527611 -0.4486,-0.527611 0.08124,-0.0809 0.497923,0.419795 0.637049,0.608513 0.448601,0.608513 -0.04469,0 -0.283117,-0.237424 -0.529846,-0.52761 z M 13.160102,41.164958 c 0.0113,-0.273174 0.0671,-0.328737 0.142273,-0.141674 0.06803,0.169273 0.05966,0.371524 -0.01859,0.449446 -0.07825,0.07792 -0.133908,-0.06058 -0.123683,-0.307772 z m 17.217861,-0.449447 c 0.0048,-0.386915 0.05758,-0.51681 0.117282,-0.288655 0.05971,0.228155 0.05578,0.544722 -0.0087,0.703481 -0.06451,0.158759 -0.113357,-0.02791 -0.108557,-0.414826 z m 12.453489,0.214953 c 0.0113,-0.273173 0.0671,-0.328737 0.142272,-0.141674 0.06803,0.169274 0.05966,0.371525 -0.01858,0.449447 -0.07825,0.07792 -0.133907,-0.06058 -0.123682,-0.307773 z m -10.380015,-0.68394 c 0.30419,-0.322429 0.606056,-0.586234 0.670815,-0.586234 0.06476,0 -0.131138,0.263805 -0.435328,0.586234 -0.304191,0.322428 -0.606056,0.586234 -0.670815,0.586234 -0.06476,0 0.131138,-0.263806 0.435328,-0.586234 z m -0.353231,-3.634651 c 0.234425,-0.257942 0.479212,-0.468987 0.54397,-0.468987 0.06476,0 -0.07406,0.211045 -0.308483,0.468987 -0.234425,0.257943 -0.479211,0.468988 -0.54397,0.468988 -0.06476,0 0.07406,-0.211045 0.308483,-0.468988 z m 8.341961,-2.051818 -0.570893,-0.644857 0.647589,0.568485 c 0.60527,0.531336 0.755581,0.721229 0.570893,0.721229 -0.04218,0 -0.333595,-0.290186 -0.647589,-0.644857 z m -25.179274,0.321828 c 0,-0.04869 0.185446,-0.233356 0.412102,-0.410364 0.373496,-0.291679 0.381825,-0.283385 0.08891,0.08854 -0.307632,0.390607 -0.501011,0.514826 -0.501011,0.321828 z m 5.651686,-2.583052 c 0,-0.05069 0.158953,-0.152897 0.35323,-0.227135 0.194277,-0.07424 0.35323,-0.03276 0.35323,0.09216 0,0.124924 -0.158953,0.227135 -0.35323,0.227135 -0.194277,0 -0.35323,-0.04147 -0.35323,-0.09216 z m 14.320547,-0.06803 c 0.169991,-0.06774 0.373098,-0.05941 0.45135,0.0185 0.07825,0.07792 -0.06083,0.133342 -0.309076,0.123161 -0.274331,-0.01126 -0.330129,-0.06682 -0.142274,-0.141672 z M 22.108604,25.453888 c 0.0113,-0.273171 0.0671,-0.328736 0.142274,-0.141673 0.06802,0.169275 0.05966,0.371526 -0.01859,0.449446 -0.07825,0.07792 -0.133908,-0.06058 -0.123683,-0.307773 z m 10.438203,-3.669691 c -0.274865,-0.3208 -0.303409,-0.412403 -0.0737,-0.236528 0.206192,0.157873 0.426961,0.235196 0.490597,0.171829 0.06363,-0.06337 0.115702,0.04307 0.115702,0.236528 0,0.449415 -4.71e-4,0.449278 -0.532596,-0.171829 z m -8.204528,-0.483142 c 0.08843,-0.231262 0.220108,-0.361406 0.292611,-0.289208 0.0725,0.0722 1.49e-4,0.261412 -0.160787,0.420477 -0.23257,0.229866 -0.259619,0.202931 -0.131824,-0.131269 z M 22.914217,8.4726463 c 0.234424,-0.2579429 0.47921,-0.4689871 0.543969,-0.4689871 0.06476,0 -0.07406,0.2110442 -0.308482,0.4689871 -0.234424,0.2579429 -0.47921,0.4689871 -0.543969,0.4689871 -0.06476,0 0.07406,-0.2110442 0.308482,-0.4689871 z"
       style="fill:#a5a5a5;fill-opacity:1;stroke-width:0.2349897" />
    <path
       inkscape:connector-curvature="0"
       id="path36-3"
       d="m 52.35008,51.619461 c 0.234425,-0.257943 0.479211,-0.468987 0.54397,-0.468987 0.06476,0 -0.07406,0.211044 -0.308483,0.468987 -0.234425,0.257943 -0.479211,0.468987 -0.54397,0.468987 -0.06476,0 0.07406,-0.211044 0.308483,-0.468987 z M 6.5178403,48.864162 c -0.2929154,-0.371921 -0.2845862,-0.380215 0.088909,-0.08854 0.2266562,0.177007 0.4121021,0.361671 0.4121021,0.410363 0,0.192998 -0.1933785,0.06878 -0.5010113,-0.321828 z M 1.8975257,46.343356 c 0.00261,-0.515886 0.050838,-0.699318 0.1071648,-0.407629 0.056327,0.291689 0.054188,0.713777 -0.00475,0.937974 -0.058941,0.224197 -0.1050263,-0.01446 -0.1024125,-0.530345 z M 32.804667,40.832758 c 0.234425,-0.257943 0.479211,-0.468988 0.54397,-0.468988 0.06476,0 -0.07406,0.211045 -0.308483,0.468988 -0.234425,0.257942 -0.479211,0.468987 -0.54397,0.468987 -0.06476,0 0.07406,-0.211045 0.308483,-0.468987 z M 13.196145,40.129277 c 0,-0.4514 0.04846,-0.636064 0.107693,-0.410364 0.05923,0.2257 0.05923,0.595028 0,0.820728 -0.05923,0.2257 -0.107693,0.04104 -0.107693,-0.410364 z M 34.852214,36.02564 c 0.0048,-0.386915 0.05758,-0.51681 0.117282,-0.288655 0.05971,0.228155 0.05578,0.544722 -0.0087,0.703481 -0.06451,0.158759 -0.113356,-0.02791 -0.108557,-0.414826 z m -0.49829,-10.337258 c 0.0113,-0.273172 0.0671,-0.328737 0.142271,-0.141673 0.06803,0.169275 0.05966,0.371525 -0.01858,0.449446 -0.07825,0.07792 -0.133908,-0.06058 -0.123683,-0.307773 z M 33.236392,22.15516 c 0,-0.230858 0.07935,-0.243356 0.313984,-0.04945 0.17269,0.142716 0.313982,0.281737 0.313982,0.308935 0,0.0272 -0.141292,0.04945 -0.313982,0.04945 -0.172692,0 -0.313984,-0.13902 -0.313984,-0.308935 z m -1.372005,-1.017176 c -0.0825,-0.132925 0.01203,-0.172237 0.221588,-0.09216 0.407962,0.155889 0.482605,0.323966 0.143873,0.323966 -0.121874,0 -0.286333,-0.104313 -0.365461,-0.231808 z M 28.168519,9.9539154 c 0.169991,-0.067738 0.373098,-0.059408 0.45135,0.018513 0.07825,0.07792 -0.06084,0.1333426 -0.309076,0.1231606 -0.274331,-0.01125 -0.330129,-0.06682 -0.142274,-0.1416736 z"
       style="fill:#101010;fill-opacity:1;stroke-width:0.2349897" />
    <path
       inkscape:connector-curvature="0"
       id="path34-5"
       d="m 3.9274843,51.443591 c -0.2929152,-0.371921 -0.284586,-0.380215 0.088909,-0.08854 0.2266562,0.177007 0.4121021,0.361671 0.4121021,0.410363 0,0.192998 -0.1933785,0.06878 -0.5010114,-0.321828 z M 47.242958,50.052315 c 0.169991,-0.06774 0.373098,-0.05941 0.45135,0.0185 0.07825,0.07792 -0.06083,0.133342 -0.309076,0.12316 -0.274331,-0.01125 -0.330129,-0.06682 -0.142274,-0.141671 z M 17.380275,46.92959 c -0.212242,-0.136583 -0.241287,-0.228746 -0.07277,-0.230903 0.154253,-0.0019 0.345953,0.101932 0.426,0.230903 0.18069,0.291131 0.09917,0.291131 -0.353231,0 z m 21.131024,-0.0291 c 0.15974,-0.160258 0.349754,-0.232306 0.422259,-0.160108 0.0725,0.0722 -0.05819,0.203318 -0.290434,0.291377 -0.335615,0.127255 -0.362663,0.100321 -0.131825,-0.131269 z M 23.738421,45.434093 c 0,-0.04869 0.185446,-0.233356 0.412103,-0.410363 0.373495,-0.29168 0.381824,-0.283386 0.08891,0.08854 -0.307633,0.390608 -0.501012,0.514826 -0.501012,0.321828 z m 8.212003,-0.321828 c -0.292915,-0.371921 -0.284586,-0.380215 0.08891,-0.08854 0.226656,0.177007 0.412102,0.361671 0.412102,0.410363 0,0.192998 -0.19338,0.06878 -0.501013,-0.321828 z m -6.055439,-4.279507 c 0,-0.322429 0.05345,-0.454332 0.118777,-0.293117 0.06533,0.161214 0.06533,0.425019 0,0.586234 -0.06533,0.161214 -0.118777,0.02931 -0.118777,-0.293117 z m -4.492842,-4.357672 c 0.0113,-0.273173 0.0671,-0.328736 0.142274,-0.141674 0.06803,0.169274 0.05966,0.371525 -0.01859,0.449447 -0.07825,0.07792 -0.133907,-0.06058 -0.123682,-0.307773 z m 6.633914,-4.011246 c 0.226657,-0.05898 0.597548,-0.05898 0.824205,0 0.226656,0.05898 0.04121,0.10724 -0.412103,0.10724 -0.453312,0 -0.638758,-0.04826 -0.412102,-0.10724 z M 22.949736,22.268684 c 0.447543,-0.492443 0.744899,-0.590722 0.348589,-0.115212 -0.144253,0.173081 -0.210213,0.366538 -0.146578,0.429905 0.06364,0.06337 -0.04369,0.115212 -0.238508,0.115212 -0.302016,0 -0.296638,-0.06335 0.0365,-0.429905 z M 33.37556,8.5312697 32.804667,7.8864124 l 0.647589,0.568486 c 0.356174,0.3126674 0.647589,0.6028532 0.647589,0.6448573 0,0.1839072 -0.190697,0.03423 -0.724285,-0.568486 z"
       style="fill:#101010;fill-opacity:1;stroke-width:0.2349897" />
    <path
       inkscape:connector-curvature="0"
       id="path32-5"
       d="M 7.9348243,53.599907 C 5.7930865,53.009884 3.7121905,51.510192 2.8675701,49.648086 1.9047811,47.953891 2.1775571,45.625271 2.7515576,43.786713 3.4133224,42.077682 4.1760655,40.91522 5.2441133,39.336963 5.900996,37.620107 7.0282009,36.255661 7.9755124,34.596448 c 0.612935,-1.616134 1.83028,-2.956058 2.5903556,-4.595677 0.737329,-1.561458 1.940637,-2.928491 2.590356,-4.595678 1.090388,-1.464796 1.591061,-2.863392 2.691385,-4.392901 0.809868,-1.456622 1.668865,-3.239929 2.678172,-4.467713 0.677369,-1.56175 1.683814,-3.199 2.599697,-4.621844 0.989422,-1.697059 1.939483,-3.5406045 3.782265,-4.4884877 1.968586,-0.7997633 4.374513,-0.9010947 6.145485,-0.2376724 1.953524,0.799886 3.232538,2.7825152 4.287711,4.6059081 1.184155,1.430551 1.652364,2.967966 2.776896,4.430537 0.60985,1.676954 1.841251,3.041962 2.590356,4.595677 0.795202,1.533289 1.804209,3.063392 2.565006,4.432325 0.795835,1.545611 1.785134,2.892931 2.514678,4.427532 1.013917,1.573254 1.772766,2.851333 2.593049,4.455377 1.009135,1.5751 1.771422,2.851081 2.590356,4.455378 1.166617,1.72065 1.820592,3.148336 2.884187,4.949992 0.685018,1.958146 1.014906,4.581435 -0.256527,6.22825 -1.129549,2.6238 -4.297102,4.075988 -7.101944,3.797513 -12.852326,0.107365 -25.71162,0.235812 -38.5621717,0.02494 z M 48.429039,50.234486 c 1.684285,-0.791683 3.651274,-3.055174 2.522536,-4.806637 -0.601471,-1.668959 -1.760679,-3.182587 -2.595367,-4.6818 -0.858199,-1.745687 -2.01968,-3.249293 -2.857994,-5.16741 -1.113987,-1.429968 -1.825024,-3.081527 -2.768064,-4.728525 -0.909092,-1.260893 -1.535956,-2.512067 -2.257446,-3.903521 -1.059446,-1.4599 -1.819499,-3.22641 -2.730141,-4.464081 -0.801842,-1.553871 -1.789067,-3.201828 -2.573622,-4.482337 -1.002248,-1.885213 -2.149967,-3.713019 -3.182963,-5.592182 -0.791881,-1.99331 -4.257007,-3.6444229 -5.943141,-1.586477 -1.082051,0.546395 -1.530097,1.860215 -2.218105,3.099975 -1.174979,1.699739 -2.023278,3.505659 -3.074055,5.233695 -0.777276,1.504601 -1.753094,2.634605 -2.276437,4.163418 -1.10047,0.993477 -1.327338,2.65452 -2.39475,3.779612 -0.945132,1.898676 -2.04863,3.614562 -3.035701,5.440558 -0.811008,1.048015 -1.364727,2.578276 -2.205133,3.715499 -1.1131022,2.089537 -2.453751,4.027087 -3.4327033,6.163509 -0.8667481,1.468696 -2.1432223,2.733885 -1.9461711,4.607362 0.3158659,1.326774 1.2679731,2.788006 2.4465565,2.940392 1.5808759,1.13024 4.0915259,0.282614 6.0454509,0.558772 11.491298,-0.0211 22.99209,0.06244 34.47725,-0.289822 z M 33.879071,47.463375 C 32.510374,47.207657 31.256428,46.7873 30.252109,45.748334 29.426294,45.04595 27.578452,42.878461 27.142594,44.80336 c -0.913849,1.118712 -2.467325,1.897573 -3.507203,2.350263 -1.035961,0.315035 -3.947156,0.700815 -1.530665,-0.339837 1.394102,-0.406085 2.348828,-1.66384 3.233206,-2.727531 1.606634,-2.483784 -2.549491,-2.636184 -2.947277,-4.836856 -0.569125,-1.785399 1.384833,1.814881 2.083106,1.983187 2.412677,1.990904 1.620069,-2.858604 0.588415,-3.550953 -0.37801,-0.966688 -1.55449,-1.57022 -2.287049,-2.229797 -0.932189,-0.188003 -1.338896,2.381852 -1.157042,0.155955 -1.059433,-1.923511 -4.622555,-0.688391 -6.11066,0.641708 -0.756848,0.670365 -1.801315,2.383069 -1.006958,0.3187 0.97784,-1.648874 2.492846,-2.845298 4.189699,-3.419296 1.15472,-0.591397 4.056268,0.09837 2.719243,-2.177439 -0.942534,-1.878493 -0.637655,-4.417003 0.224343,-6.017464 1.160363,-2.433109 -0.421941,2.881702 0.799447,3.88342 0.36589,1.1008 1.615291,2.597521 2.300482,2.119937 -0.120411,1.561619 3.363949,2.189966 4.936114,1.712882 1.603713,-0.03698 3.520647,-1.545043 1.08306,-2.351532 0.904459,0.222377 2.219978,1.306525 2.935844,-0.351436 0.656648,-1.473783 1.291671,-2.723521 1.010283,-4.441247 -0.387905,-0.956988 -0.66497,-2.747084 0.25012,-0.698512 0.942954,1.429341 1.220254,3.702602 0.471829,5.454963 -1.036248,1.850848 -0.221075,2.752886 1.706388,2.784008 1.93378,0.555677 3.679836,1.894664 4.691151,3.442999 0.368654,1.823072 -1.4299,-1.150644 -2.699342,-1.307236 -1.905916,-0.930069 -4.397939,-0.487946 -6.180702,0.663854 -1.810715,1.272317 -3.333348,3.743584 -2.473321,5.921511 0.92981,-0.249806 1.772924,-0.615126 0.858302,0.26093 -2.117651,0.485346 0.357255,3.179522 1.215181,3.697495 0.602507,0.974728 4.373399,1.985515 1.340483,1.717318 z m -5.180712,-8.85016 c 1.657965,-0.03675 2.792392,-2.520381 1.593745,-3.742956 -1.188512,-1.869582 -4.305028,-1.212568 -4.61,0.96927 -0.136278,1.494833 1.307466,2.652354 2.676198,3.015569 l 0.238367,-0.06233 z m 3.565178,2.393497 c 1.070081,-1.287766 1.144935,-0.640859 0.09389,0.188434 -0.345042,0.535907 -0.383987,-0.0083 -0.09389,-0.188434 z m 1.335894,-1.601868 c 1.047224,-0.172195 -0.133048,0.427459 0,-9e-6 z m 0.235486,-0.468987 c 1.047225,-0.172195 -0.133047,0.427458 0,-9e-6 z M 21.761552,37.939778 c 0.132685,-1.218966 0.642603,0.72643 0,0 z m 4.464195,-7.754491 c 0.01029,-0.943569 0.849269,0.878687 0,0 z m 3.549927,0.0284 c 0.453642,-1.259646 0.96991,0.483683 0,0 z M 27.6543,29.974763 c -0.905694,-0.841843 3.44587,-0.158358 0.700585,0.16612 l -0.317441,-0.03909 z m -5.358241,-6.515482 c 1.047226,-0.172186 -0.13305,0.427477 0,1e-6 z"
       style="fill:#101010;fill-opacity:1;stroke-width:0.2349897" />
    <path
       inkscape:connector-curvature="0"
       id="path30-2"
       d="m 49.641981,53.168758 c 0,-0.05069 0.164456,-0.155 0.365461,-0.231809 0.209565,-0.08008 0.304089,-0.04077 0.221589,0.09216 -0.138293,0.222818 -0.58705,0.329569 -0.58705,0.13965 z M 8.858593,50.286809 c 0.1699921,-0.06774 0.3730996,-0.05941 0.45135,0.0185 0.07825,0.07792 -0.060834,0.133343 -0.3090766,0.123161 C 8.7265376,50.41721 8.6707373,50.36165 8.858593,50.286798 Z m 41.732548,-2.067504 c 0,-0.128972 0.102722,-0.392777 0.228274,-0.586234 0.125552,-0.193457 0.228274,-0.246218 0.228274,-0.117247 0,0.128971 -0.102722,0.392777 -0.228274,0.586234 -0.125552,0.193457 -0.228274,0.246218 -0.228274,0.117247 z M 19.655093,47.339954 c 0.148107,-0.241524 0.831219,-0.214686 1.250102,0.04912 0.244914,0.15424 0.09723,0.204518 -0.506051,0.17228 -0.468544,-0.02504 -0.803367,-0.124669 -0.744051,-0.221397 z m 15.622187,0.05862 c 0.194276,-0.125022 0.459199,-0.227311 0.588717,-0.227311 0.129518,0 0.07653,0.102289 -0.117744,0.227311 -0.194276,0.125023 -0.459199,0.227311 -0.588717,0.227311 -0.129518,0 -0.07653,-0.102288 0.117744,-0.227311 z M 2.1409793,46.343356 c 0.00177,-0.644857 0.047501,-0.88083 0.1016284,-0.524386 0.054128,0.356444 0.052681,0.884055 -0.00321,1.172468 -0.055896,0.288413 -0.1001819,-0.0032 -0.098414,-0.648082 z M 21.383552,46.92959 c 0.194277,-0.125022 0.4592,-0.227311 0.588718,-0.227311 0.129518,0 0.07653,0.102289 -0.117744,0.227311 -0.194276,0.125023 -0.459199,0.227311 -0.588717,0.227311 -0.129518,0 -0.07653,-0.102288 0.117743,-0.227311 z m 33.022799,-0.468987 c 0,-0.4514 0.04846,-0.636064 0.107696,-0.410364 0.05923,0.2257 0.05923,0.595028 0,0.820728 -0.05923,0.2257 -0.107696,0.04104 -0.107696,-0.410364 z M 31.6289,46.697782 c -0.0825,-0.132926 0.01203,-0.172236 0.221588,-0.09216 0.407963,0.155889 0.482605,0.323967 0.143873,0.323967 -0.121873,0 -0.286333,-0.104314 -0.365461,-0.231807 z m 1.999971,-0.119932 c -0.323794,-0.184317 -0.47651,-0.338862 -0.339367,-0.34343 0.137143,-0.0046 0.45505,0.146617 0.706461,0.335973 0.581412,0.437903 0.395707,0.441676 -0.367094,0.0075 z M 22.49819,46.431505 c 0.159739,-0.160258 0.349755,-0.232306 0.422259,-0.160108 0.0725,0.0722 -0.05819,0.203318 -0.290434,0.291377 -0.335616,0.127255 -0.362665,0.100321 -0.131825,-0.131269 z M 5.3890343,45.854829 c 0.011299,-0.273174 0.0671,-0.328737 0.1422734,-0.141674 0.068025,0.169274 0.059659,0.371524 -0.018592,0.449447 -0.07825,0.07792 -0.1339075,-0.06058 -0.1236824,-0.307773 z m 45.6844597,0 c 0.0113,-0.273174 0.0671,-0.328737 0.142271,-0.141674 0.06803,0.169274 0.05966,0.371524 -0.01858,0.449447 -0.07825,0.07792 -0.133907,-0.06058 -0.123682,-0.307773 z M 24.091652,45.288135 c 0.234424,-0.257943 0.47921,-0.468987 0.543969,-0.468987 0.06476,0 -0.07406,0.211044 -0.308482,0.468987 -0.234424,0.257943 -0.47921,0.468987 -0.543969,0.468987 -0.06476,0 0.07406,-0.211044 0.308482,-0.468987 z m 7.748694,-0.05862 c -0.4486,-0.527611 -0.4486,-0.527611 0.08124,-0.0809 0.497923,0.419795 0.637049,0.608513 0.4486,0.608513 -0.04469,0 -0.283116,-0.237424 -0.529845,-0.52761 z M 53.542654,43.01194 c -0.127794,-0.334201 -0.100746,-0.361134 0.131825,-0.13127 0.160937,0.159067 0.23329,0.348279 0.160786,0.420478 -0.0725,0.0722 -0.204179,-0.05795 -0.292611,-0.289208 z M 49.04358,41.989625 c -0.08537,-0.137552 -0.104716,-0.300387 -0.04299,-0.361855 0.06173,-0.06147 0.174981,0.05108 0.251677,0.250095 0.159231,0.413203 0.02352,0.485885 -0.208689,0.11176 z M 30.115159,41.164958 c 0.0113,-0.273174 0.0671,-0.328737 0.142272,-0.141674 0.06802,0.169273 0.05966,0.371524 -0.01858,0.449446 -0.07825,0.07792 -0.133907,-0.06058 -0.123682,-0.307772 z m 1.629817,0.122947 c 0,-0.136583 0.105969,-0.183116 0.235487,-0.103407 0.129518,0.07971 0.235487,0.191459 0.235487,0.248333 0,0.05687 -0.105969,0.103407 -0.235487,0.103407 -0.129518,0 -0.235487,-0.11175 -0.235487,-0.248333 z m -8.259864,-0.631018 -0.570895,-0.644857 0.647589,0.568485 c 0.60527,0.531337 0.755581,0.72123 0.570895,0.72123 -0.04218,0 -0.333598,-0.290186 -0.647589,-0.644858 z M 4.1930088,40.612104 c 0,-0.12136 0.1047554,-0.285126 0.2327896,-0.36392 0.1334881,-0.08215 0.1729668,0.01198 0.092549,0.220654 -0.1565496,0.406241 -0.3253386,0.480568 -0.3253386,0.143266 z m 4.1361609,-0.317071 c 0.088433,-0.231262 0.2201077,-0.361406 0.2926111,-0.289208 0.072503,0.0722 1.493e-4,0.261411 -0.1607867,0.420478 -0.2325706,0.229864 -0.2596196,0.202931 -0.1318244,-0.13127 z m 21.7859893,-0.06805 c 0.0113,-0.273173 0.0671,-0.328736 0.142272,-0.141674 0.06802,0.169274 0.05966,0.371525 -0.01858,0.449447 -0.07825,0.07792 -0.133907,-0.06058 -0.123682,-0.307773 z m 3.296817,-0.468987 c 0.0113,-0.273173 0.0671,-0.328736 0.142272,-0.141674 0.06802,0.169274 0.05966,0.371525 -0.01858,0.449447 -0.07825,0.07792 -0.133907,-0.06058 -0.123682,-0.307773 z M 22.458384,38.791053 c -0.127795,-0.334201 -0.100747,-0.361135 0.131824,-0.13127 0.160936,0.159066 0.23329,0.348279 0.160787,0.420478 -0.0725,0.0722 -0.204179,-0.05795 -0.292611,-0.289208 z M 9.2711173,38.653578 c 0.088433,-0.231262 0.2201077,-0.361406 0.2926111,-0.289208 0.072503,0.0722 1.493e-4,0.261412 -0.1607867,0.420478 -0.2325706,0.229865 -0.2596196,0.202931 -0.1318244,-0.13127 z m 41.6811807,-0.09702 c -0.127794,-0.3342 -0.100746,-0.361134 0.131825,-0.131269 0.160937,0.159066 0.23329,0.348279 0.160786,0.420477 -0.0725,0.0722 -0.204179,-0.05795 -0.292611,-0.289208 z m -22.783779,0.0056 c 0.169991,-0.06774 0.373098,-0.05941 0.45135,0.0185 0.07825,0.07792 -0.06084,0.133342 -0.309076,0.12316 -0.274331,-0.01126 -0.330129,-0.06682 -0.142274,-0.141671 z m 6.049851,-0.472617 c 0.230961,-0.844404 0.283136,-2.665087 0.07995,-2.790129 -0.103809,-0.06389 -0.402875,-0.0021 -0.664586,0.137428 -0.261713,0.139472 -0.475842,0.200827 -0.475842,0.136341 0,-0.267663 0.937462,-0.58973 1.30631,-0.448788 0.334549,0.127839 0.374149,0.358396 0.24683,1.437111 -0.08341,0.706665 -0.260104,1.455562 -0.392665,1.664219 -0.195287,0.307393 -0.21426,0.281554 -0.100002,-0.136182 z m -3.282459,-0.373909 c 0.08843,-0.231263 0.220108,-0.361407 0.292612,-0.289208 0.0725,0.0722 1.5e-4,0.261411 -0.160786,0.420477 -0.232572,0.229865 -0.25962,0.202931 -0.131826,-0.131269 z m 11.107192,-0.381453 c -0.10243,-0.390045 -0.07178,-0.481599 0.102964,-0.307588 0.136842,0.136264 0.20247,0.386169 0.14584,0.555342 -0.05879,0.175624 -0.165533,0.06933 -0.248804,-0.247754 z M 10.213065,37.012124 c 0.08843,-0.231263 0.220108,-0.361407 0.292611,-0.289208 0.0725,0.0722 1.49e-4,0.261411 -0.160787,0.420477 -0.23257,0.229865 -0.259619,0.202931 -0.131824,-0.131269 z m 11.405974,-0.06235 c 0,-0.201069 0.10597,-0.300363 0.235487,-0.220654 0.129518,0.07971 0.235487,0.244221 0.235487,0.36558 0,0.12136 -0.105969,0.220654 -0.235487,0.220654 -0.129517,0 -0.235487,-0.164511 -0.235487,-0.36558 z m 2.560319,-0.513771 c -0.292916,-0.371921 -0.284586,-0.380215 0.08891,-0.08854 0.226656,0.177007 0.412102,0.361671 0.412102,0.410364 0,0.192997 -0.193378,0.06878 -0.501011,-0.321829 z M 6.7833647,36.156726 c 0,-0.12136 0.1047554,-0.285125 0.2327896,-0.36392 0.1334881,-0.08215 0.1729668,0.01198 0.092549,0.220654 -0.1565496,0.406241 -0.3253386,0.480569 -0.3253386,0.143266 z M 30.586133,36.006099 c 0.0113,-0.273173 0.0671,-0.328736 0.142272,-0.141674 0.06803,0.169274 0.05966,0.371525 -0.01858,0.449447 -0.07825,0.07792 -0.133907,-0.06058 -0.123682,-0.307773 z M 25.7552,35.136175 c 0.08843,-0.231262 0.220107,-0.361406 0.292611,-0.289208 0.0725,0.0722 1.51e-4,0.261411 -0.160786,0.420478 -0.232571,0.229864 -0.259619,0.20293 -0.131825,-0.13127 z m 12.938307,-0.163071 c -0.0825,-0.132926 0.01203,-0.172236 0.221588,-0.09216 0.407963,0.155889 0.482605,0.323967 0.143873,0.323967 -0.121873,0 -0.286333,-0.104314 -0.365461,-0.231807 z M 19.220017,34.57574 c 0.169992,-0.06774 0.373099,-0.05941 0.45135,0.0185 0.07825,0.07792 -0.06084,0.133342 -0.309077,0.12316 -0.274329,-0.01125 -0.330129,-0.06682 -0.142273,-0.141671 z m 29.141925,-0.474559 c -0.127794,-0.3342 -0.100746,-0.361134 0.131826,-0.131269 0.160936,0.159066 0.233289,0.348279 0.160785,0.420477 -0.0725,0.0722 -0.204179,-0.05794 -0.292611,-0.289208 z m -30.57349,-0.801316 c 0.159739,-0.160257 0.349755,-0.232305 0.422259,-0.160107 0.0725,0.0722 -0.05819,0.203317 -0.290434,0.291377 -0.335616,0.127255 -0.362665,0.100321 -0.131825,-0.13127 z m 10.615554,-0.600073 c 0.169991,-0.06774 0.373098,-0.05941 0.45135,0.0185 0.07825,0.07792 -0.06084,0.133343 -0.309076,0.123161 -0.274331,-0.01126 -0.330129,-0.06682 -0.142274,-0.141672 z m 6.4023,-0.76395 c 0,-0.12136 0.104756,-0.285125 0.23279,-0.36392 0.133488,-0.08215 0.172966,0.01198 0.09255,0.220654 -0.156549,0.406241 -0.325339,0.480569 -0.325339,0.143266 z M 9.3737206,31.701349 c 0,-0.12136 0.1047554,-0.285126 0.2327896,-0.36392 0.1334881,-0.08215 0.1729668,0.01198 0.092549,0.220653 -0.1565496,0.406242 -0.3253386,0.480569 -0.3253386,0.143267 z m 22.1995924,-0.03538 c 0.229381,-0.132977 0.345469,-0.357115 0.257974,-0.498088 -0.09766,-0.157352 -0.0497,-0.188995 0.124226,-0.08196 0.330369,0.203318 -0.08029,0.841129 -0.533729,0.828951 -0.146039,-0.0039 -0.07785,-0.115929 0.151529,-0.248905 z m 11.347608,-0.228552 c -0.08537,-0.137551 -0.104717,-0.300386 -0.04299,-0.361854 0.06173,-0.06147 0.174981,0.05108 0.251677,0.250095 0.159232,0.413203 0.02352,0.485884 -0.208688,0.111759 z M 21.256126,31.202921 c -0.08537,-0.137552 -0.104717,-0.300387 -0.04299,-0.361854 0.06173,-0.06147 0.174982,0.05108 0.251677,0.250094 0.159232,0.413204 0.02351,0.485885 -0.208687,0.11176 z m 2.216771,-0.629257 c -0.298954,-0.379588 -0.287871,-0.384564 0.147781,-0.06635 0.259036,0.189205 0.515128,0.373869 0.569093,0.410363 0.05397,0.03649 -0.01253,0.06635 -0.147781,0.06635 -0.135245,0 -0.391337,-0.184664 -0.569093,-0.410364 z m 9.214027,0.321829 c 0,-0.04869 0.185446,-0.233357 0.412102,-0.410364 0.373496,-0.29168 0.381825,-0.283386 0.08891,0.08854 -0.307633,0.390608 -0.501012,0.514826 -0.501012,0.321829 z m 2.590356,-0.249365 c 0,-0.185846 0.09609,-0.397036 0.213525,-0.469311 0.11744,-0.07228 0.158064,0.07978 0.09028,0.3379 -0.143791,0.54754 -0.303804,0.616754 -0.303805,0.131411 z M 26.682008,29.81156 c 0.08005,-0.128971 0.251507,-0.234493 0.381025,-0.234493 0.129517,0 0.169995,0.105522 0.08995,0.234493 -0.08005,0.128972 -0.251508,0.234494 -0.381025,0.234494 -0.129518,0 -0.169996,-0.105522 -0.08995,-0.234494 z m 2.708099,0 c 0,-0.128971 0.112224,-0.234493 0.249385,-0.234493 0.137162,0 0.183892,0.105522 0.103845,0.234493 -0.08005,0.128972 -0.19227,0.234494 -0.249385,0.234494 -0.05711,0 -0.103845,-0.105522 -0.103845,-0.234494 z m 12.588866,-0.01559 c -0.08537,-0.137551 -0.104716,-0.300386 -0.04299,-0.361854 0.06173,-0.06147 0.174981,0.05108 0.251677,0.250095 0.159231,0.413203 0.02352,0.485885 -0.208689,0.111759 z m 3.792613,-0.150155 c -0.127794,-0.3342 -0.100746,-0.361134 0.131826,-0.13127 0.160936,0.159067 0.233289,0.34828 0.160785,0.420478 -0.0725,0.0722 -0.204179,-0.05795 -0.292611,-0.289208 z M 14.687316,29.27384 c 0.08843,-0.231262 0.220108,-0.361406 0.292611,-0.289208 0.0725,0.0722 1.49e-4,0.261411 -0.160787,0.420478 -0.23257,0.229864 -0.259619,0.20293 -0.131824,-0.13127 z m 19.177042,-0.151917 c 0,-0.121359 0.104757,-0.285125 0.232791,-0.36392 0.133488,-0.08215 0.172965,0.01198 0.09255,0.220654 -0.156549,0.406242 -0.325339,0.480569 -0.325339,0.143266 z M 22.222897,28.473336 c -0.127795,-0.3342 -0.100746,-0.361134 0.131824,-0.13127 0.160936,0.159067 0.23329,0.34828 0.160787,0.420478 -0.0725,0.0722 -0.204179,-0.05795 -0.292611,-0.289208 z m -6.593633,-0.840954 c 0.08843,-0.231263 0.220107,-0.361407 0.292611,-0.289209 0.0725,0.0722 1.49e-4,0.261412 -0.160787,0.420478 -0.232571,0.229864 -0.25962,0.20293 -0.131824,-0.131269 z m 19.005692,-1.338225 c 0,-0.580372 0.04592,-0.817796 0.102053,-0.527611 0.05613,0.290186 0.05613,0.765036 0,1.055221 -0.05613,0.290186 -0.102053,0.05276 -0.102053,-0.52761 z m 9.488222,0.537724 c -0.127794,-0.3342 -0.100746,-0.361135 0.131825,-0.131269 0.160937,0.159065 0.23329,0.34828 0.160786,0.420477 -0.0725,0.0722 -0.204179,-0.05795 -0.292611,-0.289208 z M 16.571211,25.990927 c 0.08843,-0.231263 0.220108,-0.361407 0.292611,-0.289209 0.0725,0.0722 1.5e-4,0.261412 -0.160786,0.420477 -0.232571,0.229866 -0.25962,0.202931 -0.131825,-0.131268 z m 22.817406,-0.650345 c -0.08537,-0.137553 -0.104716,-0.300387 -0.04299,-0.361854 0.06173,-0.06147 0.174981,0.05108 0.251677,0.250095 0.159231,0.413202 0.02352,0.485884 -0.208689,0.111759 z m -4.920402,-1.225604 c 0.08843,-0.231262 0.220107,-0.361406 0.292611,-0.289208 0.0725,0.0722 1.51e-4,0.261412 -0.160786,0.420476 -0.232571,0.229867 -0.259619,0.202932 -0.131825,-0.131268 z m 7.064607,-1.738475 c -0.127794,-0.3342 -0.100746,-0.361135 0.131825,-0.131268 0.160937,0.159065 0.23329,0.348279 0.160786,0.420477 -0.0725,0.0722 -0.204179,-0.05795 -0.292611,-0.289209 z M 15.49638,21.149138 c 0,-0.12136 0.104755,-0.285124 0.23279,-0.36392 0.133488,-0.08215 0.172966,0.01197 0.09255,0.220655 -0.15655,0.40624 -0.325339,0.480568 -0.32534,0.143265 z m 21.301881,-0.263934 c -0.08537,-0.137552 -0.104716,-0.300386 -0.04299,-0.361854 0.06173,-0.06147 0.174981,0.05108 0.251677,0.250095 0.159231,0.413203 0.02352,0.485884 -0.208689,0.111759 z M 17.144788,18.335215 c 0,-0.12136 0.104756,-0.285124 0.23279,-0.36392 0.133488,-0.08215 0.172967,0.01197 0.09255,0.220655 -0.15655,0.406241 -0.325339,0.480568 -0.325339,0.143265 z m 3.900674,-0.08258 c 0.08843,-0.231262 0.220108,-0.361406 0.292611,-0.289208 0.0725,0.0722 1.5e-4,0.261412 -0.160786,0.420476 -0.232571,0.229867 -0.25962,0.202932 -0.131825,-0.131268 z m 17.897004,-0.331514 c -0.127794,-0.334199 -0.100746,-0.361134 0.131826,-0.131268 0.160936,0.159065 0.233289,0.348279 0.160785,0.420477 -0.0725,0.0722 -0.204179,-0.05795 -0.292611,-0.289209 z M 21.98741,16.611184 c 0.08843,-0.231262 0.220108,-0.361406 0.292611,-0.289208 0.0725,0.0722 1.49e-4,0.261412 -0.160787,0.420477 -0.23257,0.229866 -0.259619,0.202931 -0.131824,-0.131269 z m 15.306648,-1.503981 c -0.127794,-0.3342 -0.100746,-0.361135 0.131825,-0.131269 0.160937,0.159065 0.23329,0.34828 0.160786,0.420477 -0.0725,0.0722 -0.204179,-0.05795 -0.292611,-0.289208 z m -14.3647,-0.137474 c 0.08843,-0.231262 0.220107,-0.361406 0.292611,-0.289208 0.0725,0.0722 1.49e-4,0.261412 -0.160787,0.420477 -0.232571,0.229866 -0.25962,0.202931 -0.131824,-0.131269 z m -3.194214,-1.089892 c 0,-0.12136 0.104756,-0.285124 0.23279,-0.363919 0.133488,-0.08215 0.172967,0.01197 0.09255,0.220654 -0.15655,0.406241 -0.325339,0.480568 -0.325339,0.143265 z M 36.35211,13.465748 c -0.127794,-0.3342 -0.100746,-0.361135 0.131826,-0.131269 0.160936,0.159065 0.233289,0.34828 0.160785,0.420477 -0.0725,0.0722 -0.204179,-0.05795 -0.292611,-0.289208 z M 23.871305,13.328274 c 0.08843,-0.231262 0.220108,-0.361406 0.292611,-0.289208 0.0725,0.0722 1.49e-4,0.261412 -0.160787,0.420477 -0.23257,0.229866 -0.259619,0.202931 -0.131824,-0.131269 z m 8.452705,-0.181358 c -0.08537,-0.137552 -0.104716,-0.300386 -0.04299,-0.361853 0.06173,-0.06147 0.174981,0.05108 0.251677,0.250094 0.159231,0.413203 0.02352,0.485885 -0.208689,0.111759 z m -7.172667,-1.948881 c 0,-0.04869 0.185446,-0.233358 0.412102,-0.410364 0.373496,-0.29168 0.381825,-0.283386 0.08891,0.08853 -0.307634,0.390607 -0.501012,0.514826 -0.501012,0.32183 z m 9.566311,-0.506765 c -0.22724,-0.58968 -0.160204,-0.7418335 0.117398,-0.266464 0.137451,0.235373 0.200305,0.477349 0.139674,0.537724 -0.06063,0.06037 -0.176314,-0.06169 -0.257072,-0.27126 z m -8.388877,-0.434834 c 0,-0.05069 0.164457,-0.155001 0.365462,-0.231807 0.209564,-0.080079 0.304089,-0.040767 0.221588,0.09216 -0.138292,0.222817 -0.58705,0.329569 -0.58705,0.139649 z m 1.711762,-0.5393303 c 0.229121,-0.059454 0.547029,-0.055544 0.70646,0.00869 0.159432,0.064233 -0.02803,0.1128777 -0.416583,0.1080987 -0.388553,-0.00478 -0.518999,-0.057333 -0.289877,-0.1167876 z m 5.212728,-1.0685893 c -0.4486,-0.5276105 -0.4486,-0.5276105 0.08125,-0.080903 0.497923,0.4197945 0.637048,0.6085136 0.4486,0.6085136 -0.04469,0 -0.283117,-0.2374248 -0.529846,-0.5276106 z M 31.274002,7.3001785 c -0.194276,-0.1250217 -0.247261,-0.227312 -0.117743,-0.227312 0.129518,0 0.39444,0.1022903 0.588717,0.227312 0.194277,0.1250216 0.247261,0.2273119 0.117744,0.2273119 -0.129518,0 -0.394441,-0.1022903 -0.588718,-0.2273119 z m -1.928049,-0.629173 c 0.169991,-0.067738 0.373099,-0.059407 0.451351,0.018513 0.07825,0.07792 -0.06084,0.1333426 -0.309077,0.1231607 -0.27433,-0.011251 -0.330129,-0.066817 -0.142274,-0.1416737 z"
       style="fill:#101010;fill-opacity:1;stroke-width:0.2349897" />
    <path
       inkscape:connector-curvature="0"
       id="path28-8"
       d="m 18.128018,53.554122 c 5.268177,-0.03517 13.957644,-0.03518 19.309927,-3e-5 5.352283,0.03515 1.041956,0.06393 -9.578503,0.06394 -10.620459,1.8e-5 -14.9996,-0.02874 -9.731424,-0.06391 z m 29.350427,0.01559 c 0.169991,-0.06774 0.373098,-0.05941 0.45135,0.0185 0.07825,0.07792 -0.06083,0.133342 -0.309076,0.12316 -0.274331,-0.01126 -0.330129,-0.06682 -0.142274,-0.141671 z m 4.518405,-1.833008 c 0.30419,-0.322429 0.606056,-0.586234 0.670815,-0.586234 0.06476,0 -0.131138,0.263805 -0.435329,0.586234 -0.30419,0.322429 -0.606056,0.586234 -0.670815,0.586234 -0.06476,0 0.131138,-0.263805 0.435329,-0.586234 z m -33.244984,-1.46552 c 5.222739,-0.03522 13.700268,-0.0352 18.838952,3.3e-5 5.138685,0.03524 0.865535,0.06405 -9.495889,0.06403 -10.361423,-1.6e-5 -14.565802,-0.02885 -9.343063,-0.06407 z M 6.5178403,49.098656 c -0.2929154,-0.371921 -0.2845862,-0.380215 0.088909,-0.08854 0.2266562,0.177008 0.4121021,0.361671 0.4121021,0.410364 0,0.192997 -0.1933785,0.06878 -0.5010113,-0.321828 z M 34.27646,47.47777 c 0.161898,-0.06505 0.42682,-0.06505 0.588718,0 0.161897,0.06505 0.02943,0.118277 -0.294359,0.118277 -0.323795,0 -0.456256,-0.05323 -0.294359,-0.118277 z m 1.471793,-0.07919 c 0.194277,-0.125022 0.512184,-0.227311 0.706461,-0.227311 0.313982,0 0.313982,0.02525 0,0.227311 -0.194277,0.125023 -0.512184,0.227311 -0.706461,0.227311 -0.313981,0 -0.313981,-0.02526 0,-0.227311 z m -3.664809,-6.512038 c 0.08038,-0.08004 0.311735,-0.169722 0.514131,-0.199303 0.202394,-0.02958 0.302229,0.0117 0.221855,0.09174 -0.08038,0.08004 -0.311735,0.169722 -0.514132,0.199304 -0.202394,0.02958 -0.302228,-0.0117 -0.221854,-0.09174 z m 0.966768,-0.741059 c -0.07452,-0.12006 -0.04545,-0.2737 0.0646,-0.341425 0.110045,-0.06772 0.200082,0.03051 0.200082,0.21829 0,0.395396 -0.07426,0.429942 -0.264678,0.123135 z m -1.77621,-2.918661 c 0,-0.04869 0.185446,-0.233356 0.412102,-0.410364 0.373497,-0.291679 0.381826,-0.283385 0.08891,0.08854 -0.307633,0.390608 -0.501013,0.514826 -0.501013,0.321829 z M 15.025406,36.494627 c 0.304189,-0.322429 0.606056,-0.586234 0.670815,-0.586234 0.06476,0 -0.131139,0.263805 -0.435328,0.586234 -0.304189,0.322428 -0.606056,0.586234 -0.670814,0.586234 -0.06476,0 0.131138,-0.263806 0.435327,-0.586234 z m 19.417986,0.336139 c -0.08537,-0.137551 -0.104716,-0.300386 -0.04299,-0.361854 0.06173,-0.06147 0.174981,0.05107 0.251677,0.250095 0.159231,0.413203 0.02352,0.485884 -0.208689,0.111759 z m -12.570275,-0.35568 c 0.0113,-0.273173 0.0671,-0.328736 0.142274,-0.141674 0.06802,0.169274 0.05966,0.371525 -0.01859,0.449447 -0.07825,0.07792 -0.133907,-0.06058 -0.123682,-0.307773 z m 3.767791,-0.70348 c 0.0113,-0.273174 0.0671,-0.328737 0.142272,-0.141674 0.06802,0.169274 0.05966,0.371524 -0.01858,0.449446 -0.07825,0.07792 -0.133907,-0.06058 -0.123682,-0.307772 z m 14.787045,-0.977058 c -0.292915,-0.37192 -0.284586,-0.380215 0.08891,-0.08854 0.226656,0.177007 0.412102,0.361671 0.412102,0.410364 0,0.192997 -0.193379,0.06878 -0.501012,-0.321829 z M 26.093291,34.64739 c 0,-0.04869 0.185445,-0.233357 0.412102,-0.410364 0.373496,-0.29168 0.381825,-0.283386 0.08891,0.08854 -0.307633,0.390608 -0.501012,0.514826 -0.501012,0.321829 z m -4.989379,-2.182092 c 0.169992,-0.06774 0.373099,-0.05941 0.45135,0.0185 0.07825,0.07792 -0.06083,0.133342 -0.309077,0.12316 -0.274329,-0.01125 -0.330129,-0.06682 -0.142273,-0.141671 z m 14.129214,0 c 0.169991,-0.06774 0.373098,-0.05941 0.45135,0.0185 0.07825,0.07792 -0.06083,0.133342 -0.309076,0.12316 -0.274331,-0.01125 -0.330129,-0.06682 -0.142274,-0.141671 z M 21.873117,25.688382 c 0.0113,-0.273172 0.0671,-0.328737 0.142274,-0.141673 0.06802,0.169275 0.05966,0.371525 -0.01859,0.449446 -0.07825,0.07792 -0.133907,-0.06058 -0.123682,-0.307773 z M 22.3255,23.149847 c 0,-0.04465 0.158954,-0.212538 0.35323,-0.373094 0.203601,-0.16826 0.353231,-0.19105 0.353231,-0.0538 0,0.130965 -0.158954,0.298857 -0.353231,0.373093 -0.194276,0.07424 -0.35323,0.09845 -0.35323,0.0538 z"
       style="fill:#101010;fill-opacity:1;stroke-width:0.2349897" />
    <path
       inkscape:connector-curvature="0"
       id="path26-5"
       d="m 18.749043,47.238392 c 0.169992,-0.06774 0.373099,-0.05941 0.45135,0.0185 0.07825,0.07792 -0.06083,0.133342 -0.309077,0.123161 -0.274329,-0.01126 -0.330129,-0.06682 -0.142273,-0.141672 z m 18.117773,0.0049 c 0.161897,-0.06505 0.42682,-0.06505 0.588717,0 0.161898,0.06505 0.02944,0.118276 -0.294358,0.118276 -0.323795,0 -0.456256,-0.05322 -0.294359,-0.118276 z m -3.693847,-25.007101 -0.573649,-0.74913 0.750264,0.688729 c 0.780542,0.716526 0.86962,0.844247 0.573646,0.822505 -0.09714,-0.0071 -0.434756,-0.350083 -0.750261,-0.762104 z"
       style="fill:#101010;fill-opacity:1;stroke-width:0.2349897" />
    <g
       id="g877"
       transform="translate(-34.19058,38.328401)"
       style="stroke:none;fill:#0d0000;fill-opacity:1">
      <path
         d="m 47.509766,2.1210938 c -1.335687,-7.97e-4 -1.956733,-0.00579 -2.306641,0.011719 -0.349908,0.017504 -0.47606,0.079298 -0.632813,0.1503906 -0.183013,0.083002 -0.277286,0.1494034 -0.441406,0.3046875 C 43.91452,2.7907359 43.782785,2.9778893 43.695312,3.21875 l -0.05273,0.1425781 a 0.23921131,0.23921131 0 0 0 -0.01367,0.080078 l -0.0059,0.9355469 c -0.0016,0.2583066 -0.0031,0.4981937 -0.002,0.6757813 5.87e-4,0.088794 0.0028,0.1610099 0.0039,0.2148437 5.44e-4,0.026917 0.0012,0.048472 0.002,0.066406 3.69e-4,0.00897 -6.44e-4,0.018549 0,0.027344 3.22e-4,0.0044 0.0012,0.00703 0.002,0.013672 7.69e-4,0.00664 0.0076,0.038418 0.0078,0.039063 0.01633,0.061136 0.06006,0.1268029 0.111328,0.1660156 0.05127,0.039213 0.102208,0.055628 0.148437,0.066406 0.09246,0.021556 0.179592,0.021152 0.296875,0.017578 0.08258,-0.00252 0.137647,-0.00455 0.195313,-0.013672 0.05767,-0.00913 0.138652,-0.036628 0.193359,-0.087891 0.04086,-0.03829 0.07988,-0.1185768 0.08984,-0.1679688 0.01,-0.049392 0.01253,-0.092068 0.01563,-0.1601562 0.0062,-0.1361765 0.0074,-0.3654883 0.01172,-0.7890625 l 0.0098,-0.8554687 0.04492,-0.083984 h -0.002 c 0.05528,-0.1047267 0.18094,-0.2263639 0.265625,-0.2695313 0.0582,-0.029666 0.06031,-0.033676 0.08984,-0.041016 0.02953,-0.00734 0.101788,-0.017585 0.25,-0.023437 0.296424,-0.011705 0.889991,-0.011719 2.123047,-0.011719 0.79343,0 1.365323,0.00272 1.746093,0.00586 0.190386,0.00157 0.33381,0.00344 0.431641,0.00586 0.04892,0.00121 0.08594,0.00261 0.111328,0.00391 0.02539,0.0013 0.04812,0.00525 0.02148,0 0.2325,0.0458 0.448406,0.2613645 0.486328,0.4550782 -0.0082,-0.041961 -0.0015,4.8e-5 0,0.035156 0.0015,0.035108 0.0026,0.084578 0.0039,0.1464844 0.0027,0.1238128 0.006,0.2943999 0.0078,0.4960938 0.0036,0.4033876 0.0059,0.9304681 0.0059,1.4570312 0,0.5265631 -0.0023,1.0537299 -0.0059,1.4570312 -0.0018,0.2016507 -0.0052,0.3723476 -0.0078,0.4960938 -0.0013,0.061873 -0.0025,0.1114201 -0.0039,0.1464844 -0.0015,0.035064 -0.0084,0.07763 0,0.035156 -0.0045,0.023049 -0.03666,0.1184095 -0.04687,0.1386719 -0.0177,0.035107 -0.218733,0.2349811 -0.25586,0.2539063 -0.110402,0.056277 -0.05304,0.052714 -0.308593,0.064453 -0.255556,0.011739 -0.762322,0.011719 -1.802735,0.011719 -0.950455,0 -1.426424,-9.238e-4 -1.677734,0.00391 -0.125655,0.00241 -0.191691,0.00529 -0.251953,0.013672 -0.06026,0.00839 -0.155748,0.05401 -0.169922,0.064453 -0.02912,0.021453 -0.119278,0.1287062 -0.134766,0.2089843 -0.01549,0.080278 -0.0098,0.129128 -0.0098,0.2324219 0,0.095077 -0.0022,0.1505082 0.0078,0.2167969 0.01,0.066289 0.06612,0.1661434 0.103516,0.2011719 0.0093,0.00869 0.0495,0.042408 0.08789,0.058594 0.03839,0.016186 0.06936,0.021314 0.09961,0.025391 0.06051,0.00815 0.130309,0.011157 0.259765,0.013672 0.258912,0.00503 0.748388,0.00391 1.716797,0.00391 1.102647,0 1.62239,0.00313 1.925781,-0.013672 0.303392,-0.016804 0.429397,-0.073238 0.574219,-0.1386719 0.442276,-0.1998286 0.777554,-0.5675385 0.916016,-1.0136718 v -0.00195 l 0.04492,-0.1386718 a 0.23921131,0.23921131 0 0 0 0.0098,-0.072266 V 5.765625 c 0,-1.0709785 8.88e-4,-1.6400682 -0.0039,-1.9589844 C 51.356534,3.4877244 51.343819,3.3910021 51.320312,3.3125 51.144101,2.7239941 50.641088,2.2755946 50.025391,2.1484375 c -0.06379,-0.013178 -0.108583,-0.012514 -0.201172,-0.015625 -0.09259,-0.00311 -0.221934,-0.00611 -0.408203,-0.00781 -0.372539,-0.00341 -0.967321,-0.00335 -1.90625,-0.00391 z"
         id="path867"
         style="fill:#0d0000;stroke-width:0.01824594;stroke:none;fill-opacity:1"
         inkscape:original="M 47.509766 2.359375 C 44.837848 2.3577808 45.007681 2.3487689 44.669922 2.5019531 C 44.493633 2.5819056 44.453257 2.6100597 44.292969 2.7617188 C 44.092884 2.9510327 43.996982 3.0885923 43.919922 3.3007812 L 43.867188 3.4433594 L 43.861328 4.3789062 C 43.858228 4.8936316 43.861688 5.3309405 43.867188 5.3515625 C 43.883592 5.4129895 43.967006 5.4324413 44.185547 5.4257812 C 44.345204 5.4209132 44.390939 5.4139999 44.417969 5.3886719 C 44.449109 5.359487 44.452238 5.2900529 44.460938 4.4433594 L 44.470703 3.5292969 L 44.541016 3.3945312 C 44.621978 3.2411617 44.766402 3.0957195 44.908203 3.0234375 C 45.115222 2.9179128 45.014613 2.921875 47.480469 2.921875 C 49.067901 2.921875 49.767641 2.9275673 49.837891 2.9414062 C 50.168308 3.0064949 50.451649 3.2771284 50.511719 3.5839844 C 50.540449 3.7307563 50.540459 7.8011772 50.511719 7.9472656 C 50.500379 8.004892 50.469479 8.0946914 50.443359 8.1464844 C 50.382935 8.2663123 50.203407 8.4449834 50.083984 8.5058594 C 49.879841 8.6099207 49.943914 8.6074219 47.863281 8.6074219 C 45.962423 8.6074219 45.95576 8.6080543 45.90625 8.6445312 C 45.857541 8.6804132 45.857422 8.6860822 45.857422 8.8925781 C 45.857422 9.0796469 45.861041 9.1053507 45.894531 9.1367188 C 45.931756 9.1715821 45.957898 9.1738281 47.894531 9.1738281 C 50.100249 9.1738281 49.989941 9.1796944 50.296875 9.0410156 C 50.680928 8.867493 50.965093 8.552085 51.082031 8.1738281 L 51.126953 8.0332031 L 51.126953 5.765625 C 51.126953 3.6238702 51.124237 3.4891972 51.091797 3.3808594 C 50.942319 2.8816384 50.507866 2.4925403 49.976562 2.3828125 C 49.88629 2.3641655 49.387339 2.360495 47.509766 2.359375 z "
         inkscape:radius="0.23918739"
         sodipodi:type="inkscape:offset" />
      <path
         d="m 46.818359,4.2871094 c -0.02838,0 -0.07017,0.00803 -0.09961,0.021484 -0.02944,0.013452 -0.05315,0.030879 -0.08008,0.050781 -0.05385,0.039804 -0.123214,0.099836 -0.242188,0.2070312 -0.237946,0.2143906 -0.666777,0.6149258 -1.476562,1.3730469 -0.471801,0.4416997 -0.904309,0.8437068 -1.21875,1.1347657 -0.157221,0.1455294 -0.28411,0.2626258 -0.373047,0.34375 -0.01335,0.012173 -0.0197,0.016861 -0.03125,0.027344 -0.01053,-0.00938 -0.01555,-0.014783 -0.02734,-0.025391 -0.08397,-0.075554 -0.198645,-0.1807414 -0.322265,-0.296875 -0.125569,-0.1179641 -0.247293,-0.2314325 -0.345704,-0.3183594 -0.04921,-0.043463 -0.09399,-0.080456 -0.128906,-0.109375 -0.03492,-0.028919 -0.04703,-0.043412 -0.0918,-0.068359 -0.235361,-0.1311712 -0.540314,-0.041965 -0.658203,0.2011719 -0.01328,0.027363 -0.02862,0.073268 -0.03516,0.1210938 -0.0065,0.047826 -0.0094,0.1037855 -0.01172,0.1953124 -0.0047,0.1830539 -0.0057,0.5040972 -0.0059,1.109375 -10e-5,0.4065118 9.85e-4,0.7336823 0.0039,0.9648438 0.0015,0.1155808 0.0035,0.2065149 0.0059,0.2734375 0.0012,0.033461 0.0024,0.061587 0.0039,0.083984 0.0016,0.022397 -0.0026,0.023831 0.01172,0.072266 0.02829,0.095403 0.08605,0.1597347 0.152344,0.2128906 0.06629,0.053156 0.142434,0.094749 0.236328,0.1074219 0.03192,0.00431 0.03762,0.00322 0.0625,0.00391 0.02488,6.866e-4 0.05783,0.00142 0.09766,0.00195 0.07966,0.00107 0.18757,0.00142 0.318359,0.00195 0.261578,0.00107 0.610672,0.00145 0.984375,0 1.246457,-0.00487 1.356322,0.016943 1.496094,-0.054687 0.23062,-0.118167 0.31906,-0.4134466 0.179687,-0.6328125 -0.02833,-0.044595 -0.04336,-0.057032 -0.07422,-0.089844 C 45.117578,9.1664067 45.077607,9.1262701 45.03125,9.0800781 44.938537,8.9876941 44.819419,8.8735636 44.693359,8.7558594 44.569186,8.6399169 44.455897,8.5315009 44.375,8.453125 c -0.0043,-0.00412 -0.0057,-0.0058 -0.0098,-0.00977 0.005,-0.00477 0.0065,-0.00668 0.01172,-0.011719 0.08648,-0.083179 0.211984,-0.2025122 0.367188,-0.3496094 0.310407,-0.2941942 0.739328,-0.6987527 1.210937,-1.140625 0.807538,-0.7566195 1.235244,-1.1589848 1.464844,-1.3828124 0.1148,-0.1119139 0.179548,-0.1773782 0.222656,-0.2285157 0.02155,-0.025569 0.03919,-0.048682 0.05469,-0.078125 0.0155,-0.029443 0.02734,-0.073426 0.02734,-0.1054687 0,-0.029012 -0.0086,-0.078713 -0.02734,-0.1171875 -0.0187,-0.038475 -0.04044,-0.066255 -0.06836,-0.097656 -0.05584,-0.062803 -0.140201,-0.1419127 -0.292968,-0.2851562 -0.153265,-0.1437107 -0.23792,-0.2215026 -0.304688,-0.2734375 -0.03338,-0.025968 -0.06321,-0.048366 -0.101562,-0.064453 -0.03835,-0.016087 -0.08392,-0.021484 -0.111329,-0.021484 z"
         id="path842"
         style="fill:#0d0000;stroke-width:0.01824594;stroke:none;fill-opacity:1"
         inkscape:original="M 46.818359 4.4589844 C 46.756331 4.4589844 46.656568 4.5483156 45.037109 6.0644531 C 44.093108 6.9482267 43.311101 7.671875 43.300781 7.671875 C 43.290462 7.671875 43.078866 7.481767 42.830078 7.2480469 C 42.581291 7.0143268 42.341435 6.8021778 42.296875 6.7773438 C 42.144454 6.6923966 41.950813 6.7500136 41.876953 6.9023438 C 41.843743 6.9707761 41.84209 7.0435054 41.841797 8.2539062 C 41.841597 9.0661157 41.847245 9.5586994 41.859375 9.5996094 C 41.886392 9.6907094 42.004284 9.7849081 42.107422 9.7988281 C 42.152299 9.8048811 42.800271 9.8075875 43.546875 9.8046875 C 44.793176 9.7998175 44.909954 9.7976613 44.964844 9.7695312 C 45.111608 9.6943312 45.163565 9.5153378 45.078125 9.3808594 C 45.051609 9.3391257 44.82572 9.1138667 44.576172 8.8808594 C 44.326623 8.6478521 44.123047 8.4510663 44.123047 8.4414062 C 44.123047 8.4317416 44.894265 7.7005318 45.837891 6.8164062 C 47.452813 5.3033116 47.552734 5.2040964 47.552734 5.1464844 C 47.552734 5.090733 47.523396 5.0571382 47.21875 4.7714844 C 46.913184 4.4849661 46.878419 4.4589844 46.818359 4.4589844 z "
         inkscape:radius="0.17187497"
         sodipodi:type="inkscape:offset" />
    </g>
  </g>
</svg>
