<?xml version="1.0" encoding="UTF-8" standalone="no"?>
<svg
   xmlns:dc="http://purl.org/dc/elements/1.1/"
   xmlns:cc="http://creativecommons.org/ns#"
   xmlns:rdf="http://www.w3.org/1999/02/22-rdf-syntax-ns#"
   xmlns:svg="http://www.w3.org/2000/svg"
   xmlns="http://www.w3.org/2000/svg"
   xmlns:sodipodi="http://sodipodi.sourceforge.net/DTD/sodipodi-0.dtd"
   xmlns:inkscape="http://www.inkscape.org/namespaces/inkscape"
   version="1.1"
   id="svg12"
   width="15mm"
   height="16mm"
   viewBox="0 0 56.692908 60.472433"
   sodipodi:docname="ExternalControlImage.svg"
   inkscape:export-filename="C:\dev\ELTA\GitClones\TRADES\bundles\dsm.TRADES.edit\icons\custom\ExternalControl.png"
   inkscape:export-xdpi="27.093334"
   inkscape:export-ydpi="27.093334"
   inkscape:version="0.92.4 (5da689c313, 2019-01-14)">
  <metadata
     id="metadata18">
    <rdf:RDF>
      <cc:Work
         rdf:about="">
        <dc:format>image/svg+xml</dc:format>
        <dc:type
           rdf:resource="http://purl.org/dc/dcmitype/StillImage" />
        <dc:title />
      </cc:Work>
    </rdf:RDF>
  </metadata>
  <defs
     id="defs16" />
  <sodipodi:namedview
     pagecolor="#ffffff"
     bordercolor="#666666"
     borderopacity="1"
     objecttolerance="10"
     gridtolerance="10"
     guidetolerance="10"
     inkscape:pageopacity="0"
     inkscape:pageshadow="2"
     inkscape:window-width="1920"
     inkscape:window-height="1017"
     id="namedview14"
     showgrid="true"
     inkscape:zoom="11.313709"
     inkscape:cx="-18.12539"
     inkscape:cy="32.896139"
     inkscape:window-x="-8"
     inkscape:window-y="1072"
     inkscape:window-maximized="1"
     inkscape:current-layer="g20"
     inkscape:document-rotation="0"
     units="mm"
     width="249mm"
     inkscape:snap-to-guides="true"
     inkscape:object-paths="true" />
  <g
     inkscape:groupmode="layer"
     inkscape:label="Image"
     id="g20">
    <g
       id="g8"
       transform="matrix(0.62000322,0,0,0.53499658,-2.7157046,3.0277065)"
       style="fill:#4d4d4d;fill-opacity:1">
      <g
         id="g6"
         style="fill:#4d4d4d;fill-opacity:1">
        <path
           inkscape:connector-curvature="0"
           d="M 88.1,16.5 C 65.7,16.8 51.1,5.1 51,4.9 50.4,4.4 49.6,4.4 49.1,4.9 49,5 34.4,16.8 11.9,16.4 c -0.7,0 -1.4,0.5 -1.5,1.3 -0.1,0.7 -2.4,16.2 1.2,33.6 4.8,23.3 18,38.5 38.1,44 0.1,0 0.3,0.1 0.4,0.1 0.1,0 0.3,0 0.4,-0.1 20.1,-5.5 33.3,-20.7 38.1,-44 3.6,-17.4 1.3,-33 1.2,-33.6 C 89.5,17 88.9,16.5 88.1,16.5 Z M 50,92.4 C 31,87.1 19.1,73.1 14.5,50.9 11.6,36.8 12.7,23.6 13.2,19.5 33,19.4 46.4,10.6 50,8 c 3.6,2.6 17,11.4 36.8,11.5 1,8.8 5,61.2 -36.8,72.9 z"
           id="path2"
           style="fill:#4d4d4d;fill-opacity:1" />
        <path
           inkscape:connector-curvature="0"
           d="m 75.2,27.3 c 0,0 0,0 0,0 C 60.5,27.6 51,19.9 51,19.8 c -0.6,-0.5 -1.4,-0.5 -1.9,0 -0.1,0.1 -9.5,7.7 -24.3,7.5 0,0 0,0 0,0 -0.7,0 -1.4,0.5 -1.5,1.3 -0.1,0.4 -6.2,43.1 26.3,51.9 0.1,0 0.3,0.1 0.4,0.1 0.1,0 0.3,0 0.4,-0.1 C 82.9,71.7 76.8,29 76.7,28.6 76.6,27.9 76,27.3 75.2,27.3 Z M 50,77.5 C 23.5,70 25.4,37.2 26.1,30.3 38.6,30.1 47.2,24.8 50,22.8 c 2.8,2 11.4,7.3 23.9,7.5 0.7,6.9 2.6,39.7 -23.9,47.2 z"
           id="path4"
           style="fill:#4d4d4d;fill-opacity:1" />
      </g>
    </g>
    <path
       style="fill:none;stroke:#4d4d4d;stroke-width:0.95240599;stroke-linecap:butt;stroke-linejoin:miter;stroke-miterlimit:4;stroke-dasharray:none;stroke-opacity:1"
       d="M 44.002767,25.575728 19.844774,42.430975"
       id="path22"
       inkscape:connector-curvature="0"
       sodipodi:nodetypes="cc" />
    <path
       style="fill:none;stroke:#4d4d4d;stroke-width:0.886904;stroke-linecap:butt;stroke-linejoin:miter;stroke-miterlimit:4;stroke-dasharray:none;stroke-opacity:1"
       d="M 39.25566,18.157335 15.460655,34.124529"
       id="path22-5"
       inkscape:connector-curvature="0"
       sodipodi:nodetypes="cc" />
    <g
       id="g877"
       transform="translate(-27.153916,17.738926)"
       style="fill:#4d4d4d;fill-opacity:1;stroke:none">
      <path
         d="m 47.509766,2.1210938 c -1.335687,-7.97e-4 -1.956733,-0.00579 -2.306641,0.011719 -0.349908,0.017504 -0.47606,0.079298 -0.632813,0.1503906 -0.183013,0.083002 -0.277286,0.1494034 -0.441406,0.3046875 C 43.91452,2.7907359 43.782785,2.9778893 43.695312,3.21875 l -0.05273,0.1425781 a 0.23921131,0.23921131 0 0 0 -0.01367,0.080078 l -0.0059,0.9355469 c -0.0016,0.2583066 -0.0031,0.4981937 -0.002,0.6757813 5.87e-4,0.088794 0.0028,0.1610099 0.0039,0.2148437 5.44e-4,0.026917 0.0012,0.048472 0.002,0.066406 3.69e-4,0.00897 -6.44e-4,0.018549 0,0.027344 3.22e-4,0.0044 0.0012,0.00703 0.002,0.013672 7.69e-4,0.00664 0.0076,0.038418 0.0078,0.039063 0.01633,0.061136 0.06006,0.1268029 0.111328,0.1660156 0.05127,0.039213 0.102208,0.055628 0.148437,0.066406 0.09246,0.021556 0.179592,0.021152 0.296875,0.017578 0.08258,-0.00252 0.137647,-0.00455 0.195313,-0.013672 0.05767,-0.00913 0.138652,-0.036628 0.193359,-0.087891 0.04086,-0.03829 0.07988,-0.1185768 0.08984,-0.1679688 0.01,-0.049392 0.01253,-0.092068 0.01563,-0.1601562 0.0062,-0.1361765 0.0074,-0.3654883 0.01172,-0.7890625 l 0.0098,-0.8554687 0.04492,-0.083984 h -0.002 c 0.05528,-0.1047267 0.18094,-0.2263639 0.265625,-0.2695313 0.0582,-0.029666 0.06031,-0.033676 0.08984,-0.041016 0.02953,-0.00734 0.101788,-0.017585 0.25,-0.023437 0.296424,-0.011705 0.889991,-0.011719 2.123047,-0.011719 0.79343,0 1.365323,0.00272 1.746093,0.00586 0.190386,0.00157 0.33381,0.00344 0.431641,0.00586 0.04892,0.00121 0.08594,0.00261 0.111328,0.00391 0.02539,0.0013 0.04812,0.00525 0.02148,0 0.2325,0.0458 0.448406,0.2613645 0.486328,0.4550782 -0.0082,-0.041961 -0.0015,4.8e-5 0,0.035156 0.0015,0.035108 0.0026,0.084578 0.0039,0.1464844 0.0027,0.1238128 0.006,0.2943999 0.0078,0.4960938 0.0036,0.4033876 0.0059,0.9304681 0.0059,1.4570312 0,0.5265631 -0.0023,1.0537299 -0.0059,1.4570312 -0.0018,0.2016507 -0.0052,0.3723476 -0.0078,0.4960938 -0.0013,0.061873 -0.0025,0.1114201 -0.0039,0.1464844 -0.0015,0.035064 -0.0084,0.07763 0,0.035156 -0.0045,0.023049 -0.03666,0.1184095 -0.04687,0.1386719 -0.0177,0.035107 -0.218733,0.2349811 -0.25586,0.2539063 -0.110402,0.056277 -0.05304,0.052714 -0.308593,0.064453 -0.255556,0.011739 -0.762322,0.011719 -1.802735,0.011719 -0.950455,0 -1.426424,-9.238e-4 -1.677734,0.00391 -0.125655,0.00241 -0.191691,0.00529 -0.251953,0.013672 -0.06026,0.00839 -0.155748,0.05401 -0.169922,0.064453 -0.02912,0.021453 -0.119278,0.1287062 -0.134766,0.2089843 -0.01549,0.080278 -0.0098,0.129128 -0.0098,0.2324219 0,0.095077 -0.0022,0.1505082 0.0078,0.2167969 0.01,0.066289 0.06612,0.1661434 0.103516,0.2011719 0.0093,0.00869 0.0495,0.042408 0.08789,0.058594 0.03839,0.016186 0.06936,0.021314 0.09961,0.025391 0.06051,0.00815 0.130309,0.011157 0.259765,0.013672 0.258912,0.00503 0.748388,0.00391 1.716797,0.00391 1.102647,0 1.62239,0.00313 1.925781,-0.013672 0.303392,-0.016804 0.429397,-0.073238 0.574219,-0.1386719 0.442276,-0.1998286 0.777554,-0.5675385 0.916016,-1.0136718 v -0.00195 l 0.04492,-0.1386718 a 0.23921131,0.23921131 0 0 0 0.0098,-0.072266 V 5.765625 c 0,-1.0709785 8.88e-4,-1.6400682 -0.0039,-1.9589844 C 51.356534,3.4877244 51.343819,3.3910021 51.320312,3.3125 51.144101,2.7239941 50.641088,2.2755946 50.025391,2.1484375 c -0.06379,-0.013178 -0.108583,-0.012514 -0.201172,-0.015625 -0.09259,-0.00311 -0.221934,-0.00611 -0.408203,-0.00781 -0.372539,-0.00341 -0.967321,-0.00335 -1.90625,-0.00391 z"
         id="path867"
         style="fill:#4d4d4d;fill-opacity:1;stroke:none;stroke-width:0.01824594"
         inkscape:original="M 47.509766 2.359375 C 44.837848 2.3577808 45.007681 2.3487689 44.669922 2.5019531 C 44.493633 2.5819056 44.453257 2.6100597 44.292969 2.7617188 C 44.092884 2.9510327 43.996982 3.0885923 43.919922 3.3007812 L 43.867188 3.4433594 L 43.861328 4.3789062 C 43.858228 4.8936316 43.861688 5.3309405 43.867188 5.3515625 C 43.883592 5.4129895 43.967006 5.4324413 44.185547 5.4257812 C 44.345204 5.4209132 44.390939 5.4139999 44.417969 5.3886719 C 44.449109 5.359487 44.452238 5.2900529 44.460938 4.4433594 L 44.470703 3.5292969 L 44.541016 3.3945312 C 44.621978 3.2411617 44.766402 3.0957195 44.908203 3.0234375 C 45.115222 2.9179128 45.014613 2.921875 47.480469 2.921875 C 49.067901 2.921875 49.767641 2.9275673 49.837891 2.9414062 C 50.168308 3.0064949 50.451649 3.2771284 50.511719 3.5839844 C 50.540449 3.7307563 50.540459 7.8011772 50.511719 7.9472656 C 50.500379 8.004892 50.469479 8.0946914 50.443359 8.1464844 C 50.382935 8.2663123 50.203407 8.4449834 50.083984 8.5058594 C 49.879841 8.6099207 49.943914 8.6074219 47.863281 8.6074219 C 45.962423 8.6074219 45.95576 8.6080543 45.90625 8.6445312 C 45.857541 8.6804132 45.857422 8.6860822 45.857422 8.8925781 C 45.857422 9.0796469 45.861041 9.1053507 45.894531 9.1367188 C 45.931756 9.1715821 45.957898 9.1738281 47.894531 9.1738281 C 50.100249 9.1738281 49.989941 9.1796944 50.296875 9.0410156 C 50.680928 8.867493 50.965093 8.552085 51.082031 8.1738281 L 51.126953 8.0332031 L 51.126953 5.765625 C 51.126953 3.6238702 51.124237 3.4891972 51.091797 3.3808594 C 50.942319 2.8816384 50.507866 2.4925403 49.976562 2.3828125 C 49.88629 2.3641655 49.387339 2.360495 47.509766 2.359375 z "
         inkscape:radius="0.23918739"
         sodipodi:type="inkscape:offset" />
      <path
         d="m 46.818359,4.2871094 c -0.02838,0 -0.07017,0.00803 -0.09961,0.021484 -0.02944,0.013452 -0.05315,0.030879 -0.08008,0.050781 -0.05385,0.039804 -0.123214,0.099836 -0.242188,0.2070312 -0.237946,0.2143906 -0.666777,0.6149258 -1.476562,1.3730469 -0.471801,0.4416997 -0.904309,0.8437068 -1.21875,1.1347657 -0.157221,0.1455294 -0.28411,0.2626258 -0.373047,0.34375 -0.01335,0.012173 -0.0197,0.016861 -0.03125,0.027344 -0.01053,-0.00938 -0.01555,-0.014783 -0.02734,-0.025391 -0.08397,-0.075554 -0.198645,-0.1807414 -0.322265,-0.296875 -0.125569,-0.1179641 -0.247293,-0.2314325 -0.345704,-0.3183594 -0.04921,-0.043463 -0.09399,-0.080456 -0.128906,-0.109375 -0.03492,-0.028919 -0.04703,-0.043412 -0.0918,-0.068359 -0.235361,-0.1311712 -0.540314,-0.041965 -0.658203,0.2011719 -0.01328,0.027363 -0.02862,0.073268 -0.03516,0.1210938 -0.0065,0.047826 -0.0094,0.1037855 -0.01172,0.1953124 -0.0047,0.1830539 -0.0057,0.5040972 -0.0059,1.109375 -10e-5,0.4065118 9.85e-4,0.7336823 0.0039,0.9648438 0.0015,0.1155808 0.0035,0.2065149 0.0059,0.2734375 0.0012,0.033461 0.0024,0.061587 0.0039,0.083984 0.0016,0.022397 -0.0026,0.023831 0.01172,0.072266 0.02829,0.095403 0.08605,0.1597347 0.152344,0.2128906 0.06629,0.053156 0.142434,0.094749 0.236328,0.1074219 0.03192,0.00431 0.03762,0.00322 0.0625,0.00391 0.02488,6.866e-4 0.05783,0.00142 0.09766,0.00195 0.07966,0.00107 0.18757,0.00142 0.318359,0.00195 0.261578,0.00107 0.610672,0.00145 0.984375,0 1.246457,-0.00487 1.356322,0.016943 1.496094,-0.054687 0.23062,-0.118167 0.31906,-0.4134466 0.179687,-0.6328125 -0.02833,-0.044595 -0.04336,-0.057032 -0.07422,-0.089844 C 45.117578,9.1664067 45.077607,9.1262701 45.03125,9.0800781 44.938537,8.9876941 44.819419,8.8735636 44.693359,8.7558594 44.569186,8.6399169 44.455897,8.5315009 44.375,8.453125 c -0.0043,-0.00412 -0.0057,-0.0058 -0.0098,-0.00977 0.005,-0.00477 0.0065,-0.00668 0.01172,-0.011719 0.08648,-0.083179 0.211984,-0.2025122 0.367188,-0.3496094 0.310407,-0.2941942 0.739328,-0.6987527 1.210937,-1.140625 0.807538,-0.7566195 1.235244,-1.1589848 1.464844,-1.3828124 0.1148,-0.1119139 0.179548,-0.1773782 0.222656,-0.2285157 0.02155,-0.025569 0.03919,-0.048682 0.05469,-0.078125 0.0155,-0.029443 0.02734,-0.073426 0.02734,-0.1054687 0,-0.029012 -0.0086,-0.078713 -0.02734,-0.1171875 -0.0187,-0.038475 -0.04044,-0.066255 -0.06836,-0.097656 -0.05584,-0.062803 -0.140201,-0.1419127 -0.292968,-0.2851562 -0.153265,-0.1437107 -0.23792,-0.2215026 -0.304688,-0.2734375 -0.03338,-0.025968 -0.06321,-0.048366 -0.101562,-0.064453 -0.03835,-0.016087 -0.08392,-0.021484 -0.111329,-0.021484 z"
         id="path842"
         style="fill:#4d4d4d;fill-opacity:1;stroke:none;stroke-width:0.01824594"
         inkscape:original="M 46.818359 4.4589844 C 46.756331 4.4589844 46.656568 4.5483156 45.037109 6.0644531 C 44.093108 6.9482267 43.311101 7.671875 43.300781 7.671875 C 43.290462 7.671875 43.078866 7.481767 42.830078 7.2480469 C 42.581291 7.0143268 42.341435 6.8021778 42.296875 6.7773438 C 42.144454 6.6923966 41.950813 6.7500136 41.876953 6.9023438 C 41.843743 6.9707761 41.84209 7.0435054 41.841797 8.2539062 C 41.841597 9.0661157 41.847245 9.5586994 41.859375 9.5996094 C 41.886392 9.6907094 42.004284 9.7849081 42.107422 9.7988281 C 42.152299 9.8048811 42.800271 9.8075875 43.546875 9.8046875 C 44.793176 9.7998175 44.909954 9.7976613 44.964844 9.7695312 C 45.111608 9.6943312 45.163565 9.5153378 45.078125 9.3808594 C 45.051609 9.3391257 44.82572 9.1138667 44.576172 8.8808594 C 44.326623 8.6478521 44.123047 8.4510663 44.123047 8.4414062 C 44.123047 8.4317416 44.894265 7.7005318 45.837891 6.8164062 C 47.452813 5.3033116 47.552734 5.2040964 47.552734 5.1464844 C 47.552734 5.090733 47.523396 5.0571382 47.21875 4.7714844 C 46.913184 4.4849661 46.878419 4.4589844 46.818359 4.4589844 z "
         inkscape:radius="0.17187497"
         sodipodi:type="inkscape:offset" />
    </g>
  </g>
</svg>
