<?xml version="1.0" encoding="UTF-8" standalone="no"?>
<svg
   xmlns:dc="http://purl.org/dc/elements/1.1/"
   xmlns:cc="http://creativecommons.org/ns#"
   xmlns:rdf="http://www.w3.org/1999/02/22-rdf-syntax-ns#"
   xmlns:svg="http://www.w3.org/2000/svg"
   xmlns="http://www.w3.org/2000/svg"
   xmlns:sodipodi="http://sodipodi.sourceforge.net/DTD/sodipodi-0.dtd"
   xmlns:inkscape="http://www.inkscape.org/namespaces/inkscape"
   version="1.1"
   id="svg12"
   width="23mm"
   height="23mm"
   viewBox="0 0 86.929125 86.929122"
   sodipodi:docname="MirigationAllocationImage.svg"
   inkscape:export-filename="C:\Users\825901\git\TRADES\bundles\TRADES.design\Images\ThreatMinigationIcon.png"
   inkscape:export-xdpi="18.467821"
   inkscape:export-ydpi="18.467821"
   inkscape:version="1.0.1 (3bc2e813f5, 2020-09-07)">
  <metadata
     id="metadata18">
    <rdf:RDF>
      <cc:Work
         rdf:about="">
        <dc:format>image/svg+xml</dc:format>
        <dc:type
           rdf:resource="http://purl.org/dc/dcmitype/StillImage" />
        <dc:title></dc:title>
      </cc:Work>
    </rdf:RDF>
  </metadata>
  <defs
     id="defs16">
    <inkscape:path-effect
       effect="bspline"
       id="path-effect33"
       is_visible="true"
       lpeversion="1"
       weight="33.333333"
       steps="2"
       helper_size="0"
       apply_no_weight="true"
       apply_with_weight="true"
       only_selected="false" />
    <inkscape:path-effect
       effect="spiro"
       id="path-effect67"
       is_visible="true"
       lpeversion="1" />
  </defs>
  <sodipodi:namedview
     pagecolor="#ffffff"
     bordercolor="#666666"
     borderopacity="1"
     objecttolerance="10"
     gridtolerance="10"
     guidetolerance="10"
     inkscape:pageopacity="0"
     inkscape:pageshadow="2"
     inkscape:window-width="1920"
     inkscape:window-height="1017"
     id="namedview14"
     showgrid="false"
     inkscape:zoom="3.2666667"
     inkscape:cx="87.704082"
     inkscape:cy="58.675759"
     inkscape:window-x="-8"
     inkscape:window-y="-8"
     inkscape:window-maximized="1"
     inkscape:current-layer="g20"
     inkscape:document-rotation="0"
     units="mm"
     width="249mm"
     inkscape:snap-to-guides="true" />
  <g
     inkscape:groupmode="layer"
     inkscape:label="Image"
     id="g20">
    <g
       id="g8"
       transform="matrix(0.94874223,0,0,0.8686242,-1.078106,-0.5516986)">
      <g
         id="g6">
        <path
           d="M 88.1,16.5 C 65.7,16.8 51.1,5.1 51,4.9 50.4,4.4 49.6,4.4 49.1,4.9 49,5 34.4,16.8 11.9,16.4 c -0.7,0 -1.4,0.5 -1.5,1.3 -0.1,0.7 -2.4,16.2 1.2,33.6 4.8,23.3 18,38.5 38.1,44 0.1,0 0.3,0.1 0.4,0.1 0.1,0 0.3,0 0.4,-0.1 20.1,-5.5 33.3,-20.7 38.1,-44 3.6,-17.4 1.3,-33 1.2,-33.6 C 89.5,17 88.9,16.5 88.1,16.5 Z M 50,92.4 C 31,87.1 19.1,73.1 14.5,50.9 11.6,36.8 12.7,23.6 13.2,19.5 33,19.4 46.4,10.6 50,8 c 3.6,2.6 17,11.4 36.8,11.5 1,8.8 5,61.2 -36.8,72.9 z"
           id="path2" />
        <path
           d="m 75.2,27.3 c 0,0 0,0 0,0 C 60.5,27.6 51,19.9 51,19.8 c -0.6,-0.5 -1.4,-0.5 -1.9,0 -0.1,0.1 -9.5,7.7 -24.3,7.5 0,0 0,0 0,0 -0.7,0 -1.4,0.5 -1.5,1.3 -0.1,0.4 -6.2,43.1 26.3,51.9 0.1,0 0.3,0.1 0.4,0.1 0.1,0 0.3,0 0.4,-0.1 C 82.9,71.7 76.8,29 76.7,28.6 76.6,27.9 76,27.3 75.2,27.3 Z M 50,77.5 C 23.5,70 25.4,37.2 26.1,30.3 38.6,30.1 47.2,24.8 50,22.8 c 2.8,2 11.4,7.3 23.9,7.5 0.7,6.9 2.6,39.7 -23.9,47.2 z"
           id="path4" />
      </g>
    </g>
    <path
       style="fill:none;stroke:#000000;stroke-width:1.5;stroke-linecap:butt;stroke-linejoin:miter;stroke-miterlimit:4;stroke-dasharray:none;stroke-opacity:1"
       d="M 69.346938,35.204081 31.693877,60.306122"
       id="path22" />
    <path
       style="fill:none;stroke:#000000;stroke-width:1.5;stroke-linecap:butt;stroke-linejoin:miter;stroke-miterlimit:4;stroke-dasharray:none;stroke-opacity:1"
       d="M 64.613098,25.244898 25.724489,50.346938"
       id="path22-5" />
    <path
       style="fill:none;stroke:#000000;stroke-width:4.47087;stroke-linecap:butt;stroke-linejoin:miter;stroke-miterlimit:4;stroke-dasharray:none;stroke-opacity:1"
       d="M 49.528631,76.699692 C 42.670412,81.530561 35.812245,86.361393 27.794057,84.268569 19.775868,82.175746 10.596659,73.158374 1.4159518,64.139529"
       id="path31"
       inkscape:path-effect="#path-effect33"
       inkscape:original-d="M 49.528631,76.699692 C 42.671498,81.532102 35.813331,86.362934 28.95413,91.192188 19.775587,82.176032 10.596378,73.15866 1.4159518,64.139529" />
    <path
       style="fill:none;stroke:#000000;stroke-width:4.47087;stroke-linecap:butt;stroke-linejoin:miter;stroke-miterlimit:4;stroke-dasharray:none;stroke-opacity:1"
       d="M 19.141676,70.419611 1.4159518,64.139529 10.911876,85.878272"
       id="path862" />
    <path
       style="fill:#4b4b4b;stroke:#4b4b4b;stroke-width:0.765306;stroke-miterlimit:4;stroke-dasharray:none"
       d="M 42.789739,78.44525 C 38.990211,77.198726 34.814833,75.185466 31.530613,73.016386 28.173878,70.799414 22.774748,65.344339 20.399629,61.770069 15.683701,54.673159 12.585887,45.422595 11.469852,35.104331 11.08046,31.504225 11.004371,22.269794 11.335025,18.741231 l 0.216499,-2.31037 h 2.195057 c 9.373514,0 22.595553,-3.744053 30.780176,-8.7159478 l 1.809915,-1.0994651 1.49037,0.917034 c 2.4489,1.5068233 8.288448,4.1921449 11.596475,5.3326489 5.750045,1.982436 14.448952,3.56573 19.590771,3.56573 h 2.200825 l 0.224623,3.594995 c 0.302177,4.83618 -0.01221,13.884461 -0.619619,17.833577 -1.106097,7.19125 -2.701531,12.473892 -5.500987,18.214285 -4.43925,9.10286 -10.696221,15.511638 -19.407618,19.878496 -2.706949,1.356943 -8.659665,3.551831 -9.572731,3.529665 -0.231226,-0.0056 -1.828294,-0.472096 -3.549042,-1.036629 z M 50.580781,68.305881 C 63.901501,63.594813 71.334928,51.891828 72.252858,34.185963 72.487932,29.651689 72.035854,24.202866 71.369278,23.536291 71.043591,23.210605 69.798876,23.013497 66.98779,22.842458 59.899357,22.411166 53.907074,20.50868 47.525511,16.663394 l -1.147959,-0.691716 -1.147959,0.691553 c -6.407349,3.859913 -12.206469,5.673606 -19.781843,6.186832 -2.167003,0.146813 -4.064398,0.391324 -4.216432,0.543359 -0.777119,0.777118 -1.088516,8.619642 -0.551833,13.897863 1.642499,16.153796 9.238317,26.936696 22.024597,31.265757 3.807499,1.289107 3.493207,1.299129 7.876699,-0.251161 z"
       id="path864" />
  </g>
</svg>
