<?xml version="1.0" encoding="UTF-8" standalone="no"?>
<svg
   xmlns:dc="http://purl.org/dc/elements/1.1/"
   xmlns:cc="http://creativecommons.org/ns#"
   xmlns:rdf="http://www.w3.org/1999/02/22-rdf-syntax-ns#"
   xmlns:svg="http://www.w3.org/2000/svg"
   xmlns="http://www.w3.org/2000/svg"
   xmlns:sodipodi="http://sodipodi.sourceforge.net/DTD/sodipodi-0.dtd"
   xmlns:inkscape="http://www.inkscape.org/namespaces/inkscape"
   version="1.1"
   id="svg12"
   width="32mm"
   height="30mm"
   viewBox="0 0 120.94487 113.38582"
   sodipodi:docname="ThreatImage.svg"
   inkscape:export-filename="threat2.png"
   inkscape:export-xdpi="64"
   inkscape:export-ydpi="64"
   inkscape:version="1.0.1 (3bc2e813f5, 2020-09-07)">
  <metadata
     id="metadata18">
    <rdf:RDF>
      <cc:Work
         rdf:about="">
        <dc:format>image/svg+xml</dc:format>
        <dc:type
           rdf:resource="http://purl.org/dc/dcmitype/StillImage" />
        <dc:title></dc:title>
      </cc:Work>
    </rdf:RDF>
  </metadata>
  <defs
     id="defs16" />
  <sodipodi:namedview
     pagecolor="#ffffff"
     bordercolor="#666666"
     borderopacity="1"
     objecttolerance="10"
     gridtolerance="10"
     guidetolerance="10"
     inkscape:pageopacity="0"
     inkscape:pageshadow="2"
     inkscape:window-width="1920"
     inkscape:window-height="1017"
     id="namedview14"
     showgrid="false"
     inkscape:zoom="3.2666667"
     inkscape:cx="112.5"
     inkscape:cy="51.275511"
     inkscape:window-x="-8"
     inkscape:window-y="-8"
     inkscape:window-maximized="1"
     inkscape:current-layer="g20"
     inkscape:document-rotation="0"
     units="mm"
     width="249mm" />
  <g
     inkscape:groupmode="layer"
     inkscape:label="Image"
     id="g20">
    <g
       id="g24"
       transform="matrix(0.44535324,0,0,0.43877594,12.69064,9.4257567)">
      <path
         style="fill:#d1d1d1"
         d="m 70.824887,211.25024 c 23.278688,-0.14964 61.078693,-0.14958 84.000003,1.2e-4 22.92131,0.1497 3.87511,0.27213 -42.32489,0.27206 -46.2,-7e-5 -64.953801,-0.12255 -41.675113,-0.27218 z M 70.75,195.25032 c 22.1375,-0.15015 58.3625,-0.15015 80.5,0 22.1375,0.15016 4.025,0.27301 -40.25,0.27301 -44.275,0 -62.3875,-0.12285 -40.25,-0.27301 z m 8.011659,-9.95758 c 1.243913,-0.23919 3.043913,-0.23011 4,0.0202 0.956088,0.25029 -0.06166,0.446 -2.261659,0.4349 -2.2,-0.0111 -2.982253,-0.21589 -1.738341,-0.45508 z m 62.000001,0 c 1.24391,-0.23919 3.04391,-0.23011 4,0.0202 0.95609,0.25029 -0.0617,0.446 -2.26166,0.4349 -2.2,-0.0111 -2.98225,-0.21589 -1.73834,-0.45508 z M 224.27236,180 c 0,-2.475 0.19502,-3.4875 0.43337,-2.25 0.23836,1.2375 0.23836,3.2625 0,4.5 -0.23835,1.2375 -0.43337,0.225 -0.43337,-2.25 z M 73.25,182.31067 c 0.9625,-0.25152 2.5375,-0.25152 3.5,0 0.9625,0.25153 0.175,0.45733 -1.75,0.45733 -1.925,0 -2.7125,-0.2058 -1.75,-0.45733 z m 72.5,-0.0164 c 1.2375,-0.23836 3.2625,-0.23836 4.5,0 1.2375,0.23835 0.225,0.43337 -2.25,0.43337 -2.475,0 -3.4875,-0.19502 -2.25,-0.43337 z M 16.157895,180 c 0,-1.375 0.226973,-1.9375 0.504386,-1.25 0.277412,0.6875 0.277412,1.8125 0,2.5 -0.277413,0.6875 -0.504386,0.125 -0.504386,-1.25 z m 191.999995,0 c 0,-1.375 0.22698,-1.9375 0.50439,-1.25 0.27741,0.6875 0.27741,1.8125 0,2.5 -0.27741,0.6875 -0.50439,0.125 -0.50439,-1.25 z M 60.507079,179.01145 c -0.350339,-0.56686 0.05106,-0.7345 0.940983,-0.39301 1.732417,0.66479 2.049387,1.38156 0.610955,1.38156 -0.517541,0 -1.215913,-0.44485 -1.551938,-0.98855 z M 160,179.60699 c 0,-0.21616 0.69837,-0.661 1.55194,-0.98855 0.88992,-0.34149 1.29132,-0.17385 0.94098,0.39301 C 161.90566,179.96166 160,180.4169 160,179.60699 Z M 116.40499,174.75 C 114.5,172.5 114.5,172.5 116.75,174.40499 c 2.11444,1.79022 2.70524,2.59501 1.90499,2.59501 -0.18976,0 -1.20226,-1.0125 -2.25,-2.25 z M 48.078947,157.41667 c 0.04798,-1.16495 0.284941,-1.4019 0.604167,-0.60417 0.288871,0.72187 0.253344,1.58437 -0.07895,1.91667 -0.332292,0.33229 -0.568641,-0.25834 -0.52522,-1.3125 z M 121.19495,155.5 c 0.0204,-1.65 0.2445,-2.20394 0.49804,-1.23097 0.25354,0.97297 0.23687,2.32297 -0.037,3 -0.27393,0.67703 -0.48137,-0.11903 -0.46099,-1.76903 z m 52.884,0.91667 c 0.048,-1.16495 0.28494,-1.4019 0.60416,-0.60417 0.28887,0.72187 0.25335,1.58437 -0.0789,1.91667 -0.3323,0.33229 -0.56864,-0.25834 -0.52522,-1.3125 z M 130,153.5 c 1.29175,-1.375 2.57363,-2.5 2.84863,-2.5 0.275,0 -0.55688,1.125 -1.84863,2.5 -1.29175,1.375 -2.57363,2.5 -2.84863,2.5 -0.275,0 0.55688,-1.125 1.84863,-2.5 z M 128.5,138 c 0.99549,-1.1 2.03498,-2 2.30998,-2 0.275,0 -0.31449,0.9 -1.30998,2 -0.99549,1.1 -2.03498,2 -2.30998,2 -0.275,0 0.31449,-0.9 1.30998,-2 z m 35.42431,-8.75 -2.42431,-2.75 2.75,2.42431 c 2.57029,2.26589 3.20859,3.07569 2.42431,3.07569 -0.17912,0 -1.41662,-1.2375 -2.75,-2.75 z M 57,130.62244 c 0,-0.20765 0.7875,-0.99515 1.75,-1.75 1.586056,-1.24387 1.621426,-1.2085 0.377555,0.37756 C 57.821186,130.91575 57,131.44548 57,130.62244 Z m 24,-11.01545 c 0,-0.21616 0.675,-0.65203 1.5,-0.96862 0.825,-0.31658 1.5,-0.13972 1.5,0.39301 C 84,119.56412 83.325,120 82.5,120 81.675,120 81,119.82314 81,119.60699 Z m 60.8125,-0.2901 c 0.72187,-0.28887 1.58437,-0.25335 1.91667,0.0789 0.33229,0.3323 -0.25834,0.56864 -1.3125,0.52522 -1.16495,-0.048 -1.4019,-0.28494 -0.60417,-0.60416 z M 86.078947,90.416667 c 0.04798,-1.164943 0.284941,-1.4019 0.604167,-0.604167 0.288871,0.721875 0.253344,1.584375 -0.07895,1.916667 -0.332292,0.332291 -0.568641,-0.258334 -0.52522,-1.3125 z M 130.40499,74.767233 c -1.16722,-1.368054 -1.28843,-1.758697 -0.31298,-1.008676 0.8756,0.67325 1.8131,1.002995 2.08333,0.732767 0.27023,-0.270228 0.49133,0.183676 0.49133,1.008676 0,1.916536 -0.002,1.915952 -2.26168,-0.732767 z M 95.564293,72.706872 c 0.375531,-0.986221 0.934692,-1.541221 1.242579,-1.233333 0.307887,0.307887 6.34e-4,1.114794 -0.682784,1.793128 -0.987616,0.980267 -1.10248,0.865403 -0.559795,-0.559795 z M 89.5,18 c 0.995486,-1.1 2.034975,-2 2.309975,-2 0.275,0 -0.314489,0.9 -1.309975,2 -0.995486,1.1 -2.034975,2 -2.309975,2 -0.275,0 0.314489,-0.9 1.309975,-2 z"
         id="path38" />
      <path
         style="fill:#9f9f9f"
         d="m 214.5,202 c 0.99549,-1.1 2.03498,-2 2.30998,-2 0.275,0 -0.31449,0.9 -1.30998,2 -0.99549,1.1 -2.03498,2 -2.30998,2 -0.275,0 0.31449,-0.9 1.30998,-2 z M 19.872445,190.25 c -1.243871,-1.58606 -1.208501,-1.62143 0.377555,-0.37756 0.9625,0.75485 1.75,1.54235 1.75,1.75 0,0.82304 -0.821186,0.29331 -2.127555,-1.37244 z M 0.2521834,179.5 c 0.0110994,-2.2 0.21588425,-2.98225 0.45507747,-1.73834 0.23919321,1.24391 0.2301119,3.04391 -0.0201807,4 C 0.43678756,182.71775 0.24108402,181.7 0.2521834,179.5 Z M 131.5,156 c 0.99549,-1.1 2.03498,-2 2.30998,-2 0.275,0 -0.31449,0.9 -1.30998,2 -0.99549,1.1 -2.03498,2 -2.30998,2 -0.275,0 0.31449,-0.9 1.30998,-2 z m -83.267997,-3 c 0,-1.925 0.205795,-2.7125 0.457323,-1.75 0.251527,0.9625 0.251527,2.5375 0,3.5 -0.251528,0.9625 -0.457323,0.175 -0.457323,-1.75 z m 91.962947,-17.5 c 0.0204,-1.65 0.2445,-2.20394 0.49804,-1.23097 0.25354,0.97297 0.23687,2.32297 -0.0371,3 -0.27393,0.67703 -0.48137,-0.11903 -0.46099,-1.76903 z m -2.116,-44.083333 c 0.048,-1.164943 0.28494,-1.4019 0.60416,-0.604167 0.28887,0.721875 0.25335,1.584375 -0.0789,1.916667 -0.3323,0.332291 -0.56864,-0.258334 -0.52522,-1.3125 z M 133.33333,76.34921 c 0,-0.984499 0.33697,-1.037796 1.33334,-0.210889 C 135.4,76.746934 136,77.339789 136,77.455778 c 0,0.115989 -0.6,0.210889 -1.33333,0.210889 -0.73334,0 -1.33334,-0.592856 -1.33334,-1.317457 z m -5.82625,-4.337756 c -0.35034,-0.56686 0.0511,-0.734507 0.94098,-0.393011 C 130.18048,72.283234 130.49745,73 129.05902,73 c -0.51754,0 -1.21592,-0.444846 -1.55194,-0.988546 z M 111.8125,24.316886 c 0.72187,-0.288871 1.58437,-0.253344 1.91667,0.07895 0.33229,0.332292 -0.25834,0.568641 -1.3125,0.52522 -1.16495,-0.04798 -1.4019,-0.284941 -0.60417,-0.604167 z"
         id="path36" />
      <path
         style="fill:#7f7f7f"
         d="M 8.8724447,201.25 C 7.6285741,199.66394 7.6639444,199.62857 9.25,200.87244 c 0.9625,0.75485 1.75,1.54235 1.75,1.75 0,0.82304 -0.821186,0.29331 -2.1275553,-1.37244 z M 192.8125,195.31689 c 0.72187,-0.28887 1.58437,-0.25335 1.91667,0.0789 0.33229,0.33229 -0.25834,0.56864 -1.3125,0.52522 -1.16495,-0.048 -1.4019,-0.28494 -0.60417,-0.60416 z M 66,182 c -0.901292,-0.58246 -1.024633,-0.97549 -0.309017,-0.98469 0.655041,-0.008 1.469098,0.43469 1.809017,0.98469 0.767305,1.24153 0.421123,1.24153 -1.5,0 z m 89.73333,-0.12409 c 0.67834,-0.68342 1.48524,-0.99067 1.79313,-0.68278 0.30789,0.30789 -0.24711,0.86705 -1.23333,1.24258 -1.4252,0.54268 -1.54006,0.42782 -0.5598,-0.5598 z M 93,175.62244 c 0,-0.20765 0.7875,-0.99515 1.75,-1.75 1.586056,-1.24387 1.621426,-1.2085 0.377555,0.37756 C 93.821186,175.91575 93,176.44548 93,175.62244 Z M 127.87244,174.25 c -1.24387,-1.58606 -1.2085,-1.62143 0.37756,-0.37756 0.9625,0.75485 1.75,1.54235 1.75,1.75 0,0.82304 -0.82119,0.29331 -2.12756,-1.37244 z M 102.15789,156 c 0,-1.375 0.22698,-1.9375 0.50439,-1.25 0.27741,0.6875 0.27741,1.8125 0,2.5 -0.27741,0.6875 -0.50439,0.125 -0.50439,-1.25 z M 83.078947,137.41667 c 0.04798,-1.16495 0.284941,-1.4019 0.604167,-0.60417 0.288871,0.72187 0.253344,1.58437 -0.07895,1.91667 -0.332292,0.33229 -0.568641,-0.25834 -0.52522,-1.3125 z M 111.25,120.31067 c 0.9625,-0.25152 2.5375,-0.25152 3.5,0 0.9625,0.25153 0.175,0.45733 -1.75,0.45733 -1.925,0 -2.7125,-0.2058 -1.75,-0.45733 z M 89.650831,76.833333 c 1.9005,-2.100028 3.163229,-2.519141 1.48029,-0.491324 -0.612573,0.738105 -0.892673,1.563105 -0.622445,1.833334 0.270228,0.270228 -0.185546,0.491324 -1.012832,0.491324 -1.282516,0 -1.259679,-0.270146 0.154987,-1.833334 z M 133.92431,18.25 131.5,15.5 l 2.75,2.424314 c 1.5125,1.333373 2.75,2.570873 2.75,2.75 0,0.784274 -0.8098,0.145975 -3.07569,-2.424314 z"
         id="path34" />
      <path
         style="fill:#4b4b4b"
         d="m 25.827217,209.85187 c -2.633823,-1.28621 -9.342553,-3.93057 -10.018608,-3.94901 -1.179013,-0.0322 -9.3785243,-8.3586 -9.0202904,-9.15992 0.1861451,-0.41639 -0.3624918,-1.02604 -1.219193,-1.35479 -0.8567011,-0.32874 -1.3086654,-1.00057 -1.004365,-1.49293 0.3043003,-0.49237 0.1892157,-0.89554 -0.2557436,-0.89593 -0.4449594,-3.8e-4 -0.8800566,-1.22406 -0.9668827,-2.71928 -0.086826,-1.49523 -0.6521299,-2.88334 -1.2562306,-3.08471 -0.6041007,-0.20137 -0.9045811,-0.67967 -0.6677342,-1.0629 0.2368469,-0.38322 0.5566934,-4.39479 0.71077,-8.91459 C 2.2830161,172.69802 2.657186,169 2.960428,169 3.6847457,169 6.5116207,162.71869 6.2232599,161.75 6.100467,161.3375 6.4765576,161 7.059017,161 7.6414763,161 7.8399187,160.55 7.5,160 c -0.3399187,-0.55 -0.2384997,-1 0.2253755,-1 0.4638752,0 1.6408741,-1.35 2.6155535,-3 0.974679,-1.65 1.504172,-3 1.176652,-3 -0.32752,0 0.322039,-0.98485 1.443464,-2.18856 1.121425,-1.20371 2.038955,-2.55371 2.038955,-3 0,-0.44629 0,-1.03644 0,-1.31144 0,-0.275 0.916414,-1.41641 2.036475,-2.53647 1.12006,-1.12007 1.768503,-2.47007 1.440983,-3 C 18.149937,140.43359 18.2615,140 18.725375,140 c 0.463876,0 1.640875,-1.35 2.615554,-3 0.974679,-1.65 1.504172,-3 1.176652,-3 -0.32752,0 0.322039,-0.98485 1.443464,-2.18856 1.121425,-1.20371 2.038955,-2.55371 2.038955,-3 0,-0.44629 0,-1.03644 0,-1.31144 0,-0.275 0.916414,-1.41641 2.036475,-2.53647 1.12006,-1.12007 1.768503,-2.47007 1.440983,-3 C 29.149937,121.43359 29.2615,121 29.725375,121 c 0.463876,0 1.640875,-1.35 2.615554,-3 0.974679,-1.65 1.504172,-3 1.176652,-3 -0.32752,0 0.322039,-0.98485 1.443464,-2.18856 1.121425,-1.20371 2.038955,-2.55371 2.038955,-3 0,-0.44629 0,-1.03644 0,-1.31144 0,-0.275 0.916414,-1.41641 2.036475,-2.53647 1.12006,-1.12007 1.768503,-2.47007 1.440983,-3 C 40.149937,102.43359 40.2615,102 40.725375,102 c 0.463876,0 1.640875,-1.35 2.615554,-3 0.974679,-1.65 1.504172,-3 1.176652,-3 -0.32752,0 0.322039,-0.984853 1.443464,-2.188561 C 47.08247,92.60773 48,91.25773 48,90.811439 48,90.365147 48,89.775 48,89.5 c 0,-0.275 0.916414,-1.416414 2.036475,-2.536475 1.12006,-1.12006 1.768503,-2.47006 1.440983,-3 C 51.149937,83.433586 51.433524,83 52.10765,83 c 0.674126,0 0.963183,-0.2625 0.64235,-0.583333 -0.320833,-0.320834 0.29558,-1.462247 1.369808,-2.536475 1.074227,-1.074227 1.68517,-2.386727 1.35765,-2.916667 C 55.149937,76.433586 55.2615,76 55.725375,76 c 0.463876,0 1.640875,-1.35 2.615554,-3 0.974679,-1.65 1.521702,-3 1.215607,-3 -0.306095,0 0.359878,-0.916414 1.479939,-2.036475 1.12006,-1.12006 1.768503,-2.47006 1.440983,-3 C 62.149937,64.433586 62.2615,64 62.725375,64 c 0.463876,0 1.640875,-1.35 2.615554,-3 0.974679,-1.65 1.504172,-3 1.176652,-3 -0.32752,0 0.306477,-0.96815 1.408883,-2.151444 1.102407,-1.183294 1.768379,-2.533294 1.479939,-3 C 69.117962,52.38185 69.433524,52 70.10765,52 c 0.674126,0 0.963183,-0.2625 0.64235,-0.583333 -0.320833,-0.320834 0.29558,-1.462247 1.369808,-2.536475 1.074227,-1.074227 1.68517,-2.386727 1.35765,-2.916667 C 73.149937,45.433586 73.2615,45 73.725375,45 c 0.463876,0 1.640875,-1.35 2.615554,-3 0.974679,-1.65 1.504172,-3 1.176652,-3 -0.32752,0 0.306477,-0.96815 1.408883,-2.151444 1.102407,-1.183294 1.768379,-2.533294 1.479939,-3 C 80.117962,33.38185 80.2615,33 80.725375,33 c 0.463876,0 1.640875,-1.35 2.615554,-3 0.974679,-1.65 1.543189,-3 1.263356,-3 -0.279833,0 0.599194,-1.195532 1.953394,-2.656737 1.354199,-1.461205 2.280439,-2.838478 2.058311,-3.060606 -0.495978,-0.495979 4.603431,-5.74643 5.60159,-5.767505 0.394669,-0.0083 1.519669,-0.701922 2.5,-1.541308 2.038883,-1.745747 1.559904,-1.568279 6.78242,-2.51297 2.2,-0.397953 4.42691,-0.971267 4.9487,-1.274031 1.3079,-0.758911 5.68599,-0.5945125 7.8013,0.292941 0.9625,0.403807 2.425,0.475172 3.25,0.15859 0.825,-0.316583 1.5,-0.09158 1.5,0.5 0,0.591582 0.675,0.816582 1.5,0.5 0.825,-0.316583 1.5,-0.170052 1.5,0.325623 0,0.794709 1.05006,1.332066 4.44377,2.274044 2.1065,0.584691 9.4852,9.679021 12.99133,16.011959 2.05537,3.7125 4.2233,6.75 4.81763,6.75 0.59433,0 0.79246,0.288142 0.44029,0.640316 C 145.92408,38.409248 149.07265,44 150.27462,44 c 0.46388,0 0.57544,0.433586 0.24792,0.963525 -0.32752,0.52994 0.32092,1.87994 1.44099,3 C 153.08359,49.083586 154,50.225 154,50.5 c 0,0.275 0,0.865147 0,1.311439 0,0.446291 0.91753,1.796291 2.03896,3 C 157.16038,56.015147 157.80994,57 157.48242,57 c -0.32752,0 0.20197,1.35 1.17665,3 0.97468,1.65 2.15168,3 2.61555,3 0.46388,0 0.57544,0.433586 0.24792,0.963525 -0.32752,0.52994 0.32092,1.87994 1.44099,3 C 164.08359,68.083586 165,69.225 165,69.5 c 0,0.275 0,0.865147 0,1.311439 0,0.446291 0.91753,1.796291 2.03896,3 C 168.16038,75.015147 168.80994,76 168.48242,76 c -0.32752,0 0.20197,1.35 1.17665,3 0.97468,1.65 2.15168,3 2.61555,3 0.46388,0 0.57544,0.433586 0.24792,0.963525 -0.32752,0.52994 0.28342,1.84244 1.35765,2.916667 1.07423,1.074228 1.69064,2.215641 1.36981,2.536475 C 174.92917,88.7375 175.21822,89 175.89235,89 c 0.67413,0 0.98969,0.38185 0.70125,0.848556 -0.28844,0.466706 0.2475,1.721777 1.19098,2.789047 0.94348,1.067269 1.85265,2.597919 2.02038,3.401443 0.16772,0.803525 0.94823,1.955449 1.73445,2.559831 0.78623,0.604382 1.1365,1.391882 0.77838,1.750003 -0.35812,0.35811 -0.0996,0.65112 0.57456,0.65112 0.67413,0 0.95771,0.43359 0.63019,0.96353 -0.32752,0.52993 0.32092,1.87993 1.44099,3 1.12006,1.12006 1.78603,2.03647 1.47993,2.03647 -0.30609,0 0.24093,1.35 1.21561,3 0.97468,1.65 2.15168,3 2.61555,3 0.46388,0 0.57544,0.43359 0.24792,0.96353 -0.32752,0.52993 0.28342,1.84243 1.35765,2.91666 1.07423,1.07423 1.69064,2.21564 1.36981,2.53648 -0.32083,0.32083 -0.0318,0.58333 0.64235,0.58333 0.67413,0 0.98969,0.38185 0.70125,0.84856 -0.28844,0.4667 0.37753,1.8167 1.47994,3 1.1024,1.18329 1.7364,2.15144 1.40888,2.15144 -0.32752,0 0.20197,1.35 1.17665,3 0.97468,1.65 2.15168,3 2.61555,3 0.46388,0 0.57544,0.43359 0.24792,0.96353 -0.32752,0.52993 0.28342,1.84243 1.35765,2.91666 1.07423,1.07423 1.69064,2.21564 1.36981,2.53648 -0.32083,0.32083 -0.0318,0.58333 0.64235,0.58333 0.67413,0 0.98969,0.38185 0.70125,0.84856 -0.28844,0.4667 0.37753,1.8167 1.47994,3 1.1024,1.18329 1.7364,2.15144 1.40888,2.15144 -0.32752,0 0.20197,1.35 1.17665,3 0.97468,1.65 2.15168,3 2.61555,3 0.46388,0 0.57544,0.43359 0.24792,0.96353 -0.32752,0.52993 0.28342,1.84243 1.35765,2.91666 1.07423,1.07423 1.69064,2.21564 1.36981,2.53648 -0.32083,0.32083 -0.0318,0.58333 0.64235,0.58333 0.67413,0 0.95771,0.43359 0.63019,0.96353 -0.32752,0.52993 0.20842,1.80493 1.19099,2.83333 0.98256,1.02839 1.93505,2.50305 2.11665,3.27701 0.1816,0.77396 0.6316,1.63646 1,1.91667 0.3684,0.2802 0.8037,1.40946 0.96733,2.50946 0.16363,1.1 0.54294,2.675 0.84292,3.5 0.78227,2.15142 0.72076,12.60656 -0.0818,13.90513 -0.37217,0.60218 -0.39855,1.54487 -0.0586,2.09487 0.33992,0.55 0.19607,1 -0.31966,1 -0.81007,0 -3.10305,4.35426 -3.532,6.70711 -0.0795,0.43609 -2.17506,2.59289 -4.65679,4.79289 -4.00762,3.55267 -8.57963,6.07763 -14.35264,7.92646 -2.55534,0.81837 -172.156991,1.23346 -173.811693,0.42541 z M 197.78674,195.5 c 0.39229,-0.55 1.29826,-1.12 2.01326,-1.26667 2.00808,-0.41191 8.12366,-6.90234 9.21949,-9.78458 1.29859,-3.41556 1.25182,-8.44875 -0.0785,-8.44875 -0.58246,0 -0.78147,-0.44908 -0.44225,-0.99795 C 209.19407,173.87697 206.02702,168 204.72538,168 c -0.46388,0 -0.60742,-0.38185 -0.31898,-0.84856 0.28844,-0.4667 -0.37753,-1.8167 -1.47994,-3 -1.1024,-1.18329 -1.7364,-2.15144 -1.40888,-2.15144 0.32752,0 -0.20197,-1.35 -1.17665,-3 -0.97468,-1.65 -2.15168,-3 -2.61555,-3 -0.46388,0 -0.57544,-0.43359 -0.24792,-0.96353 0.32752,-0.52993 -0.28342,-1.84243 -1.35765,-2.91666 -1.07423,-1.07423 -1.69064,-2.21564 -1.36981,-2.53648 C 195.07083,149.2625 194.7818,149 194.10765,149 c -0.67413,0 -0.98969,-0.38185 -0.70125,-0.84856 0.28844,-0.4667 -0.36938,-1.80796 -1.46183,-2.98057 -1.09246,-1.17261 -1.97689,-2.36576 -1.96542,-2.65144 0.0115,-0.28569 0.0208,-0.88458 0.0208,-1.33087 0,-0.44629 -0.91753,-1.79629 -2.03896,-3 C 186.83962,136.98485 186.19006,136 186.51758,136 c 0.32752,0 -0.20197,-1.35 -1.17665,-3 -0.97468,-1.65 -2.15168,-3 -2.61555,-3 -0.46388,0 -0.57544,-0.43359 -0.24792,-0.96353 0.32752,-0.52993 -0.32092,-1.87993 -1.44099,-3 C 179.91641,124.91641 179,123.775 179,123.5 c 0,-0.275 0,-0.86515 0,-1.31144 0,-0.44629 -0.91753,-1.79629 -2.03896,-3 C 175.83962,117.98485 175.19006,117 175.51758,117 c 0.32752,0 -0.20197,-1.35 -1.17665,-3 -0.97468,-1.65 -2.15168,-3 -2.61555,-3 -0.46388,0 -0.57544,-0.43359 -0.24792,-0.96353 0.32752,-0.52993 -0.28342,-1.84243 -1.35765,-2.91666 -1.07423,-1.07423 -1.69064,-2.21564 -1.36981,-2.53648 C 169.07083,104.2625 168.7818,104 168.10765,104 c -0.67413,0 -0.95771,-0.43359 -0.63019,-0.96353 0.32752,-0.52993 -0.32092,-1.87993 -1.44099,-3 C 164.91641,98.916414 164,97.775 164,97.5 c 0,-0.275 0,-0.865147 0,-1.311439 0,-0.446291 -0.91753,-1.796291 -2.03896,-3 C 160.83962,91.984853 160.19006,91 160.51758,91 c 0.32752,0 -0.20197,-1.35 -1.17665,-3 -0.97468,-1.65 -2.15168,-3 -2.61555,-3 -0.46388,0 -0.57544,-0.433586 -0.24792,-0.963525 0.32752,-0.52994 -0.28342,-1.84244 -1.35765,-2.916667 C 154.04558,80.04558 153.42917,78.904167 153.75,78.583333 154.07083,78.2625 153.78178,78 153.10765,78 c -0.67413,0 -0.98969,-0.38185 -0.70125,-0.848556 0.28844,-0.466706 -0.37753,-1.816706 -1.47994,-3 C 149.82406,72.96815 149.19006,72 149.51758,72 c 0.32752,0 -0.20197,-1.35 -1.17665,-3 -0.97468,-1.65 -2.15168,-3 -2.61555,-3 -0.46388,0 -0.57544,-0.433586 -0.24792,-0.963525 0.32752,-0.52994 -0.28342,-1.84244 -1.35765,-2.916667 C 143.04558,61.04558 142.42917,59.904167 142.75,59.583333 143.07083,59.2625 142.78178,59 142.10765,59 c -0.67413,0 -0.95771,-0.433586 -0.63019,-0.963525 0.32752,-0.52994 -0.32092,-1.87994 -1.44099,-3 C 138.91641,53.916414 138,52.775 138,52.5 c 0,-0.275 0,-0.865147 0,-1.311439 0,-0.446291 -0.90938,-1.787548 -2.02085,-2.980571 -1.11147,-1.193023 -2.01147,-2.402875 -2,-2.688561 0.0115,-0.285686 0.0208,-0.884576 0.0208,-1.330868 0,-0.446291 -0.90938,-1.787548 -2.02085,-2.980571 -1.11147,-1.193023 -2.01147,-2.402875 -2,-2.688561 0.0115,-0.285686 0.0208,-0.884576 0.0208,-1.330868 0,-0.446291 -0.91753,-1.796291 -2.03896,-3 C 126.83962,32.984853 126.18628,32 126.50918,32 c 2.05338,0 -6.75856,-7.001354 -10.04869,-7.983995 -4.6535,-1.389829 -12.16873,0.06011 -13.11677,2.530662 -0.30431,0.793015 -0.90515,1.224385 -1.3352,0.9586 -0.43005,-0.265785 -1.33799,0.186799 -2.017658,1.005743 -0.679663,0.818945 -0.843151,1.502674 -0.363307,1.519399 0.479845,0.01672 0.07548,0.494382 -0.898587,1.06146 C 97.7549,31.658948 97.218957,32.545264 97.537985,33.06146 97.857012,33.577657 97.7385,34 97.274625,34 c -0.463876,0 -1.640875,1.35 -2.615554,3 -0.974679,1.65 -1.504172,3 -1.176652,3 0.32752,0 -0.322039,0.984853 -1.443464,2.188561 -1.856358,1.992567 -2.454061,3.357363 -1.788955,4.084909 0.1375,0.150408 -0.7625,1.360261 -2,2.688561 -2.042629,2.192506 -2.680339,3.567229 -2,4.311439 0.1375,0.150408 -0.7625,1.360261 -2,2.688561 -2.042629,2.192506 -2.680339,3.567229 -2,4.311439 0.1375,0.150408 -0.7625,1.360261 -2,2.688561 C 79.0125,64.290332 78,65.74227 78,66.188561 78,66.634853 78,67.225 78,67.5 c 0,0.275 -0.916414,1.416414 -2.036475,2.536475 -1.12006,1.12006 -1.768503,2.47006 -1.440983,3 C 74.850063,73.566414 74.566476,74 73.89235,74 c -0.674126,0 -0.963183,0.2625 -0.64235,0.583333 0.320833,0.320834 -0.29558,1.462247 -1.369808,2.536475 -1.074227,1.074227 -1.68517,2.386727 -1.35765,2.916667 C 70.850063,80.566414 70.566476,81 69.89235,81 c -0.674126,0 -0.963183,0.2625 -0.64235,0.583333 0.320833,0.320834 -0.29558,1.462247 -1.369808,2.536475 -1.074227,1.074227 -1.68517,2.386727 -1.35765,2.916667 C 66.850063,87.566414 66.566476,88 65.89235,88 c -0.674126,0 -0.963183,0.2625 -0.64235,0.583333 0.320833,0.320834 -0.29558,1.462247 -1.369808,2.536475 -1.074227,1.074227 -1.68517,2.386727 -1.35765,2.916667 C 62.850063,94.566414 62.7385,95 62.274625,95 c -0.463876,0 -1.640875,1.35 -2.615554,3 -0.974679,1.65 -1.504172,3 -1.176652,3 0.32752,0 -0.322039,0.98485 -1.443464,2.18856 -1.121425,1.20371 -2.038955,2.55371 -2.038955,3 0,0.44629 0.0094,1.04518 0.02085,1.33087 0.01147,0.28568 -0.88853,1.49554 -2,2.68856 C 51.909384,111.40101 51,112.74227 51,113.18856 c 0,0.44629 0,1.03644 0,1.31144 0,0.275 -0.916414,1.41641 -2.036475,2.53647 -1.12006,1.12007 -1.768503,2.47007 -1.440983,3 0.327521,0.52994 0.04393,0.96353 -0.630192,0.96353 -0.674126,0 -0.963183,0.2625 -0.64235,0.58333 0.320833,0.32084 -0.29558,1.46225 -1.369808,2.53648 -1.074227,1.07423 -1.68517,2.38673 -1.35765,2.91666 0.327521,0.52994 0.04393,0.96353 -0.630192,0.96353 -0.674126,0 -0.963183,0.2625 -0.64235,0.58333 0.320833,0.32084 -0.29558,1.46225 -1.369808,2.53648 -1.074227,1.07423 -1.68517,2.38673 -1.35765,2.91666 C 39.850063,134.56641 39.7385,135 39.274625,135 c -0.463876,0 -1.640875,1.35 -2.615554,3 -0.974679,1.65 -1.504172,3 -1.176652,3 0.32752,0 -0.322039,0.98485 -1.443464,2.18856 -1.121425,1.20371 -2.038955,2.55371 -2.038955,3 0,1.5511 -0.398217,2.3225 -2.193955,4.25 C 28.81272,151.50477 28,152.74227 28,153.18856 c 0,1.5511 -0.398217,2.3225 -2.193955,4.25 C 24.81272,158.50477 24,159.74227 24,160.18856 c 0,1.54701 -0.396601,2.32077 -2.159375,4.21288 -0.974305,1.0458 -1.535468,2.2833 -1.247028,2.75 C 20.882038,167.61815 20.566476,168 19.89235,168 c -0.674126,0 -0.963183,0.2625 -0.64235,0.58333 0.320833,0.32084 -0.31396,1.48063 -1.410652,2.57732 -1.096692,1.09669 -1.748315,2.63419 -1.448052,3.41667 C 16.69156,175.35979 16.501354,176 15.968615,176 15.435877,176 15,177.28285 15,178.85078 15,182.48547 16.90273,188 18.156842,188 c 0.528656,0 0.723503,0.38459 0.432995,0.85464 -0.679946,1.10018 3.838672,5.38352 4.73435,4.48784 C 23.695884,192.97078 24,193.21822 24,193.89235 c 0,0.67413 0.45,0.94757 1,0.60765 0.55,-0.33992 1,-0.17447 1,0.36766 0,0.54213 0.7875,1.19771 1.75,1.45685 3.650694,0.9829 169.32058,0.17956 170.03674,-0.82451 z M 136,183.68257 c 0,-0.50371 -0.9,-0.68048 -2,-0.39282 -1.1,0.28766 -2,0.0776 -2,-0.4667 0,-0.54435 -0.55848,-0.80356 -1.24107,-0.57603 -0.68259,0.22753 -1.84387,-0.1891 -2.58062,-0.92585 -0.73675,-0.73676 -1.75327,-1.08386 -2.25893,-0.77134 -0.50566,0.31251 -0.91938,0.0167 -0.91938,-0.65748 0,-0.67413 -0.28086,-0.94482 -0.62414,-0.60154 -0.34328,0.34328 -1.45331,-0.36922 -2.46673,-1.58333 -1.01343,-1.21412 -1.85756,-1.86998 -1.87586,-1.45748 -0.0461,1.03934 -4.53327,-3.54162 -4.53327,-4.62803 0,-0.48291 -0.96233,-1.51699 -2.1385,-2.29794 -1.93734,-1.28634 -2.40769,-1.17264 -5,1.2087 -1.57383,1.44574 -2.1865,2.29475 -1.3615,1.88669 0.825,-0.40805 0.42209,0.44177 -0.89536,1.88851 -1.31745,1.44674 -2.72333,2.42773 -3.12419,2.17999 -0.40086,-0.24775 -1.88268,0.61889 -3.292925,1.92587 -1.410248,1.30697 -2.816861,2.12354 -3.125806,1.8146 C 96.252773,179.91944 96,180.21822 96,180.89235 c 0,0.67413 -0.45,0.94757 -1,0.60765 -0.55,-0.33992 -1,-0.1556 -1,0.4096 0,0.5652 -0.675,0.76861 -1.5,0.45203 -0.825,-0.31659 -1.501575,-0.18996 -1.503499,0.28138 -0.0019,0.47135 -2.589425,0.94339 -5.75,1.04899 -5.129068,0.17136 -5.397305,0.0877 -2.496501,-0.7786 1.7875,-0.53382 3.25,-1.43428 3.25,-2.00101 0,-0.56673 0.446228,-0.75464 0.991618,-0.41757 0.54539,0.33707 2.093117,-0.48865 3.439394,-1.83492 1.346277,-1.34628 2.627807,-2.26775 2.847846,-2.04771 0.220039,0.22004 1.217056,-0.50269 2.215594,-1.60606 C 96.49299,173.90276 96.915103,173 96.432481,173 c -0.482621,0 0.0882,-0.6764 1.268484,-1.5031 3.035725,-2.12631 4.969455,-8.26512 3.160515,-10.03338 -0.74881,-0.73198 -2.034852,-1.47321 -2.857863,-1.64719 C 97.180606,159.64235 95.979381,158.825 95.334228,158 c -0.645153,-0.825 -1.77178,-1.52045 -2.503617,-1.54545 -0.731836,-0.025 -1.242602,-0.51403 -1.135036,-1.08673 0.107567,-0.5727 -1.017433,-2.38865 -2.5,-4.03545 -1.482566,-1.6468 -2.814489,-3.85778 -2.959829,-4.91328 -0.186213,-1.35233 0.192375,-1.10695 1.281937,0.83091 0.850405,1.5125 2.008377,2.75 2.573271,2.75 0.564894,0 0.793033,0.3787 0.506975,0.84155 -0.613871,0.99326 4.872881,6.38886 8.279245,8.1417 1.888726,0.97189 2.537456,0.96389 3.157246,-0.0389 0.9189,-1.48682 0.93592,-9.94431 0.02,-9.94431 -0.34585,0 -0.70443,-1.0038 -0.79684,-2.23068 -0.0924,-1.22687 -0.94919,-2.80187 -1.903937,-3.5 -0.954746,-0.69812 -1.312394,-1.28363 -0.794773,-1.30112 0.517622,-0.0175 0.06762,-0.6925 -1,-1.5 C 96.491249,139.66069 95.983849,139 96.431315,139 c 0.447466,0 0.257486,-0.67005 -0.422177,-1.48899 -0.679663,-0.81894 -1.612186,-1.25634 -2.072272,-0.97199 C 93.476781,136.82337 92.605191,136.13081 92,135 91.394809,133.86919 90.472231,133.20814 89.949827,133.53101 89.427422,133.85387 89,133.68129 89,133.1475 c 0,-2.38105 -3.541681,-0.22945 -4.027446,2.44671 -0.434702,2.39485 -0.653866,2.58534 -1.246414,1.08335 -0.395432,-1.00235 -0.302134,-2.6013 0.207328,-3.55324 2.085422,-3.89665 -8.17147,-5.41098 -17.103989,-2.52524 -4.930804,1.59294 -14.231122,8.94203 -13.274667,10.48961 C 53.864584,141.58991 53.62175,142 53.01518,142 c -1.611771,0 -0.820002,-3.09701 1.48482,-5.80789 1.1,-1.29379 2,-2.6538 2,-3.02223 0,-0.94939 4.492901,-5.32991 4.533269,-4.41988 0.0183,0.4125 0.893917,-0.28224 1.945819,-1.54387 1.051903,-1.26163 2.049431,-2.2081 2.216731,-2.10327 C 65.948732,125.57466 70,123.771 70,122.964 c 0,-0.49568 0.675,-0.64221 1.5,-0.32563 0.825,0.31659 1.5,0.11959 1.5,-0.43776 0,-0.55735 0.849213,-0.7913 1.887141,-0.51987 1.037928,0.27142 2.180376,0.019 2.538774,-0.56087 0.358397,-0.5799 1.929608,-0.79877 3.491578,-0.48637 1.561971,0.31239 3.116009,0.12131 3.453419,-0.42463 0.548425,-0.88737 -1.480804,-8.28655 -3.348289,-12.20887 -0.392797,-0.825 -0.515442,-3.75 -0.272543,-6.5 0.242898,-2.75 0.510997,-6.0125 0.595776,-7.25 0.08478,-1.2375 0.539789,-2.25 1.011133,-2.25 0.471344,0 0.597967,-0.675 0.281385,-1.5 C 82.321791,89.675 82.498646,89 83.031385,89 83.564123,89 84,88.411008 84,87.69113 c 0,-0.719879 0.660498,-2.182379 1.467773,-3.25 1.338929,-1.770734 1.38282,-1.634473 0.5,1.552268 -1.243364,4.488205 -1.250349,12.713927 -0.01145,13.47961 0.525979,0.325073 0.7251,1.193612 0.44249,1.930082 -0.28261,0.73647 0.165614,2.01848 0.996055,2.84892 0.83044,0.83044 1.231319,1.78847 0.890843,2.12894 C 87.945238,106.72143 88.218224,107 88.89235,107 c 0.674126,0 0.945604,0.45318 0.603285,1.00706 -0.34232,0.55389 0.07854,1.27604 0.935239,1.60479 0.856702,0.32874 1.340178,0.94958 1.074393,1.37963 -0.265785,0.43005 0.158034,1.31412 0.941821,1.96461 1.09899,0.91208 1.954529,0.90054 3.73899,-0.0504 2.083184,-1.11015 2.180691,-1.07158 0.977832,0.38681 -1.401545,1.69927 -0.698837,4.15616 0.905188,3.16481 C 98.581094,116.14086 99,116.29018 99,116.78911 c 0,1.27659 7.5445,4.53601 9.16261,3.95848 0.73556,-0.26253 2.16005,-0.0535 3.16553,0.46454 1.00548,0.51803 2.58048,0.60992 3.5,0.2042 0.91952,-0.40573 2.96447,-0.84049 4.54433,-0.96615 1.57986,-0.12565 3.15486,-0.61585 3.5,-1.08932 0.34514,-0.47347 1.30099,-1.01035 2.1241,-1.19305 2.2713,-0.50415 4.05448,-2.27619 3.38331,-3.36217 -0.32896,-0.53226 -2.0115,-1.82959 -3.73899,-2.88295 -1.72749,-1.05337 -2.67852,-1.9169 -2.1134,-1.91895 0.56513,-0.002 2.02763,0.69678 3.25,1.55296 1.22238,0.85619 2.2294,1.19369 2.23782,0.75 0.008,-0.44368 0.44561,-0.1317 0.97154,0.6933 0.75508,1.18449 1.3303,1.25665 2.73468,0.34306 0.97816,-0.63632 1.66597,-1.64882 1.52847,-2.25 -0.1375,-0.60118 0.18844,-1.09306 0.72432,-1.09306 1.33927,0 4.24853,-5.8304 3.50753,-7.02937 -0.32994,-0.53385 -0.0708,-0.97063 0.57576,-0.97063 0.68332,0 0.95663,-0.83755 0.65264,-2 -0.28766,-1.1 -0.11514,-2 0.38337,-2 1.18218,0 1.18242,-7.711367 2.6e-4,-8.441979 -0.49837,-0.308007 -0.67088,-1.459565 -0.38337,-2.559017 C 138.99802,85.899552 138.80578,85 138.2833,85 c -0.52248,0 -0.94997,-0.655205 -0.94997,-1.456011 0,-2.14042 1.22912,-1.014531 2.65778,2.434555 C 140.67945,87.640345 141.62392,89 142.08994,89 c 0.46601,0 0.58827,0.675 0.27169,1.5 -0.31659,0.825 -0.18996,1.5 0.28138,1.5 0.47135,0 0.95084,1.0125 1.06555,2.25 0.7492,8.08283 0.79047,11.43268 0.15704,12.75 -1.70835,3.55283 -3.88071,12.16653 -3.3038,13.1 0.34607,0.55995 1.59874,0.92462 2.78371,0.81036 1.18497,-0.11425 3.05449,0.12636 4.15449,0.53469 1.1,0.40833 3.35,1.22881 5,1.82328 1.65,0.59447 4.2375,1.93294 5.75,2.97436 1.5125,1.04142 2.75,1.67641 2.75,1.41108 0,-0.26532 1.47961,0.94153 3.28802,2.68191 1.80841,1.74038 3.14894,3.47416 2.97896,3.85286 -0.16997,0.3787 0.48792,1.15251 1.46199,1.71959 0.97407,0.56708 1.4177,1.04474 0.98585,1.06146 -0.43185,0.0167 -0.28529,0.96447 0.32569,2.1061 1.01945,1.90486 0.93774,1.98303 -0.99282,0.94983 -1.15704,-0.61923 -1.83265,-1.56444 -1.50137,-2.10047 0.33129,-0.53603 0.23139,-0.86207 -0.22199,-0.72454 -0.45338,0.13754 -2.13236,-0.98078 -3.73107,-2.48515 -1.5987,-1.50437 -3.11477,-2.52718 -3.36904,-2.27291 -0.25428,0.25427 -1.14177,-0.21714 -1.97221,-1.04758 -0.83044,-0.83044 -2.12687,-1.27313 -2.88095,-0.98377 -0.75408,0.28937 -1.37106,0.13525 -1.37106,-0.34248 0,-1.49499 -12.19589,-1.01559 -13.75205,0.54057 -0.77505,0.77506 -1.83112,1.14843 -2.34681,0.82971 -2.22802,-1.37699 -15.7605,10.36161 -14.4289,12.51619 0.29712,0.48075 0.068,1.03149 -0.50911,1.22387 -0.57713,0.19237 -1.19543,1.46831 -1.374,2.83541 -0.17857,1.36709 -0.64273,3.23512 -1.03148,4.15116 -1.15217,2.71501 -0.21001,7.28851 1.57097,7.62587 0.89574,0.16967 2.44557,-0.50148 3.44405,-1.49145 1.74832,-1.73342 1.78977,-1.73225 1.12138,0.0318 -0.38173,1.00748 -0.69405,2.04654 -0.69405,2.30901 0,0.26248 -0.38371,0.24009 -0.85268,-0.0498 -0.46897,-0.28984 -1.70263,0.0945 -2.74146,0.85413 -1.84192,1.34684 -1.83349,1.49492 0.33968,5.96797 1.22566,2.52277 2.71087,4.58685 3.30048,4.58685 0.58961,0 0.83107,0.38986 0.53658,0.86635 -0.66894,1.08237 2.84271,4.37501 3.72501,3.4927 0.35492,-0.35492 0.93544,0.11074 1.29003,1.03481 0.73493,1.91519 5.82846,4.84671 6.77558,3.89959 0.34473,-0.34473 0.62678,-0.13308 0.62678,0.47033 0,0.60342 1.0125,1.26048 2.25,1.46014 1.57831,0.25465 1.13051,0.514 -1.5,0.86875 -2.0625,0.27815 -3.75,0.0936 -3.75,-0.4101 z m -22,-37.74159 c 0,-0.58246 0.43729,-0.78875 0.97175,-0.45844 1.05187,0.65009 6.40422,-2.4399 5.60708,-3.23705 -0.26598,-0.26597 0.16998,-1.13716 0.96879,-1.93597 C 123.18138,138.67576 123.54482,132 122,132 c -0.55,0 -0.8875,-0.34619 -0.75,-0.76931 0.1375,-0.42313 -0.75906,-1.85429 -1.99236,-3.18037 -1.61804,-1.73976 -3.49739,-2.48498 -6.75,-2.67658 -2.52929,-0.149 -4.50764,0.17551 -4.50764,0.73938 0,0.5527 -0.40898,0.75215 -0.90885,0.44321 -1.71435,-1.05952 -6.09115,5.42209 -6.09115,9.0204 0,1.94154 0.50498,3.42327 1.16667,3.42327 0.64166,0 0.92587,0.24079 0.63157,0.53509 -0.85562,0.85563 5.04572,6.67938 6.10498,6.02472 0.52722,-0.32584 1.24124,-0.13509 1.5867,0.42388 0.82929,1.34182 3.51008,1.30921 3.51008,-0.0427 z m 15.1396,10.20709 c 0.6361,-1.01856 2.10241,-2.42484 3.25847,-3.12507 1.47173,-0.89144 1.22133,-0.33619 -0.83516,1.85192 -3.3436,3.55761 -4.09725,3.95356 -2.42331,1.27315 z m 5.6729,-6.83118 c 0.72187,-0.28887 1.58437,-0.25335 1.91667,0.0789 0.33229,0.33229 -0.25834,0.56864 -1.3125,0.52522 -1.16495,-0.048 -1.4019,-0.28494 -0.60417,-0.60416 z m 1,-2 c 0.72187,-0.28887 1.58437,-0.25335 1.91667,0.0789 0.33229,0.33229 -0.25834,0.56864 -1.3125,0.52522 -1.16495,-0.048 -1.4019,-0.28494 -0.60417,-0.60416 z M 84.542705,143.0691 c -0.316431,-0.512 -0.117988,-1.21356 0.440983,-1.55902 C 85.54266,141.16462 86,141.58352 86,142.44098 c 0,1.75653 -0.600055,2.01516 -1.457295,0.62812 z M 103.5,110 c -0.33992,-0.55 -0.14148,-1 0.44098,-1 0.58246,0 1.05902,0.45 1.05902,1 0,0.55 -0.19844,1 -0.44098,1 -0.24254,0 -0.7191,-0.45 -1.05902,-1 z m 15.07484,0.1211 c -0.30984,-0.50134 0.10906,-1.16956 0.9309,-1.48493 0.82184,-0.31537 1.49426,-0.16408 1.49426,0.3362 0,1.35555 -1.7771,2.19731 -2.42516,1.14873 z m -9.00846,-1.01888 c -2.50865,-0.9824 -0.89408,-1.84924 2.93362,-1.57503 4.70161,0.33681 5.14129,0.55267 3,1.47281 -2.45558,1.0552 -3.45607,1.07243 -5.93362,0.10222 z M 86.8125,81.316886 c 0.721875,-0.288871 1.584375,-0.253344 1.916667,0.07895 0.332291,0.332292 -0.258334,0.568641 -1.3125,0.52522 -1.164943,-0.04798 -1.4019,-0.284941 -0.604167,-0.604167 z"
         id="path32" />
      <path
         style="fill:#404040"
         d="m 203,208.60699 c 0,-0.21616 0.69837,-0.661 1.55194,-0.98855 0.88992,-0.34149 1.29132,-0.17385 0.94098,0.39301 C 204.90566,208.96166 203,209.4169 203,208.60699 Z M 29.8125,196.31689 c 0.721875,-0.28887 1.584375,-0.25335 1.916667,0.0789 0.332291,0.33229 -0.258334,0.56864 -1.3125,0.52522 -1.164943,-0.048 -1.4019,-0.28494 -0.604167,-0.60416 z M 207.03063,187.5 c 0,-0.55 0.43621,-1.675 0.96937,-2.5 0.53316,-0.825 0.96937,-1.05 0.96937,-0.5 0,0.55 -0.43621,1.675 -0.96937,2.5 -0.53316,0.825 -0.96937,1.05 -0.96937,0.5 z M 75.66006,183.75 c 0.628941,-1.02998 3.529791,-0.91553 5.308585,0.20946 1.040031,0.65776 0.412874,0.87217 -2.148956,0.73469 C 76.830008,184.58737 75.408175,184.1625 75.66006,183.75 Z M 142,184 c 0.825,-0.53316 1.95,-0.96937 2.5,-0.96937 0.55,0 0.325,0.43621 -0.5,0.96937 -0.825,0.53316 -1.95,0.96937 -2.5,0.96937 -0.55,0 -0.325,-0.43621 0.5,-0.96937 z M 1.2860141,179.5 c 0.00751,-2.75 0.2017128,-3.75631 0.4315671,-2.23625 0.2298544,1.52006 0.2237119,3.77006 -0.01365,5 C 1.4665693,183.49369 1.2785066,182.25 1.2860141,179.5 Z M 83,182 c 0.825,-0.53316 1.95,-0.96937 2.5,-0.96937 0.55,0 0.325,0.43621 -0.5,0.96937 -0.825,0.53316 -1.95,0.96937 -2.5,0.96937 -0.55,0 -0.325,-0.43621 0.5,-0.96937 z m 140.232,-2 c 0,-1.925 0.2058,-2.7125 0.45733,-1.75 0.25152,0.9625 0.25152,2.5375 0,3.5 -0.25153,0.9625 -0.45733,0.175 -0.45733,-1.75 z m -96.72492,1.01145 c -0.35034,-0.56686 0.0511,-0.7345 0.94098,-0.39301 1.73242,0.66479 2.04939,1.38156 0.61096,1.38156 -0.51754,0 -1.21592,-0.44485 -1.55194,-0.98855 z M 135,180.5 c -1.375,-0.78602 -2.02351,-1.44508 -1.44113,-1.46456 0.58238,-0.0195 1.93238,0.62525 3,1.43276 2.46898,1.86744 1.68038,1.88353 -1.55887,0.0318 z m -47.266667,-0.62409 c 0.678334,-0.68342 1.485241,-0.99067 1.793128,-0.68278 0.307888,0.30789 -0.247112,0.86705 -1.233333,1.24258 -1.425198,0.54268 -1.540062,0.42782 -0.559795,-0.5598 z m -72.654386,-2.45924 c 0.04798,-1.16495 0.284941,-1.4019 0.604167,-0.60417 0.288871,0.72187 0.253344,1.58437 -0.07895,1.91667 -0.332292,0.33229 -0.568641,-0.25834 -0.52522,-1.3125 z m 194.000003,0 c 0.048,-1.16495 0.28494,-1.4019 0.60416,-0.60417 0.28887,0.72187 0.25335,1.58437 -0.0789,1.91667 -0.3323,0.33229 -0.56864,-0.25834 -0.52522,-1.3125 z M 94.5,175 c 0.995486,-1.1 2.034975,-2 2.309975,-2 0.275,0 -0.314489,0.9 -1.309975,2 -0.995486,1.1 -2.034975,2 -2.309975,2 -0.275,0 0.314489,-0.9 1.309975,-2 z m 32.90499,-0.25 C 125.5,172.5 125.5,172.5 127.75,174.40499 c 2.11444,1.79022 2.70524,2.59501 1.90499,2.59501 -0.18976,0 -1.20226,-1.0125 -2.25,-2.25 z m 92.1593,-9.45687 c -0.54268,-1.4252 -0.42782,-1.54006 0.5598,-0.5598 0.68342,0.67834 0.99067,1.48524 0.68278,1.79313 -0.30789,0.30789 -0.86705,-0.24711 -1.24258,-1.23333 z m -19.10541,-4.35966 c -0.36253,-0.58659 -0.44468,-1.281 -0.18255,-1.54313 0.26212,-0.26213 0.74306,0.21781 1.06875,1.06653 0.67618,1.76211 0.0999,2.07206 -0.8862,0.4766 z m -80.37993,-3.5168 c 0.048,-1.16495 0.28494,-1.4019 0.60416,-0.60417 0.28887,0.72187 0.25335,1.58437 -0.0789,1.91667 -0.3323,0.33229 -0.56864,-0.25834 -0.52522,-1.3125 z M 127,157.94098 c 0,-0.58246 0.45,-0.7809 1,-0.44098 0.55,0.33992 1,0.81648 1,1.05902 0,0.24254 -0.45,0.44098 -1,0.44098 -0.55,0 -1,-0.47656 -1,-1.05902 z M 91.924314,155.25 89.5,152.5 l 2.75,2.42431 C 94.820289,157.1902 95.458588,158 94.674314,158 c -0.179127,0 -1.416627,-1.2375 -2.75,-2.75 z M 10,155.05902 c 0,-0.51754 0.444846,-1.21592 0.988546,-1.55194 0.56686,-0.35034 0.734507,0.0511 0.393011,0.94098 C 10.716766,156.18048 10,156.49745 10,155.05902 Z m 17.564293,-1.35215 c 0.375531,-0.98622 0.934692,-1.54122 1.242579,-1.23333 0.307887,0.30789 6.34e-4,1.11479 -0.682784,1.79313 -0.987616,0.98026 -1.10248,0.8654 -0.559795,-0.5598 z m 92.514657,-0.2902 c 0.048,-1.16495 0.28494,-1.4019 0.60416,-0.60417 0.28887,0.72187 0.25335,1.58437 -0.0789,1.91667 -0.3323,0.33229 -0.56864,-0.25834 -0.52522,-1.3125 z m 14,-2 c 0.048,-1.16495 0.28494,-1.4019 0.60416,-0.60417 0.28887,0.72187 0.25335,1.58437 -0.0789,1.91667 -0.3323,0.33229 -0.56864,-0.25834 -0.52522,-1.3125 z m -46.514657,-4.12354 c -0.542685,-1.4252 -0.427821,-1.54006 0.559795,-0.5598 0.683418,0.67834 0.990671,1.48524 0.682784,1.79313 -0.307887,0.30789 -0.867048,-0.24711 -1.242579,-1.23333 z m -56,-0.58626 c 0.375531,-0.98622 0.934692,-1.54122 1.242579,-1.23333 0.307887,0.30789 6.34e-4,1.11479 -0.682784,1.79313 -0.987616,0.98026 -1.10248,0.8654 -0.559795,-0.5598 z m 176.999997,-0.41374 c -0.54268,-1.4252 -0.42782,-1.54006 0.5598,-0.5598 0.68342,0.67834 0.99067,1.48524 0.68278,1.79313 -0.30789,0.30789 -0.86705,-0.24711 -1.24258,-1.23333 z m -96.75179,0.0238 c 0.72187,-0.28887 1.58437,-0.25335 1.91667,0.0789 0.33229,0.33229 -0.25834,0.56864 -1.3125,0.52522 -1.16495,-0.048 -1.4019,-0.28494 -0.60417,-0.60416 z m 25.69082,-2.01548 c 0.98078,-3.60097 1.20234,-11.36529 0.33953,-11.89853 -0.44083,-0.27245 -1.71082,-0.009 -2.82218,0.58606 -1.11137,0.59478 -2.02067,0.85643 -2.02067,0.58143 0,-1.14145 3.98095,-2.51491 5.54727,-1.91386 1.42067,0.54517 1.58883,1.52838 1.04817,6.12857 -0.35419,3.01358 -1.10454,6.20726 -1.66746,7.09708 -0.82929,1.31088 -0.90986,1.20069 -0.42466,-0.58075 z m -13.93903,-1.59454 c 0.37553,-0.98622 0.93469,-1.54122 1.24258,-1.23333 0.30789,0.30789 6.4e-4,1.11479 -0.68278,1.79313 -0.98762,0.98026 -1.10248,0.8654 -0.5598,-0.5598 z m 47.16692,-1.62671 c -0.43497,-1.66335 -0.30483,-2.05378 0.43724,-1.31171 0.5811,0.5811 0.85979,1.64682 0.61931,2.36826 -0.24965,0.74895 -0.70294,0.29565 -1.05655,-1.05655 z M 35.564293,139.70687 c 0.375531,-0.98622 0.934692,-1.54122 1.242579,-1.23333 0.307887,0.30789 6.34e-4,1.11479 -0.682784,1.79313 -0.987616,0.98026 -1.10248,0.8654 -0.559795,-0.5598 z M 84,139.44098 c 0,-0.85746 0.45,-1.2809 1,-0.94098 0.55,0.33992 1,1.04148 1,1.55902 C 86,140.57656 85.55,141 85,141 c -0.55,0 -1,-0.70156 -1,-1.55902 z M 94.872445,137.25 c -1.243871,-1.58606 -1.208501,-1.62143 0.377555,-0.37756 0.9625,0.75485 1.75,1.54235 1.75,1.75 0,0.82304 -0.821186,0.29331 -2.127555,-1.37244 z M 21,136.05902 c 0,-0.51754 0.444846,-1.21592 0.988546,-1.55194 0.56686,-0.35034 0.734507,0.0511 0.393011,0.94098 C 21.716766,137.18048 21,137.49745 21,136.05902 Z m 101.07895,-0.64235 c 0.048,-1.16495 0.28494,-1.4019 0.60416,-0.60417 0.28887,0.72187 0.25335,1.58437 -0.0789,1.91667 -0.3323,0.33229 -0.56864,-0.25834 -0.52522,-1.3125 z m -20.51466,-3.7098 c 0.37553,-0.98622 0.93469,-1.54122 1.24258,-1.23333 0.30789,0.30789 6.4e-4,1.11479 -0.68278,1.79313 -0.98762,0.98026 -1.10248,0.8654 -0.5598,-0.5598 z m 54.94279,-0.69542 c -0.35034,-0.56686 0.0511,-0.7345 0.94098,-0.39301 1.73242,0.66479 2.04939,1.38156 0.61096,1.38156 -0.51754,0 -1.21592,-0.44485 -1.55194,-0.98855 z M 73.8125,129.31689 c 0.721875,-0.28887 1.584375,-0.25335 1.916667,0.0789 0.332291,0.33229 -0.258334,0.56864 -1.3125,0.52522 -1.164943,-0.048 -1.4019,-0.28494 -0.604167,-0.60416 z m 123.75179,-2.02376 c -0.54268,-1.4252 -0.42782,-1.54006 0.5598,-0.5598 0.68342,0.67834 0.99067,1.48524 0.68278,1.79313 -0.30789,0.30789 -0.86705,-0.24711 -1.24258,-1.23333 z M 67.733333,123.87591 c 0.678334,-0.68342 1.485241,-0.99067 1.793128,-0.68278 0.307888,0.30789 -0.247112,0.86705 -1.233333,1.24258 -1.425198,0.54268 -1.540062,0.42782 -0.559795,-0.5598 z m 45.079167,-2.55902 c 0.72187,-0.28887 1.58437,-0.25335 1.91667,0.0789 0.33229,0.3323 -0.25834,0.56864 -1.3125,0.52522 -1.16495,-0.048 -1.4019,-0.28494 -0.60417,-0.60416 z M 140,118.05902 c 0,-0.51754 0.44485,-1.21592 0.98855,-1.55194 0.56686,-0.35034 0.7345,0.0511 0.39301,0.94098 C 140.71677,119.18048 140,119.49745 140,118.05902 Z m -108,-1 c 0,-0.51754 0.444846,-1.21592 0.988546,-1.55194 0.56686,-0.35034 0.734507,0.0511 0.393011,0.94098 C 32.716766,118.18048 32,118.49745 32,117.05902 Z m 94.27103,-0.15089 c 0.97407,-0.56708 1.46704,-1.52292 1.09549,-2.1241 -0.41472,-0.67103 -0.21104,-0.80597 0.52753,-0.34951 1.40292,0.86705 -0.34096,3.587 -2.26649,3.53507 -0.62016,-0.0167 -0.3306,-0.49438 0.64347,-1.06146 z m 48.18785,-0.97466 c -0.36253,-0.58659 -0.44468,-1.281 -0.18255,-1.54313 0.26212,-0.26213 0.74306,0.21781 1.06875,1.06653 0.67618,1.76211 0.0999,2.07206 -0.8862,0.4766 z m -91.999999,-1 c -0.362533,-0.58659 -0.444683,-1.281 -0.182555,-1.54313 0.262128,-0.26213 0.743066,0.21781 1.068751,1.06653 0.676184,1.76211 0.09985,2.07206 -0.886196,0.4766 z M 91.872445,112.25 c -1.269516,-1.61876 -1.222451,-1.63998 0.627555,-0.28297 1.1,0.80687 2.1875,1.59437 2.416667,1.75 0.229166,0.15563 -0.05323,0.28297 -0.627556,0.28297 -0.574322,0 -1.661822,-0.7875 -2.416666,-1.75 z M 131,113.62244 c 0,-0.20765 0.7875,-0.99515 1.75,-1.75 1.58606,-1.24387 1.62143,-1.2085 0.37756,0.37756 C 131.82119,113.91575 131,114.44548 131,113.62244 Z m 11,-1.06342 c 0,-0.79254 0.40803,-1.69316 0.90674,-2.00138 0.49871,-0.30822 0.67122,0.34022 0.38337,1.44098 C 142.6795,114.33361 142,114.62877 142,112.55902 Z M 105.5,109 c 0.33992,-0.55 1.06803,-1 1.61803,-1 0.55,0 0.72189,0.45 0.38197,1 -0.33992,0.55 -1.06803,1 -1.61803,1 -0.55,0 -0.72189,-0.45 -0.38197,-1 z m 11.5,0 c 0,-0.55 0.47656,-1 1.05902,-1 0.58246,0 0.7809,0.45 0.44098,1 -0.33992,0.55 -0.81648,1 -1.05902,1 C 117.19844,110 117,109.55 117,109 Z m 53.45888,-0.0665 c -0.36253,-0.58659 -0.44468,-1.281 -0.18255,-1.54313 0.26212,-0.26213 0.74306,0.21781 1.06875,1.06653 0.67618,1.76211 0.0999,2.07206 -0.8862,0.4766 z m 16.10541,-0.64034 c -0.54268,-1.4252 -0.42782,-1.54006 0.5598,-0.5598 0.68342,0.67834 0.99067,1.48524 0.68278,1.79313 -0.30789,0.30789 -0.86705,-0.24711 -1.24258,-1.23333 z M 54.564293,106.70687 c 0.375531,-0.98622 0.934692,-1.54122 1.242579,-1.23333 0.307887,0.30789 6.34e-4,1.11479 -0.682784,1.79313 -0.987616,0.98026 -1.10248,0.8654 -0.559795,-0.5598 z M 136,106.05902 c 0,-0.51754 0.44485,-1.21592 0.98855,-1.55194 0.56686,-0.35034 0.7345,0.0511 0.39301,0.94098 C 136.71677,107.18048 136,107.49745 136,106.05902 Z m -49.435707,-2.76589 c -0.542685,-1.4252 -0.427821,-1.54006 0.559795,-0.5598 0.683418,0.67834 0.990671,1.48524 0.682784,1.79313 -0.307887,0.30789 -0.867048,-0.24711 -1.242579,-1.23333 z m -28,-3.586258 c 0.375531,-0.986221 0.934692,-1.541221 1.242579,-1.233333 0.307887,0.307887 6.34e-4,1.114794 -0.682784,1.793131 -0.987616,0.98026 -1.10248,0.8654 -0.559795,-0.559798 z M 139.27236,94 c 0,-2.475 0.19502,-3.4875 0.43337,-2.25 0.23836,1.2375 0.23836,3.2625 0,4.5 -0.23835,1.2375 -0.43337,0.225 -0.43337,-2.25 z m 40.29193,2.293128 c -0.54268,-1.425198 -0.42782,-1.540062 0.5598,-0.559795 0.68342,0.678334 0.99067,1.485241 0.68278,1.793128 -0.30789,0.307888 -0.86705,-0.247112 -1.24258,-1.233333 z M 62.564293,92.706872 c 0.375531,-0.986221 0.934692,-1.541221 1.242579,-1.233333 0.307887,0.307887 6.34e-4,1.114794 -0.682784,1.793128 -0.987616,0.980267 -1.10248,0.865403 -0.559795,-0.559795 z m 96.894587,-2.773403 c -0.36253,-0.586592 -0.44468,-1.281 -0.18255,-1.543128 0.26212,-0.262129 0.74306,0.21781 1.06875,1.066531 0.67618,1.762107 0.0999,2.072058 -0.8862,0.476597 z m -20.89459,-5.226597 c 0.37553,-0.986221 0.93469,-1.541221 1.24258,-1.233333 0.30789,0.307887 6.4e-4,1.114794 -0.68278,1.793128 -0.98762,0.980267 -1.10248,0.865403 -0.5598,-0.559795 z m 30,-7.413744 c -0.54268,-1.425198 -0.42782,-1.540062 0.5598,-0.559795 0.68342,0.678334 0.99067,1.485241 0.68278,1.793128 -0.30789,0.307888 -0.86705,-0.247112 -1.24258,-1.233333 z M 58,72.059017 c 0,-0.517541 0.444846,-1.215913 0.988546,-1.551938 0.56686,-0.350339 0.734507,0.05106 0.393011,0.940983 C 58.716766,73.180479 58,73.497449 58,72.059017 Z m 90.45888,-1.125548 c -0.36253,-0.586592 -0.44468,-1.281 -0.18255,-1.543128 0.26212,-0.262129 0.74306,0.21781 1.06875,1.066531 0.67618,1.762107 0.0999,2.072058 -0.8862,0.476597 z M 65,60.059017 c 0,-0.517541 0.444846,-1.215913 0.988546,-1.551938 0.56686,-0.350339 0.734507,0.05106 0.393011,0.940983 C 65.716766,61.180479 65,61.497449 65,60.059017 Z m 16.564293,-0.352145 c 0.375531,-0.986221 0.934692,-1.541221 1.242579,-1.233333 0.307887,0.307887 6.34e-4,1.114794 -0.682784,1.793128 -0.987616,0.980267 -1.10248,0.865403 -0.559795,-0.559795 z m 75.999997,-1.413744 c -0.54268,-1.425198 -0.42782,-1.540062 0.5598,-0.559795 0.68342,0.678334 0.99067,1.485241 0.68278,1.793128 -0.30789,0.307888 -0.86705,-0.247112 -1.24258,-1.233333 z M 85.564293,52.706872 c 0.375531,-0.986221 0.934692,-1.541221 1.242579,-1.233333 0.307887,0.307887 6.34e-4,1.114794 -0.682784,1.793128 -0.987616,0.980267 -1.10248,0.865403 -0.559795,-0.559795 z m 64.999997,-6.413744 c -0.54268,-1.425198 -0.42782,-1.540062 0.5598,-0.559795 0.68342,0.678334 0.99067,1.485241 0.68278,1.793128 -0.30789,0.307888 -0.86705,-0.247112 -1.24258,-1.233333 z M 89.564293,45.706872 c 0.375531,-0.986221 0.934692,-1.541221 1.242579,-1.233333 0.307887,0.307887 6.34e-4,1.114794 -0.682784,1.793128 -0.987616,0.980267 -1.10248,0.865403 -0.559795,-0.559795 z M 76,41.059017 c 0,-0.517541 0.444846,-1.215913 0.988546,-1.551938 0.56686,-0.350339 0.734507,0.05106 0.393011,0.940983 C 76.716766,42.180479 76,42.497449 76,41.059017 Z m 70.56429,-1.765889 c -0.54268,-1.425198 -0.42782,-1.540062 0.5598,-0.559795 0.68342,0.678334 0.99067,1.485241 0.68278,1.793128 -0.30789,0.307888 -0.86705,-0.247112 -1.24258,-1.233333 z M 93.564293,38.706872 c 0.375531,-0.986221 0.934692,-1.541221 1.242579,-1.233333 0.307887,0.307887 6.34e-4,1.114794 -0.682784,1.793128 -0.987616,0.980267 -1.10248,0.865403 -0.559795,-0.559795 z m 35.894587,-0.773403 c -0.36253,-0.586592 -0.44468,-1.281 -0.18255,-1.543128 0.26212,-0.262129 0.74306,0.21781 1.06875,1.066531 0.67618,1.762107 0.0999,2.072058 -0.8862,0.476597 z M 99,29.622445 c 0,-0.207656 0.7875,-0.995156 1.75,-1.75 1.58606,-1.243871 1.62143,-1.208501 0.37756,0.377555 C 99.821186,29.915748 99,30.445479 99,29.622445 Z m 40.62354,-2.161104 c -0.96498,-2.514694 -0.68031,-3.163555 0.49853,-1.136338 0.58369,1.003751 0.8506,2.035659 0.59313,2.293128 -0.25747,0.257469 -0.74872,-0.263087 -1.09166,-1.15679 z M 104,25.606989 c 0,-0.216156 0.69837,-0.661002 1.55194,-0.988546 0.88992,-0.341496 1.29132,-0.173849 0.94098,0.393011 C 105.90566,25.961658 104,26.416902 104,25.606989 Z m 7.26903,-2.29998 c 0.97297,-0.253543 2.32297,-0.236869 3,0.03705 0.67703,0.273923 -0.11903,0.481368 -1.76903,0.460988 -1.65,-0.02038 -2.20394,-0.244498 -1.23097,-0.498042 z M 133.40499,18.75 C 131.5,16.5 131.5,16.5 133.75,18.404988 135.86444,20.195206 136.45524,21 135.65499,21 c -0.18976,0 -1.20226,-1.0125 -2.25,-2.25 z M 125,13 c -0.825,-0.533156 -1.05,-0.969374 -0.5,-0.969374 0.55,0 1.675,0.436218 2.5,0.969374 0.825,0.533156 1.05,0.969374 0.5,0.969374 -0.55,0 -1.675,-0.436218 -2.5,-0.969374 z m -8.1875,-2.683114 c 0.72187,-0.288871 1.58437,-0.253344 1.91667,0.07895 0.33229,0.332292 -0.25834,0.568641 -1.3125,0.52522 -1.16495,-0.04798 -1.4019,-0.284941 -0.60417,-0.604167 z"
         id="path30" />
      <path
         style="fill:#393939"
         d="m 69.175307,210.25038 c 22.371419,-0.14998 59.271423,-0.15004 82.000003,-1.3e-4 22.72858,0.1499 4.42469,0.27261 -40.67531,0.27268 -45.1,8e-5 -63.696112,-0.12257 -41.324693,-0.27255 z m 124.637193,0.0665 c 0.72187,-0.28887 1.58437,-0.25335 1.91667,0.0789 0.33229,0.33229 -0.25834,0.56864 -1.3125,0.52522 -1.16495,-0.048 -1.4019,-0.28494 -0.60417,-0.60416 z M 213,202.5 c 1.29175,-1.375 2.57363,-2.5 2.84863,-2.5 0.275,0 -0.55688,1.125 -1.84863,2.5 -1.29175,1.375 -2.57363,2.5 -2.84863,2.5 -0.275,0 0.55688,-1.125 1.84863,-2.5 z M 71.824489,196.25026 c 22.178469,-0.15019 58.178471,-0.15013 80.000001,1.4e-4 21.82153,0.15026 3.67551,0.27315 -40.32449,0.27307 -44,-7e-5 -61.85398,-0.12302 -39.675511,-0.27321 z M 19.872445,191.25 c -1.243871,-1.58606 -1.208501,-1.62143 0.377555,-0.37756 0.9625,0.75485 1.75,1.54235 1.75,1.75 0,0.82304 -0.821186,0.29331 -2.127555,-1.37244 z M 137.75,184.33772 c 0.6875,-0.27741 1.8125,-0.27741 2.5,0 0.6875,0.27741 0.125,0.50439 -1.25,0.50439 -1.375,0 -1.9375,-0.22698 -1.25,-0.50439 z M 144,184 c 0.825,-0.53316 2.175,-0.96937 3,-0.96937 1.33333,0 1.33333,0.1077 0,0.96937 -0.825,0.53316 -2.175,0.96937 -3,0.96937 -1.33333,0 -1.33333,-0.1077 0,-0.96937 z m -15.56269,-27.77065 c 0.34132,-0.34131 1.32379,-0.72378 2.18327,-0.84993 0.85947,-0.12614 1.28342,0.0499 0.94211,0.39123 -0.34132,0.34131 -1.32379,0.72378 -2.18327,0.84993 -0.85947,0.12614 -1.28342,-0.0499 -0.94211,-0.39123 z m 4.1054,-3.16025 c -0.31644,-0.512 -0.19299,-1.1672 0.27431,-1.45601 0.46731,-0.28881 0.84965,0.13009 0.84965,0.9309 0,1.68617 -0.31534,1.83349 -1.12396,0.52511 z M 125,140.62244 c 0,-0.20765 0.7875,-0.99515 1.75,-1.75 1.58606,-1.24387 1.62143,-1.2085 0.37756,0.37756 C 125.82119,140.91575 125,141.44548 125,140.62244 Z M 56,137.5 c 1.291745,-1.375 2.573628,-2.5 2.848628,-2.5 0.275,0 -0.556883,1.125 -1.848628,2.5 -1.291745,1.375 -2.573628,2.5 -2.848628,2.5 -0.275,0 0.556883,-1.125 1.848628,-2.5 z m 82.45888,1.43347 c -0.36253,-0.58659 -0.44468,-1.281 -0.18255,-1.54313 0.26212,-0.26213 0.74306,0.21781 1.06875,1.06653 0.67618,1.76211 0.0999,2.07206 -0.8862,0.4766 z m -53.379933,-1.5168 c 0.04798,-1.16495 0.284941,-1.4019 0.604167,-0.60417 0.288871,0.72187 0.253344,1.58437 -0.07895,1.91667 -0.332292,0.33229 -0.568641,-0.25834 -0.52522,-1.3125 z m 16.000003,-3 c 0.048,-1.16495 0.28494,-1.4019 0.60416,-0.60417 0.28887,0.72187 0.25335,1.58437 -0.0789,1.91667 -0.3323,0.33229 -0.56864,-0.25834 -0.52522,-1.3125 z M 163.87244,130.25 c -1.24387,-1.58606 -1.2085,-1.62143 0.37756,-0.37756 0.9625,0.75485 1.75,1.54235 1.75,1.75 0,0.82304 -0.82119,0.29331 -2.12756,-1.37244 z M 103,129.62244 c 0,-0.20765 0.7875,-0.99515 1.75,-1.75 1.58606,-1.24387 1.62143,-1.2085 0.37756,0.37756 C 103.82119,129.91575 103,130.44548 103,129.62244 Z m -21.1875,-9.30555 c 0.721875,-0.28887 1.584375,-0.25335 1.916667,0.0789 0.332291,0.3323 -0.258334,0.56864 -1.3125,0.52522 -1.164943,-0.048 -1.4019,-0.28494 -0.604167,-0.60416 z m 60,0 c 0.72187,-0.28887 1.58437,-0.25335 1.91667,0.0789 0.33229,0.3323 -0.25834,0.56864 -1.3125,0.52522 -1.16495,-0.048 -1.4019,-0.28494 -0.60417,-0.60416 z M 85.078947,91.416667 c 0.04798,-1.164943 0.284941,-1.4019 0.604167,-0.604167 0.288871,0.721875 0.253344,1.584375 -0.07895,1.916667 -0.332292,0.332291 -0.568641,-0.258334 -0.52522,-1.3125 z M 87,80.59106 C 87,80.400666 87.675,79.684689 88.5,79 89.364593,78.282451 90,78.185262 90,78.770566 c 0,0.558501 -0.675,1.274478 -1.5,1.59106 -0.825,0.316583 -1.5,0.419828 -1.5,0.229434 z"
         id="path28" />
      <path
         style="fill:#343434"
         d="m 71.8125,183.31689 c 0.721875,-0.28887 1.584375,-0.25335 1.916667,0.0789 0.332291,0.33229 -0.258334,0.56864 -1.3125,0.52522 -1.164943,-0.048 -1.4019,-0.28494 -0.604167,-0.60416 z m 76.9375,0.0208 c 0.6875,-0.27741 1.8125,-0.27741 2.5,0 0.6875,0.27741 0.125,0.50439 -1.25,0.50439 -1.375,0 -1.9375,-0.22698 -1.25,-0.50439 z M 133.064,76.694671 130.62799,73.5 133.814,76.437091 c 3.31459,3.055633 3.69286,3.600301 2.436,3.50758 -0.4125,-0.03043 -1.8462,-1.492931 -3.186,-3.25 z"
         id="path26" />
    </g>
  </g>
</svg>
