<?xml version="1.0" encoding="UTF-8" standalone="no"?>
<svg
   xmlns:dc="http://purl.org/dc/elements/1.1/"
   xmlns:cc="http://creativecommons.org/ns#"
   xmlns:rdf="http://www.w3.org/1999/02/22-rdf-syntax-ns#"
   xmlns:svg="http://www.w3.org/2000/svg"
   xmlns="http://www.w3.org/2000/svg"
   xmlns:sodipodi="http://sodipodi.sourceforge.net/DTD/sodipodi-0.dtd"
   xmlns:inkscape="http://www.inkscape.org/namespaces/inkscape"
   version="1.1"
   id="svg12"
   width="60"
   height="60"
   viewBox="0 0 59.999984 59.999993"
   sodipodi:docname="ThreatImage.svg"
   inkscape:export-filename="C:\dev\ELTA\GitClones\TRADES\bundles\dsm.TRADES.edit\icons\custom\Threat.png"
   inkscape:export-xdpi="27.093334"
   inkscape:export-ydpi="27.093334"
   inkscape:version="0.92.4 (5da689c313, 2019-01-14)">
  <metadata
     id="metadata18">
    <rdf:RDF>
      <cc:Work
         rdf:about="">
        <dc:format>image/svg+xml</dc:format>
        <dc:type
           rdf:resource="http://purl.org/dc/dcmitype/StillImage" />
        <dc:title></dc:title>
      </cc:Work>
    </rdf:RDF>
  </metadata>
  <defs
     id="defs16" />
  <sodipodi:namedview
     pagecolor="#ffffff"
     bordercolor="#666666"
     borderopacity="1"
     objecttolerance="10"
     gridtolerance="10"
     guidetolerance="10"
     inkscape:pageopacity="0"
     inkscape:pageshadow="2"
     inkscape:window-width="1920"
     inkscape:window-height="1017"
     id="namedview14"
     showgrid="false"
     inkscape:zoom="9.2395288"
     inkscape:cx="5.4544803"
     inkscape:cy="36.313707"
     inkscape:window-x="-8"
     inkscape:window-y="1072"
     inkscape:window-maximized="1"
     inkscape:current-layer="g20"
     inkscape:document-rotation="0"
     units="px"
     width="249mm" />
  <g
     inkscape:groupmode="layer"
     inkscape:label="Image"
     id="g20"
     transform="translate(0,3.3070873)">
    <rect
       style="fill:#ffffff;fill-opacity:0.00392157;stroke:#101010;stroke-width:0.5477758;stroke-linecap:round;stroke-linejoin:round;stroke-miterlimit:4;stroke-dasharray:none;stroke-opacity:1;paint-order:stroke markers fill"
       id="rect4522"
       width="58.452225"
       height="58.452225"
       x="0.77388763"
       y="-2.5331995" />
    <path
       inkscape:connector-curvature="0"
       id="path32-5"
       d="M 11.241229,50.577121 C 9.2729208,49.973953 7.3605283,48.44085 6.5843026,46.537258 5.6994768,44.805317 5.9501644,42.424818 6.4776839,40.545298 c 0.6081777,-1.747106 1.3091565,-2.935467 2.2907178,-4.548886 0.6036909,-1.755106 1.6396193,-3.149951 2.5102203,-4.846129 0.563302,-1.65214 1.682071,-3.021917 2.380599,-4.698065 0.677622,-1.596246 1.78349,-2.993735 2.380597,-4.698065 1.002092,-1.497431 1.462223,-2.927186 2.473446,-4.490771 0.744288,-1.489074 1.533727,-3.312112 2.461304,-4.56725 0.622518,-1.596544 1.547464,-3.2702708 2.389182,-4.7248145 0.909303,-1.7348679 1.782431,-3.6194858 3.475991,-4.588487 1.809177,-0.8175813 4.020281,-0.9211703 5.647846,-0.2429675 1.795334,0.8177067 2.970778,2.844507 3.940507,4.7085234 1.088267,1.4624224 1.518562,3.0340896 2.552033,4.5292456 0.560467,1.714315 1.692153,3.109734 2.380598,4.698065 0.73081,1.567449 1.658111,3.131641 2.357302,4.531073 0.731391,1.580046 1.64058,2.957383 2.311048,4.526173 0.931814,1.608305 1.629214,2.914858 2.383073,4.554639 0.927419,1.610192 1.627979,2.9146 2.380598,4.55464 1.072149,1.758984 1.673167,3.218478 2.650636,5.060273 0.629548,2.001772 0.932723,4.683505 -0.235754,6.36701 -1.038082,2.682256 -3.949138,4.166797 -6.526854,3.882118 -11.811591,0.109757 -23.629585,0.241065 -35.439545,0.02549 z m 37.215138,-3.440399 c 1.547898,-0.809321 3.355607,-3.123241 2.31827,-4.913725 C 50.221871,40.516856 49.156531,38.969505 48.389433,37.436891 47.600728,35.652312 46.5333,34.115207 45.76287,32.154356 44.739089,30.69253 44.08563,29.004175 43.218954,27.320484 42.383477,26.031499 41.807374,24.75245 41.144307,23.329996 40.170652,21.837571 39.472145,20.031704 38.635243,18.766459 37.898332,17.177969 36.991049,15.493297 36.270024,14.18426 35.348935,12.257046 34.294154,10.388518 33.344806,8.4674888 32.617049,6.4297697 29.432516,4.7418716 27.882919,6.8456666 c -0.99443,0.5585682 -1.406195,1.9016589 -2.038491,3.1690394 -1.079833,1.737608 -1.85944,3.583762 -2.825129,5.350297 -0.714335,1.538123 -1.611134,2.693302 -2.092099,4.256176 -1.011358,1.01561 -1.219855,2.71366 -2.200832,3.863818 -0.868598,1.940977 -1.882739,3.695091 -2.78988,5.561769 -0.745336,1.071363 -1.254216,2.635717 -2.026569,3.798277 -1.022968,2.13609 -2.255055,4.116806 -3.154736,6.300826 -0.7965622,1.501417 -1.9696719,2.794793 -1.7885774,4.71001 0.2902883,1.356333 1.1652974,2.85012 2.2484434,3.005901 1.452863,1.155421 3.76021,0.28891 5.555912,0.571221 10.560774,-0.02157 21.130273,0.06383 31.685406,-0.296279 z M 35.084603,44.303873 c -1.257865,-0.261415 -2.410271,-0.691137 -3.333263,-1.75325 -0.758944,-0.718033 -2.457154,-2.933812 -2.857718,-0.966028 -0.839849,1.143636 -2.26753,1.93985 -3.223202,2.402625 -0.952073,0.322054 -3.62753,0.716429 -1.406718,-0.347408 1.281213,-0.415132 2.158629,-1.700909 2.971393,-2.788298 1.476535,-2.53912 -2.343042,-2.694916 -2.708617,-4.944617 -0.523039,-1.825176 1.272694,1.855315 1.914423,2.027371 2.217308,2.035259 1.488882,-2.922291 0.540768,-3.630065 -0.3474,-0.988225 -1.428613,-1.605203 -2.101852,-2.279475 -0.856704,-0.192192 -1.230477,2.434917 -1.063349,0.15943 -0.973644,-1.966366 -4.248237,-0.703728 -5.615841,0.656004 -0.695561,0.6853 -1.655451,2.436162 -0.925418,0.325801 0.898658,-1.68561 2.290984,-2.908689 3.850432,-3.495475 1.061215,-0.604573 3.727806,0.100561 2.499049,-2.225951 -0.866211,-1.920344 -0.58602,-4.515409 0.206176,-6.151527 1.066401,-2.487317 -0.387774,2.945903 0.734711,3.969939 0.336261,1.125325 1.48449,2.655391 2.114197,2.167167 -0.11066,1.596411 3.091549,2.238757 4.536405,1.751044 1.47385,-0.0378 3.235558,-1.579466 0.995358,-2.403922 0.831219,0.227331 2.040212,1.335633 2.69811,-0.359266 0.603475,-1.506618 1.187076,-2.784199 0.928474,-4.540194 -0.356494,-0.978309 -0.611123,-2.808287 0.229866,-0.714074 0.866597,1.461185 1.121442,3.785092 0.433622,5.576494 -0.952336,1.892084 -0.203173,2.814218 1.568211,2.846033 1.777189,0.568057 3.381856,1.936876 4.311278,3.519706 0.338802,1.863689 -1.314112,-1.176279 -2.480759,-1.33636 -1.751582,-0.95079 -4.04181,-0.498817 -5.680211,0.678644 -1.66409,1.300663 -3.063425,3.826988 -2.27304,6.053437 0.854517,-0.255371 1.629359,-0.62883 0.7888,0.266744 -1.946172,0.496159 0.328325,3.250358 1.11678,3.779871 0.553718,0.996444 4.019256,2.029751 1.231935,1.755579 z M 30.323407,35.25654 c 1.523709,-0.03757 2.566274,-2.576533 1.464689,-3.826346 -1.092271,-1.911235 -3.956422,-1.239583 -4.236699,0.990864 -0.125243,1.528137 1.201592,2.711446 2.459489,3.082754 l 0.219065,-0.06372 z m 3.276482,2.446822 c 0.98343,-1.316457 1.052223,-0.655137 0.08629,0.192632 -0.317101,0.547846 -0.352893,-0.0085 -0.08629,-0.192632 z m 1.227718,-1.637557 c 0.962424,-0.176031 -0.122274,0.436983 0,-9e-6 z m 0.216418,-0.479435 c 0.962424,-0.176032 -0.122274,0.436981 0,-9e-6 z M 23.948317,34.568099 c 0.121941,-1.246123 0.590568,0.742614 0,0 z m 4.102701,-7.927254 c 0.0095,-0.964591 0.780498,0.898263 0,0 z m 3.262467,0.02903 c 0.416907,-1.28771 0.89137,0.494459 0,0 z m -1.949593,-0.244247 c -0.832354,-0.860599 3.166836,-0.161886 0.643854,0.169821 l -0.291736,-0.03996 z m -4.92435,-6.660641 c 0.962425,-0.176022 -0.122276,0.437001 0,0 z"
       style="fill:#101010;fill-opacity:1;stroke-width:0.22777019" />
  </g>
</svg>
