<?xml version="1.0" encoding="UTF-8" standalone="no"?>
<svg
   xmlns:dc="http://purl.org/dc/elements/1.1/"
   xmlns:cc="http://creativecommons.org/ns#"
   xmlns:rdf="http://www.w3.org/1999/02/22-rdf-syntax-ns#"
   xmlns:svg="http://www.w3.org/2000/svg"
   xmlns="http://www.w3.org/2000/svg"
   xmlns:sodipodi="http://sodipodi.sourceforge.net/DTD/sodipodi-0.dtd"
   xmlns:inkscape="http://www.inkscape.org/namespaces/inkscape"
   version="1.1"
   id="svg12"
   width="15mm"
   height="15mm"
   viewBox="0 0 56.692898 56.692906"
   sodipodi:docname="ThreatImage.svg"
   inkscape:export-filename="threat2.png"
   inkscape:export-xdpi="64"
   inkscape:export-ydpi="64"
   inkscape:version="0.92.4 (5da689c313, 2019-01-14)">
  <metadata
     id="metadata18">
    <rdf:RDF>
      <cc:Work
         rdf:about="">
        <dc:format>image/svg+xml</dc:format>
        <dc:type
           rdf:resource="http://purl.org/dc/dcmitype/StillImage" />
        <dc:title />
      </cc:Work>
    </rdf:RDF>
  </metadata>
  <defs
     id="defs16" />
  <sodipodi:namedview
     pagecolor="#ffffff"
     bordercolor="#666666"
     borderopacity="1"
     objecttolerance="10"
     gridtolerance="10"
     guidetolerance="10"
     inkscape:pageopacity="0"
     inkscape:pageshadow="2"
     inkscape:window-width="958"
     inkscape:window-height="1008"
     id="namedview14"
     showgrid="false"
     inkscape:zoom="4.6197643"
     inkscape:cx="49.908064"
     inkscape:cy="41.367949"
     inkscape:window-x="-7"
     inkscape:window-y="0"
     inkscape:window-maximized="0"
     inkscape:current-layer="g20"
     inkscape:document-rotation="0"
     units="mm"
     width="249mm" />
  <g
     inkscape:groupmode="layer"
     inkscape:label="Image"
     id="g20">
    <g
       id="g24"
       transform="matrix(0.2354869,0,0,0.23449356,1.8381398,2.4083616)"
       style="fill:#101010;fill-opacity:1">
      <path
         style="fill:#101010;fill-opacity:1"
         d="m 70.824887,211.25024 c 23.278688,-0.14964 61.078693,-0.14958 84.000003,1.2e-4 22.92131,0.1497 3.87511,0.27213 -42.32489,0.27206 -46.2,-7e-5 -64.953801,-0.12255 -41.675113,-0.27218 z M 70.75,195.25032 c 22.1375,-0.15015 58.3625,-0.15015 80.5,0 22.1375,0.15016 4.025,0.27301 -40.25,0.27301 -44.275,0 -62.3875,-0.12285 -40.25,-0.27301 z m 8.011659,-9.95758 c 1.243913,-0.23919 3.043913,-0.23011 4,0.0202 0.956088,0.25029 -0.06166,0.446 -2.261659,0.4349 -2.2,-0.0111 -2.982253,-0.21589 -1.738341,-0.45508 z m 62.000001,0 c 1.24391,-0.23919 3.04391,-0.23011 4,0.0202 0.95609,0.25029 -0.0617,0.446 -2.26166,0.4349 -2.2,-0.0111 -2.98225,-0.21589 -1.73834,-0.45508 z M 224.27236,180 c 0,-2.475 0.19502,-3.4875 0.43337,-2.25 0.23836,1.2375 0.23836,3.2625 0,4.5 -0.23835,1.2375 -0.43337,0.225 -0.43337,-2.25 z M 73.25,182.31067 c 0.9625,-0.25152 2.5375,-0.25152 3.5,0 0.9625,0.25153 0.175,0.45733 -1.75,0.45733 -1.925,0 -2.7125,-0.2058 -1.75,-0.45733 z m 72.5,-0.0164 c 1.2375,-0.23836 3.2625,-0.23836 4.5,0 1.2375,0.23835 0.225,0.43337 -2.25,0.43337 -2.475,0 -3.4875,-0.19502 -2.25,-0.43337 z M 16.157895,180 c 0,-1.375 0.226973,-1.9375 0.504386,-1.25 0.277412,0.6875 0.277412,1.8125 0,2.5 -0.277413,0.6875 -0.504386,0.125 -0.504386,-1.25 z m 191.999995,0 c 0,-1.375 0.22698,-1.9375 0.50439,-1.25 0.27741,0.6875 0.27741,1.8125 0,2.5 -0.27741,0.6875 -0.50439,0.125 -0.50439,-1.25 z M 60.507079,179.01145 c -0.350339,-0.56686 0.05106,-0.7345 0.940983,-0.39301 1.732417,0.66479 2.049387,1.38156 0.610955,1.38156 -0.517541,0 -1.215913,-0.44485 -1.551938,-0.98855 z M 160,179.60699 c 0,-0.21616 0.69837,-0.661 1.55194,-0.98855 0.88992,-0.34149 1.29132,-0.17385 0.94098,0.39301 C 161.90566,179.96166 160,180.4169 160,179.60699 Z M 116.40499,174.75 C 114.5,172.5 114.5,172.5 116.75,174.40499 c 2.11444,1.79022 2.70524,2.59501 1.90499,2.59501 -0.18976,0 -1.20226,-1.0125 -2.25,-2.25 z M 48.078947,157.41667 c 0.04798,-1.16495 0.284941,-1.4019 0.604167,-0.60417 0.288871,0.72187 0.253344,1.58437 -0.07895,1.91667 -0.332292,0.33229 -0.568641,-0.25834 -0.52522,-1.3125 z M 121.19495,155.5 c 0.0204,-1.65 0.2445,-2.20394 0.49804,-1.23097 0.25354,0.97297 0.23687,2.32297 -0.037,3 -0.27393,0.67703 -0.48137,-0.11903 -0.46099,-1.76903 z m 52.884,0.91667 c 0.048,-1.16495 0.28494,-1.4019 0.60416,-0.60417 0.28887,0.72187 0.25335,1.58437 -0.0789,1.91667 -0.3323,0.33229 -0.56864,-0.25834 -0.52522,-1.3125 z M 130,153.5 c 1.29175,-1.375 2.57363,-2.5 2.84863,-2.5 0.275,0 -0.55688,1.125 -1.84863,2.5 -1.29175,1.375 -2.57363,2.5 -2.84863,2.5 -0.275,0 0.55688,-1.125 1.84863,-2.5 z M 128.5,138 c 0.99549,-1.1 2.03498,-2 2.30998,-2 0.275,0 -0.31449,0.9 -1.30998,2 -0.99549,1.1 -2.03498,2 -2.30998,2 -0.275,0 0.31449,-0.9 1.30998,-2 z m 35.42431,-8.75 -2.42431,-2.75 2.75,2.42431 c 2.57029,2.26589 3.20859,3.07569 2.42431,3.07569 -0.17912,0 -1.41662,-1.2375 -2.75,-2.75 z M 57,130.62244 c 0,-0.20765 0.7875,-0.99515 1.75,-1.75 1.586056,-1.24387 1.621426,-1.2085 0.377555,0.37756 C 57.821186,130.91575 57,131.44548 57,130.62244 Z m 24,-11.01545 c 0,-0.21616 0.675,-0.65203 1.5,-0.96862 0.825,-0.31658 1.5,-0.13972 1.5,0.39301 C 84,119.56412 83.325,120 82.5,120 81.675,120 81,119.82314 81,119.60699 Z m 60.8125,-0.2901 c 0.72187,-0.28887 1.58437,-0.25335 1.91667,0.0789 0.33229,0.3323 -0.25834,0.56864 -1.3125,0.52522 -1.16495,-0.048 -1.4019,-0.28494 -0.60417,-0.60416 z M 86.078947,90.416667 c 0.04798,-1.164943 0.284941,-1.4019 0.604167,-0.604167 0.288871,0.721875 0.253344,1.584375 -0.07895,1.916667 -0.332292,0.332291 -0.568641,-0.258334 -0.52522,-1.3125 z M 130.40499,74.767233 c -1.16722,-1.368054 -1.28843,-1.758697 -0.31298,-1.008676 0.8756,0.67325 1.8131,1.002995 2.08333,0.732767 0.27023,-0.270228 0.49133,0.183676 0.49133,1.008676 0,1.916536 -0.002,1.915952 -2.26168,-0.732767 z M 95.564293,72.706872 c 0.375531,-0.986221 0.934692,-1.541221 1.242579,-1.233333 0.307887,0.307887 6.34e-4,1.114794 -0.682784,1.793128 -0.987616,0.980267 -1.10248,0.865403 -0.559795,-0.559795 z M 89.5,18 c 0.995486,-1.1 2.034975,-2 2.309975,-2 0.275,0 -0.314489,0.9 -1.309975,2 -0.995486,1.1 -2.034975,2 -2.309975,2 -0.275,0 0.314489,-0.9 1.309975,-2 z"
         id="path38"
         inkscape:connector-curvature="0" />
      <path
         style="fill:#101010;fill-opacity:1"
         d="m 214.5,202 c 0.99549,-1.1 2.03498,-2 2.30998,-2 0.275,0 -0.31449,0.9 -1.30998,2 -0.99549,1.1 -2.03498,2 -2.30998,2 -0.275,0 0.31449,-0.9 1.30998,-2 z M 19.872445,190.25 c -1.243871,-1.58606 -1.208501,-1.62143 0.377555,-0.37756 0.9625,0.75485 1.75,1.54235 1.75,1.75 0,0.82304 -0.821186,0.29331 -2.127555,-1.37244 z M 0.2521834,179.5 c 0.0110994,-2.2 0.21588425,-2.98225 0.45507747,-1.73834 0.23919321,1.24391 0.2301119,3.04391 -0.0201807,4 C 0.43678756,182.71775 0.24108402,181.7 0.2521834,179.5 Z M 131.5,156 c 0.99549,-1.1 2.03498,-2 2.30998,-2 0.275,0 -0.31449,0.9 -1.30998,2 -0.99549,1.1 -2.03498,2 -2.30998,2 -0.275,0 0.31449,-0.9 1.30998,-2 z m -83.267997,-3 c 0,-1.925 0.205795,-2.7125 0.457323,-1.75 0.251527,0.9625 0.251527,2.5375 0,3.5 -0.251528,0.9625 -0.457323,0.175 -0.457323,-1.75 z m 91.962947,-17.5 c 0.0204,-1.65 0.2445,-2.20394 0.49804,-1.23097 0.25354,0.97297 0.23687,2.32297 -0.0371,3 -0.27393,0.67703 -0.48137,-0.11903 -0.46099,-1.76903 z m -2.116,-44.083333 c 0.048,-1.164943 0.28494,-1.4019 0.60416,-0.604167 0.28887,0.721875 0.25335,1.584375 -0.0789,1.916667 -0.3323,0.332291 -0.56864,-0.258334 -0.52522,-1.3125 z M 133.33333,76.34921 c 0,-0.984499 0.33697,-1.037796 1.33334,-0.210889 C 135.4,76.746934 136,77.339789 136,77.455778 c 0,0.115989 -0.6,0.210889 -1.33333,0.210889 -0.73334,0 -1.33334,-0.592856 -1.33334,-1.317457 z m -5.82625,-4.337756 c -0.35034,-0.56686 0.0511,-0.734507 0.94098,-0.393011 C 130.18048,72.283234 130.49745,73 129.05902,73 c -0.51754,0 -1.21592,-0.444846 -1.55194,-0.988546 z M 111.8125,24.316886 c 0.72187,-0.288871 1.58437,-0.253344 1.91667,0.07895 0.33229,0.332292 -0.25834,0.568641 -1.3125,0.52522 -1.16495,-0.04798 -1.4019,-0.284941 -0.60417,-0.604167 z"
         id="path36"
         inkscape:connector-curvature="0" />
      <path
         style="fill:#101010;fill-opacity:1"
         d="M 8.8724447,201.25 C 7.6285741,199.66394 7.6639444,199.62857 9.25,200.87244 c 0.9625,0.75485 1.75,1.54235 1.75,1.75 0,0.82304 -0.821186,0.29331 -2.1275553,-1.37244 z M 192.8125,195.31689 c 0.72187,-0.28887 1.58437,-0.25335 1.91667,0.0789 0.33229,0.33229 -0.25834,0.56864 -1.3125,0.52522 -1.16495,-0.048 -1.4019,-0.28494 -0.60417,-0.60416 z M 66,182 c -0.901292,-0.58246 -1.024633,-0.97549 -0.309017,-0.98469 0.655041,-0.008 1.469098,0.43469 1.809017,0.98469 0.767305,1.24153 0.421123,1.24153 -1.5,0 z m 89.73333,-0.12409 c 0.67834,-0.68342 1.48524,-0.99067 1.79313,-0.68278 0.30789,0.30789 -0.24711,0.86705 -1.23333,1.24258 -1.4252,0.54268 -1.54006,0.42782 -0.5598,-0.5598 z M 93,175.62244 c 0,-0.20765 0.7875,-0.99515 1.75,-1.75 1.586056,-1.24387 1.621426,-1.2085 0.377555,0.37756 C 93.821186,175.91575 93,176.44548 93,175.62244 Z M 127.87244,174.25 c -1.24387,-1.58606 -1.2085,-1.62143 0.37756,-0.37756 0.9625,0.75485 1.75,1.54235 1.75,1.75 0,0.82304 -0.82119,0.29331 -2.12756,-1.37244 z M 102.15789,156 c 0,-1.375 0.22698,-1.9375 0.50439,-1.25 0.27741,0.6875 0.27741,1.8125 0,2.5 -0.27741,0.6875 -0.50439,0.125 -0.50439,-1.25 z M 83.078947,137.41667 c 0.04798,-1.16495 0.284941,-1.4019 0.604167,-0.60417 0.288871,0.72187 0.253344,1.58437 -0.07895,1.91667 -0.332292,0.33229 -0.568641,-0.25834 -0.52522,-1.3125 z M 111.25,120.31067 c 0.9625,-0.25152 2.5375,-0.25152 3.5,0 0.9625,0.25153 0.175,0.45733 -1.75,0.45733 -1.925,0 -2.7125,-0.2058 -1.75,-0.45733 z M 89.650831,76.833333 c 1.9005,-2.100028 3.163229,-2.519141 1.48029,-0.491324 -0.612573,0.738105 -0.892673,1.563105 -0.622445,1.833334 0.270228,0.270228 -0.185546,0.491324 -1.012832,0.491324 -1.282516,0 -1.259679,-0.270146 0.154987,-1.833334 z M 133.92431,18.25 131.5,15.5 l 2.75,2.424314 c 1.5125,1.333373 2.75,2.570873 2.75,2.75 0,0.784274 -0.8098,0.145975 -3.07569,-2.424314 z"
         id="path34"
         inkscape:connector-curvature="0" />
      <path
         style="fill:#101010;fill-opacity:1"
         d="M 25.827217,209.85187 C 16.732283,207.33571 7.8957153,200.94026 4.309017,192.99929 0.22051362,185.77438 1.3788627,175.84396 3.8163678,168.00341 6.6265656,160.71523 9.8655699,155.7579 14.401057,149.02741 17.190523,141.70586 21.977222,135.88717 26,128.81144 28.602841,121.91942 33.772322,116.2053 37,109.21313 40.131081,102.55428 45.240955,96.724554 48,89.614819 52.630356,83.368183 54.756475,77.403857 59.429023,70.88125 62.868142,64.669472 66.515894,57.064543 70.801935,51.828646 73.678397,45.16855 77.952287,38.186479 81.841601,32.11875 86.043202,24.881623 90.077656,17.01981 97.903071,12.977553 106.26271,9.566955 116.47953,9.134826 124,11.963997 c 8.29568,3.411121 13.72704,11.866062 18.20785,19.641936 5.02854,6.100599 7.0168,12.65692 11.79215,18.894067 2.58974,7.151386 7.81891,12.972474 11,19.59831 3.37684,6.538724 7.66161,13.06386 10.89235,18.90169 3.37953,6.591272 7.58061,12.33693 10.67863,18.88125 4.30562,6.70916 7.52809,12.15954 11.01144,19 4.28531,6.71703 7.52238,12.15846 11,19 4.95406,7.33773 7.73118,13.42611 12.24776,21.10929 2.90894,8.35053 4.30982,19.53757 -1.08935,26.56043 -4.79665,11.18922 -18.24773,17.38209 -30.15855,16.19453 -54.57767,0.45786 -109.184926,1.00562 -163.755063,0.10637 z M 197.78674,195.5 c 7.15235,-3.37614 15.50521,-13.02882 10.712,-20.49795 -2.55416,-7.11729 -7.47676,-13.57217 -11.02128,-19.96558 -3.64436,-7.4445 -8.57661,-13.85664 -12.13653,-22.03647 -4.73057,-6.09811 -7.75,-13.1412 -11.75464,-20.16484 C 169.72581,107.45807 167.06382,102.12243 164,96.188561 159.50104,89.962801 156.27346,82.429505 152.4064,77.151444 149.00136,70.524948 144.80909,63.49722 141.47746,58.036475 137.22139,49.996969 132.34758,42.202272 127.96094,34.188561 124.5982,25.688073 109.88347,18.646889 102.72327,27.423017 98.128317,29.753125 96.225681,35.355919 93.304041,40.64289 88.314469,47.891441 84.712149,55.592804 80.25,62.962031 c -3.300718,6.416384 -7.444549,11.235297 -9.666936,17.754934 -4.673166,4.236693 -5.636566,11.320229 -10.169353,16.118191 -4.013523,8.096924 -8.699552,15.414334 -12.891169,23.201314 -3.443962,4.46927 -5.79534,10.99508 -9.364143,15.84478 -4.726812,8.91085 -10.419905,17.17355 -14.577046,26.28434 -3.680664,6.26327 -9.101238,11.65868 -8.264456,19.64814 1.341331,5.65804 5.384474,11.88948 10.389353,12.53933 6.713222,4.81992 17.374749,1.20521 25.672134,2.38289 48.798036,-0.09 97.636386,0.26627 146.408356,-1.23595 z M 136,183.68257 c -5.8122,-1.09051 -11.13711,-2.88313 -15.40197,-7.31381 -3.50684,-2.99532 -11.35374,-12.2386 -13.20462,-4.02985 -3.88068,4.77076 -10.477548,8.09222 -14.89341,10.02272 -4.39923,1.34347 -16.76168,2.98863 -6.5,-1.44924 5.920084,-1.73175 9.974347,-7.09546 13.729874,-11.63158 6.822606,-10.59212 -10.826465,-11.24203 -12.515673,-20.62682 -2.416798,-7.61385 5.880725,7.73958 8.845956,8.45732 10.245483,8.49023 6.879653,-12.19054 2.498713,-15.14307 -1.605226,-4.12245 -6.601173,-6.69622 -9.712,-9.50899 -3.958558,-0.80174 -5.685647,10.15743 -4.913402,0.66507 -4.498904,-8.20283 -19.629775,-2.93565 -25.949045,2.73657 -3.213968,2.85878 -7.649322,10.16262 -4.276068,1.3591 4.152418,-7.03164 10.585924,-12.1338 17.791645,-14.58162 4.903541,-2.52202 17.225024,0.4195 11.547319,-9.28571 C 79.044829,105.34181 80.339507,94.516309 84,87.69113 c 4.927505,-10.37602 -1.791781,12.289044 3.394868,16.56088 1.553757,4.69437 6.859364,11.07715 9.769042,9.04049 -0.511327,6.65954 14.28508,9.33913 20.96131,7.3046 6.8102,-0.15769 14.9505,-6.58885 4.59924,-10.02813 3.8408,0.94833 9.42718,5.57169 12.46712,-1.4987 2.78847,-6.28496 5.48511,-11.614482 4.29019,-18.939742 -1.64725,-4.081083 -2.82381,-11.714964 1.06214,-2.978809 4.00427,6.095437 5.18183,15.789781 2.00363,23.262741 -4.40045,7.89296 -0.9388,11.73971 7.24621,11.87243 8.21184,2.36969 15.6265,8.07981 19.92107,14.6827 1.5655,7.77451 -6.0721,-4.90693 -11.46281,-5.57472 -8.09351,-3.96629 -18.67594,-2.08085 -26.24648,2.83101 -7.68924,5.42581 -14.15513,15.96455 -10.50301,25.25234 3.94846,-1.0653 7.52876,-2.62321 3.6448,1.11274 -8.99265,2.06976 1.51709,13.5591 5.16029,15.768 2.55856,4.15674 18.57173,8.46725 5.69239,7.32352 z m -22,-37.74159 c 7.04058,-0.15673 11.85795,-10.74819 6.76787,-15.96187 -5.04704,-7.97285 -18.28139,-5.17101 -19.57646,4.13346 -0.57871,6.37473 5.55218,11.31099 11.36453,12.85992 l 1.01223,-0.2658 0.43183,-0.7657 z m 15.1396,10.20709 c 4.54412,-5.49169 4.86199,-2.73295 0.39869,0.80358 -1.46523,2.28538 -1.63061,-0.0352 -0.39869,-0.80358 z m 5.6729,-6.83118 c 4.44706,-0.73433 -0.56499,1.8229 0,-4e-5 z m 1,-2 c 4.44706,-0.73433 -0.56499,1.8229 0,-4e-5 z M 84.542705,143.0691 c 0.56345,-5.19829 2.728825,3.09787 0,0 z M 103.5,110 c 0.0437,-4.02386 3.60644,3.74717 0,0 z m 15.07484,0.1211 c 1.9264,-5.37177 4.11874,2.06267 0,0 z m -9.00846,-1.01888 c -3.84605,-3.59005 14.63296,-0.67532 2.97505,0.70842 l -1.34802,-0.1667 z M 86.8125,81.316886 c 4.447065,-0.73429 -0.565003,1.822978 0,3e-6 z"
         id="path32"
         inkscape:connector-curvature="0" />
      <path
         style="fill:#101010;fill-opacity:1"
         d="m 203,208.60699 c 0,-0.21616 0.69837,-0.661 1.55194,-0.98855 0.88992,-0.34149 1.29132,-0.17385 0.94098,0.39301 C 204.90566,208.96166 203,209.4169 203,208.60699 Z M 29.8125,196.31689 c 0.721875,-0.28887 1.584375,-0.25335 1.916667,0.0789 0.332291,0.33229 -0.258334,0.56864 -1.3125,0.52522 -1.164943,-0.048 -1.4019,-0.28494 -0.604167,-0.60416 z M 207.03063,187.5 c 0,-0.55 0.43621,-1.675 0.96937,-2.5 0.53316,-0.825 0.96937,-1.05 0.96937,-0.5 0,0.55 -0.43621,1.675 -0.96937,2.5 -0.53316,0.825 -0.96937,1.05 -0.96937,0.5 z M 75.66006,183.75 c 0.628941,-1.02998 3.529791,-0.91553 5.308585,0.20946 1.040031,0.65776 0.412874,0.87217 -2.148956,0.73469 C 76.830008,184.58737 75.408175,184.1625 75.66006,183.75 Z M 142,184 c 0.825,-0.53316 1.95,-0.96937 2.5,-0.96937 0.55,0 0.325,0.43621 -0.5,0.96937 -0.825,0.53316 -1.95,0.96937 -2.5,0.96937 -0.55,0 -0.325,-0.43621 0.5,-0.96937 z M 1.2860141,179.5 c 0.00751,-2.75 0.2017128,-3.75631 0.4315671,-2.23625 0.2298544,1.52006 0.2237119,3.77006 -0.01365,5 C 1.4665693,183.49369 1.2785066,182.25 1.2860141,179.5 Z M 83,182 c 0.825,-0.53316 1.95,-0.96937 2.5,-0.96937 0.55,0 0.325,0.43621 -0.5,0.96937 -0.825,0.53316 -1.95,0.96937 -2.5,0.96937 -0.55,0 -0.325,-0.43621 0.5,-0.96937 z m 140.232,-2 c 0,-1.925 0.2058,-2.7125 0.45733,-1.75 0.25152,0.9625 0.25152,2.5375 0,3.5 -0.25153,0.9625 -0.45733,0.175 -0.45733,-1.75 z m -96.72492,1.01145 c -0.35034,-0.56686 0.0511,-0.7345 0.94098,-0.39301 1.73242,0.66479 2.04939,1.38156 0.61096,1.38156 -0.51754,0 -1.21592,-0.44485 -1.55194,-0.98855 z M 135,180.5 c -1.375,-0.78602 -2.02351,-1.44508 -1.44113,-1.46456 0.58238,-0.0195 1.93238,0.62525 3,1.43276 2.46898,1.86744 1.68038,1.88353 -1.55887,0.0318 z m -47.266667,-0.62409 c 0.678334,-0.68342 1.485241,-0.99067 1.793128,-0.68278 0.307888,0.30789 -0.247112,0.86705 -1.233333,1.24258 -1.425198,0.54268 -1.540062,0.42782 -0.559795,-0.5598 z m -72.654386,-2.45924 c 0.04798,-1.16495 0.284941,-1.4019 0.604167,-0.60417 0.288871,0.72187 0.253344,1.58437 -0.07895,1.91667 -0.332292,0.33229 -0.568641,-0.25834 -0.52522,-1.3125 z m 194.000003,0 c 0.048,-1.16495 0.28494,-1.4019 0.60416,-0.60417 0.28887,0.72187 0.25335,1.58437 -0.0789,1.91667 -0.3323,0.33229 -0.56864,-0.25834 -0.52522,-1.3125 z M 94.5,175 c 0.995486,-1.1 2.034975,-2 2.309975,-2 0.275,0 -0.314489,0.9 -1.309975,2 -0.995486,1.1 -2.034975,2 -2.309975,2 -0.275,0 0.314489,-0.9 1.309975,-2 z m 32.90499,-0.25 C 125.5,172.5 125.5,172.5 127.75,174.40499 c 2.11444,1.79022 2.70524,2.59501 1.90499,2.59501 -0.18976,0 -1.20226,-1.0125 -2.25,-2.25 z m 92.1593,-9.45687 c -0.54268,-1.4252 -0.42782,-1.54006 0.5598,-0.5598 0.68342,0.67834 0.99067,1.48524 0.68278,1.79313 -0.30789,0.30789 -0.86705,-0.24711 -1.24258,-1.23333 z m -19.10541,-4.35966 c -0.36253,-0.58659 -0.44468,-1.281 -0.18255,-1.54313 0.26212,-0.26213 0.74306,0.21781 1.06875,1.06653 0.67618,1.76211 0.0999,2.07206 -0.8862,0.4766 z m -80.37993,-3.5168 c 0.048,-1.16495 0.28494,-1.4019 0.60416,-0.60417 0.28887,0.72187 0.25335,1.58437 -0.0789,1.91667 -0.3323,0.33229 -0.56864,-0.25834 -0.52522,-1.3125 z M 127,157.94098 c 0,-0.58246 0.45,-0.7809 1,-0.44098 0.55,0.33992 1,0.81648 1,1.05902 0,0.24254 -0.45,0.44098 -1,0.44098 -0.55,0 -1,-0.47656 -1,-1.05902 z M 91.924314,155.25 89.5,152.5 l 2.75,2.42431 C 94.820289,157.1902 95.458588,158 94.674314,158 c -0.179127,0 -1.416627,-1.2375 -2.75,-2.75 z M 10,155.05902 c 0,-0.51754 0.444846,-1.21592 0.988546,-1.55194 0.56686,-0.35034 0.734507,0.0511 0.393011,0.94098 C 10.716766,156.18048 10,156.49745 10,155.05902 Z m 17.564293,-1.35215 c 0.375531,-0.98622 0.934692,-1.54122 1.242579,-1.23333 0.307887,0.30789 6.34e-4,1.11479 -0.682784,1.79313 -0.987616,0.98026 -1.10248,0.8654 -0.559795,-0.5598 z m 92.514657,-0.2902 c 0.048,-1.16495 0.28494,-1.4019 0.60416,-0.60417 0.28887,0.72187 0.25335,1.58437 -0.0789,1.91667 -0.3323,0.33229 -0.56864,-0.25834 -0.52522,-1.3125 z m 14,-2 c 0.048,-1.16495 0.28494,-1.4019 0.60416,-0.60417 0.28887,0.72187 0.25335,1.58437 -0.0789,1.91667 -0.3323,0.33229 -0.56864,-0.25834 -0.52522,-1.3125 z m -46.514657,-4.12354 c -0.542685,-1.4252 -0.427821,-1.54006 0.559795,-0.5598 0.683418,0.67834 0.990671,1.48524 0.682784,1.79313 -0.307887,0.30789 -0.867048,-0.24711 -1.242579,-1.23333 z m -56,-0.58626 c 0.375531,-0.98622 0.934692,-1.54122 1.242579,-1.23333 0.307887,0.30789 6.34e-4,1.11479 -0.682784,1.79313 -0.987616,0.98026 -1.10248,0.8654 -0.559795,-0.5598 z m 176.999997,-0.41374 c -0.54268,-1.4252 -0.42782,-1.54006 0.5598,-0.5598 0.68342,0.67834 0.99067,1.48524 0.68278,1.79313 -0.30789,0.30789 -0.86705,-0.24711 -1.24258,-1.23333 z m -96.75179,0.0238 c 0.72187,-0.28887 1.58437,-0.25335 1.91667,0.0789 0.33229,0.33229 -0.25834,0.56864 -1.3125,0.52522 -1.16495,-0.048 -1.4019,-0.28494 -0.60417,-0.60416 z m 25.69082,-2.01548 c 0.98078,-3.60097 1.20234,-11.36529 0.33953,-11.89853 -0.44083,-0.27245 -1.71082,-0.009 -2.82218,0.58606 -1.11137,0.59478 -2.02067,0.85643 -2.02067,0.58143 0,-1.14145 3.98095,-2.51491 5.54727,-1.91386 1.42067,0.54517 1.58883,1.52838 1.04817,6.12857 -0.35419,3.01358 -1.10454,6.20726 -1.66746,7.09708 -0.82929,1.31088 -0.90986,1.20069 -0.42466,-0.58075 z m -13.93903,-1.59454 c 0.37553,-0.98622 0.93469,-1.54122 1.24258,-1.23333 0.30789,0.30789 6.4e-4,1.11479 -0.68278,1.79313 -0.98762,0.98026 -1.10248,0.8654 -0.5598,-0.5598 z m 47.16692,-1.62671 c -0.43497,-1.66335 -0.30483,-2.05378 0.43724,-1.31171 0.5811,0.5811 0.85979,1.64682 0.61931,2.36826 -0.24965,0.74895 -0.70294,0.29565 -1.05655,-1.05655 z M 35.564293,139.70687 c 0.375531,-0.98622 0.934692,-1.54122 1.242579,-1.23333 0.307887,0.30789 6.34e-4,1.11479 -0.682784,1.79313 -0.987616,0.98026 -1.10248,0.8654 -0.559795,-0.5598 z M 84,139.44098 c 0,-0.85746 0.45,-1.2809 1,-0.94098 0.55,0.33992 1,1.04148 1,1.55902 C 86,140.57656 85.55,141 85,141 c -0.55,0 -1,-0.70156 -1,-1.55902 z M 94.872445,137.25 c -1.243871,-1.58606 -1.208501,-1.62143 0.377555,-0.37756 0.9625,0.75485 1.75,1.54235 1.75,1.75 0,0.82304 -0.821186,0.29331 -2.127555,-1.37244 z M 21,136.05902 c 0,-0.51754 0.444846,-1.21592 0.988546,-1.55194 0.56686,-0.35034 0.734507,0.0511 0.393011,0.94098 C 21.716766,137.18048 21,137.49745 21,136.05902 Z m 101.07895,-0.64235 c 0.048,-1.16495 0.28494,-1.4019 0.60416,-0.60417 0.28887,0.72187 0.25335,1.58437 -0.0789,1.91667 -0.3323,0.33229 -0.56864,-0.25834 -0.52522,-1.3125 z m -20.51466,-3.7098 c 0.37553,-0.98622 0.93469,-1.54122 1.24258,-1.23333 0.30789,0.30789 6.4e-4,1.11479 -0.68278,1.79313 -0.98762,0.98026 -1.10248,0.8654 -0.5598,-0.5598 z m 54.94279,-0.69542 c -0.35034,-0.56686 0.0511,-0.7345 0.94098,-0.39301 1.73242,0.66479 2.04939,1.38156 0.61096,1.38156 -0.51754,0 -1.21592,-0.44485 -1.55194,-0.98855 z M 73.8125,129.31689 c 0.721875,-0.28887 1.584375,-0.25335 1.916667,0.0789 0.332291,0.33229 -0.258334,0.56864 -1.3125,0.52522 -1.164943,-0.048 -1.4019,-0.28494 -0.604167,-0.60416 z m 123.75179,-2.02376 c -0.54268,-1.4252 -0.42782,-1.54006 0.5598,-0.5598 0.68342,0.67834 0.99067,1.48524 0.68278,1.79313 -0.30789,0.30789 -0.86705,-0.24711 -1.24258,-1.23333 z M 67.733333,123.87591 c 0.678334,-0.68342 1.485241,-0.99067 1.793128,-0.68278 0.307888,0.30789 -0.247112,0.86705 -1.233333,1.24258 -1.425198,0.54268 -1.540062,0.42782 -0.559795,-0.5598 z m 45.079167,-2.55902 c 0.72187,-0.28887 1.58437,-0.25335 1.91667,0.0789 0.33229,0.3323 -0.25834,0.56864 -1.3125,0.52522 -1.16495,-0.048 -1.4019,-0.28494 -0.60417,-0.60416 z M 140,118.05902 c 0,-0.51754 0.44485,-1.21592 0.98855,-1.55194 0.56686,-0.35034 0.7345,0.0511 0.39301,0.94098 C 140.71677,119.18048 140,119.49745 140,118.05902 Z m -108,-1 c 0,-0.51754 0.444846,-1.21592 0.988546,-1.55194 0.56686,-0.35034 0.734507,0.0511 0.393011,0.94098 C 32.716766,118.18048 32,118.49745 32,117.05902 Z m 94.27103,-0.15089 c 0.97407,-0.56708 1.46704,-1.52292 1.09549,-2.1241 -0.41472,-0.67103 -0.21104,-0.80597 0.52753,-0.34951 1.40292,0.86705 -0.34096,3.587 -2.26649,3.53507 -0.62016,-0.0167 -0.3306,-0.49438 0.64347,-1.06146 z m 48.18785,-0.97466 c -0.36253,-0.58659 -0.44468,-1.281 -0.18255,-1.54313 0.26212,-0.26213 0.74306,0.21781 1.06875,1.06653 0.67618,1.76211 0.0999,2.07206 -0.8862,0.4766 z m -91.999999,-1 c -0.362533,-0.58659 -0.444683,-1.281 -0.182555,-1.54313 0.262128,-0.26213 0.743066,0.21781 1.068751,1.06653 0.676184,1.76211 0.09985,2.07206 -0.886196,0.4766 z M 91.872445,112.25 c -1.269516,-1.61876 -1.222451,-1.63998 0.627555,-0.28297 1.1,0.80687 2.1875,1.59437 2.416667,1.75 0.229166,0.15563 -0.05323,0.28297 -0.627556,0.28297 -0.574322,0 -1.661822,-0.7875 -2.416666,-1.75 z M 131,113.62244 c 0,-0.20765 0.7875,-0.99515 1.75,-1.75 1.58606,-1.24387 1.62143,-1.2085 0.37756,0.37756 C 131.82119,113.91575 131,114.44548 131,113.62244 Z m 11,-1.06342 c 0,-0.79254 0.40803,-1.69316 0.90674,-2.00138 0.49871,-0.30822 0.67122,0.34022 0.38337,1.44098 C 142.6795,114.33361 142,114.62877 142,112.55902 Z M 105.5,109 c 0.33992,-0.55 1.06803,-1 1.61803,-1 0.55,0 0.72189,0.45 0.38197,1 -0.33992,0.55 -1.06803,1 -1.61803,1 -0.55,0 -0.72189,-0.45 -0.38197,-1 z m 11.5,0 c 0,-0.55 0.47656,-1 1.05902,-1 0.58246,0 0.7809,0.45 0.44098,1 -0.33992,0.55 -0.81648,1 -1.05902,1 C 117.19844,110 117,109.55 117,109 Z m 53.45888,-0.0665 c -0.36253,-0.58659 -0.44468,-1.281 -0.18255,-1.54313 0.26212,-0.26213 0.74306,0.21781 1.06875,1.06653 0.67618,1.76211 0.0999,2.07206 -0.8862,0.4766 z m 16.10541,-0.64034 c -0.54268,-1.4252 -0.42782,-1.54006 0.5598,-0.5598 0.68342,0.67834 0.99067,1.48524 0.68278,1.79313 -0.30789,0.30789 -0.86705,-0.24711 -1.24258,-1.23333 z M 54.564293,106.70687 c 0.375531,-0.98622 0.934692,-1.54122 1.242579,-1.23333 0.307887,0.30789 6.34e-4,1.11479 -0.682784,1.79313 -0.987616,0.98026 -1.10248,0.8654 -0.559795,-0.5598 z M 136,106.05902 c 0,-0.51754 0.44485,-1.21592 0.98855,-1.55194 0.56686,-0.35034 0.7345,0.0511 0.39301,0.94098 C 136.71677,107.18048 136,107.49745 136,106.05902 Z m -49.435707,-2.76589 c -0.542685,-1.4252 -0.427821,-1.54006 0.559795,-0.5598 0.683418,0.67834 0.990671,1.48524 0.682784,1.79313 -0.307887,0.30789 -0.867048,-0.24711 -1.242579,-1.23333 z m -28,-3.586258 c 0.375531,-0.986221 0.934692,-1.541221 1.242579,-1.233333 0.307887,0.307887 6.34e-4,1.114794 -0.682784,1.793131 -0.987616,0.98026 -1.10248,0.8654 -0.559795,-0.559798 z M 139.27236,94 c 0,-2.475 0.19502,-3.4875 0.43337,-2.25 0.23836,1.2375 0.23836,3.2625 0,4.5 -0.23835,1.2375 -0.43337,0.225 -0.43337,-2.25 z m 40.29193,2.293128 c -0.54268,-1.425198 -0.42782,-1.540062 0.5598,-0.559795 0.68342,0.678334 0.99067,1.485241 0.68278,1.793128 -0.30789,0.307888 -0.86705,-0.247112 -1.24258,-1.233333 z M 62.564293,92.706872 c 0.375531,-0.986221 0.934692,-1.541221 1.242579,-1.233333 0.307887,0.307887 6.34e-4,1.114794 -0.682784,1.793128 -0.987616,0.980267 -1.10248,0.865403 -0.559795,-0.559795 z m 96.894587,-2.773403 c -0.36253,-0.586592 -0.44468,-1.281 -0.18255,-1.543128 0.26212,-0.262129 0.74306,0.21781 1.06875,1.066531 0.67618,1.762107 0.0999,2.072058 -0.8862,0.476597 z m -20.89459,-5.226597 c 0.37553,-0.986221 0.93469,-1.541221 1.24258,-1.233333 0.30789,0.307887 6.4e-4,1.114794 -0.68278,1.793128 -0.98762,0.980267 -1.10248,0.865403 -0.5598,-0.559795 z m 30,-7.413744 c -0.54268,-1.425198 -0.42782,-1.540062 0.5598,-0.559795 0.68342,0.678334 0.99067,1.485241 0.68278,1.793128 -0.30789,0.307888 -0.86705,-0.247112 -1.24258,-1.233333 z M 58,72.059017 c 0,-0.517541 0.444846,-1.215913 0.988546,-1.551938 0.56686,-0.350339 0.734507,0.05106 0.393011,0.940983 C 58.716766,73.180479 58,73.497449 58,72.059017 Z m 90.45888,-1.125548 c -0.36253,-0.586592 -0.44468,-1.281 -0.18255,-1.543128 0.26212,-0.262129 0.74306,0.21781 1.06875,1.066531 0.67618,1.762107 0.0999,2.072058 -0.8862,0.476597 z M 65,60.059017 c 0,-0.517541 0.444846,-1.215913 0.988546,-1.551938 0.56686,-0.350339 0.734507,0.05106 0.393011,0.940983 C 65.716766,61.180479 65,61.497449 65,60.059017 Z m 16.564293,-0.352145 c 0.375531,-0.986221 0.934692,-1.541221 1.242579,-1.233333 0.307887,0.307887 6.34e-4,1.114794 -0.682784,1.793128 -0.987616,0.980267 -1.10248,0.865403 -0.559795,-0.559795 z m 75.999997,-1.413744 c -0.54268,-1.425198 -0.42782,-1.540062 0.5598,-0.559795 0.68342,0.678334 0.99067,1.485241 0.68278,1.793128 -0.30789,0.307888 -0.86705,-0.247112 -1.24258,-1.233333 z M 85.564293,52.706872 c 0.375531,-0.986221 0.934692,-1.541221 1.242579,-1.233333 0.307887,0.307887 6.34e-4,1.114794 -0.682784,1.793128 -0.987616,0.980267 -1.10248,0.865403 -0.559795,-0.559795 z m 64.999997,-6.413744 c -0.54268,-1.425198 -0.42782,-1.540062 0.5598,-0.559795 0.68342,0.678334 0.99067,1.485241 0.68278,1.793128 -0.30789,0.307888 -0.86705,-0.247112 -1.24258,-1.233333 z M 89.564293,45.706872 c 0.375531,-0.986221 0.934692,-1.541221 1.242579,-1.233333 0.307887,0.307887 6.34e-4,1.114794 -0.682784,1.793128 -0.987616,0.980267 -1.10248,0.865403 -0.559795,-0.559795 z M 76,41.059017 c 0,-0.517541 0.444846,-1.215913 0.988546,-1.551938 0.56686,-0.350339 0.734507,0.05106 0.393011,0.940983 C 76.716766,42.180479 76,42.497449 76,41.059017 Z m 70.56429,-1.765889 c -0.54268,-1.425198 -0.42782,-1.540062 0.5598,-0.559795 0.68342,0.678334 0.99067,1.485241 0.68278,1.793128 -0.30789,0.307888 -0.86705,-0.247112 -1.24258,-1.233333 z M 93.564293,38.706872 c 0.375531,-0.986221 0.934692,-1.541221 1.242579,-1.233333 0.307887,0.307887 6.34e-4,1.114794 -0.682784,1.793128 -0.987616,0.980267 -1.10248,0.865403 -0.559795,-0.559795 z m 35.894587,-0.773403 c -0.36253,-0.586592 -0.44468,-1.281 -0.18255,-1.543128 0.26212,-0.262129 0.74306,0.21781 1.06875,1.066531 0.67618,1.762107 0.0999,2.072058 -0.8862,0.476597 z M 99,29.622445 c 0,-0.207656 0.7875,-0.995156 1.75,-1.75 1.58606,-1.243871 1.62143,-1.208501 0.37756,0.377555 C 99.821186,29.915748 99,30.445479 99,29.622445 Z m 40.62354,-2.161104 c -0.96498,-2.514694 -0.68031,-3.163555 0.49853,-1.136338 0.58369,1.003751 0.8506,2.035659 0.59313,2.293128 -0.25747,0.257469 -0.74872,-0.263087 -1.09166,-1.15679 z M 104,25.606989 c 0,-0.216156 0.69837,-0.661002 1.55194,-0.988546 0.88992,-0.341496 1.29132,-0.173849 0.94098,0.393011 C 105.90566,25.961658 104,26.416902 104,25.606989 Z m 7.26903,-2.29998 c 0.97297,-0.253543 2.32297,-0.236869 3,0.03705 0.67703,0.273923 -0.11903,0.481368 -1.76903,0.460988 -1.65,-0.02038 -2.20394,-0.244498 -1.23097,-0.498042 z M 133.40499,18.75 C 131.5,16.5 131.5,16.5 133.75,18.404988 135.86444,20.195206 136.45524,21 135.65499,21 c -0.18976,0 -1.20226,-1.0125 -2.25,-2.25 z M 125,13 c -0.825,-0.533156 -1.05,-0.969374 -0.5,-0.969374 0.55,0 1.675,0.436218 2.5,0.969374 0.825,0.533156 1.05,0.969374 0.5,0.969374 -0.55,0 -1.675,-0.436218 -2.5,-0.969374 z m -8.1875,-2.683114 c 0.72187,-0.288871 1.58437,-0.253344 1.91667,0.07895 0.33229,0.332292 -0.25834,0.568641 -1.3125,0.52522 -1.16495,-0.04798 -1.4019,-0.284941 -0.60417,-0.604167 z"
         id="path30"
         inkscape:connector-curvature="0" />
      <path
         style="fill:#101010;fill-opacity:1"
         d="m 69.175307,210.25038 c 22.371419,-0.14998 59.271423,-0.15004 82.000003,-1.3e-4 22.72858,0.1499 4.42469,0.27261 -40.67531,0.27268 -45.1,8e-5 -63.696112,-0.12257 -41.324693,-0.27255 z m 124.637193,0.0665 c 0.72187,-0.28887 1.58437,-0.25335 1.91667,0.0789 0.33229,0.33229 -0.25834,0.56864 -1.3125,0.52522 -1.16495,-0.048 -1.4019,-0.28494 -0.60417,-0.60416 z M 213,202.5 c 1.29175,-1.375 2.57363,-2.5 2.84863,-2.5 0.275,0 -0.55688,1.125 -1.84863,2.5 -1.29175,1.375 -2.57363,2.5 -2.84863,2.5 -0.275,0 0.55688,-1.125 1.84863,-2.5 z M 71.824489,196.25026 c 22.178469,-0.15019 58.178471,-0.15013 80.000001,1.4e-4 21.82153,0.15026 3.67551,0.27315 -40.32449,0.27307 -44,-7e-5 -61.85398,-0.12302 -39.675511,-0.27321 z M 19.872445,191.25 c -1.243871,-1.58606 -1.208501,-1.62143 0.377555,-0.37756 0.9625,0.75485 1.75,1.54235 1.75,1.75 0,0.82304 -0.821186,0.29331 -2.127555,-1.37244 z M 137.75,184.33772 c 0.6875,-0.27741 1.8125,-0.27741 2.5,0 0.6875,0.27741 0.125,0.50439 -1.25,0.50439 -1.375,0 -1.9375,-0.22698 -1.25,-0.50439 z M 144,184 c 0.825,-0.53316 2.175,-0.96937 3,-0.96937 1.33333,0 1.33333,0.1077 0,0.96937 -0.825,0.53316 -2.175,0.96937 -3,0.96937 -1.33333,0 -1.33333,-0.1077 0,-0.96937 z m -15.56269,-27.77065 c 0.34132,-0.34131 1.32379,-0.72378 2.18327,-0.84993 0.85947,-0.12614 1.28342,0.0499 0.94211,0.39123 -0.34132,0.34131 -1.32379,0.72378 -2.18327,0.84993 -0.85947,0.12614 -1.28342,-0.0499 -0.94211,-0.39123 z m 4.1054,-3.16025 c -0.31644,-0.512 -0.19299,-1.1672 0.27431,-1.45601 0.46731,-0.28881 0.84965,0.13009 0.84965,0.9309 0,1.68617 -0.31534,1.83349 -1.12396,0.52511 z M 125,140.62244 c 0,-0.20765 0.7875,-0.99515 1.75,-1.75 1.58606,-1.24387 1.62143,-1.2085 0.37756,0.37756 C 125.82119,140.91575 125,141.44548 125,140.62244 Z M 56,137.5 c 1.291745,-1.375 2.573628,-2.5 2.848628,-2.5 0.275,0 -0.556883,1.125 -1.848628,2.5 -1.291745,1.375 -2.573628,2.5 -2.848628,2.5 -0.275,0 0.556883,-1.125 1.848628,-2.5 z m 82.45888,1.43347 c -0.36253,-0.58659 -0.44468,-1.281 -0.18255,-1.54313 0.26212,-0.26213 0.74306,0.21781 1.06875,1.06653 0.67618,1.76211 0.0999,2.07206 -0.8862,0.4766 z m -53.379933,-1.5168 c 0.04798,-1.16495 0.284941,-1.4019 0.604167,-0.60417 0.288871,0.72187 0.253344,1.58437 -0.07895,1.91667 -0.332292,0.33229 -0.568641,-0.25834 -0.52522,-1.3125 z m 16.000003,-3 c 0.048,-1.16495 0.28494,-1.4019 0.60416,-0.60417 0.28887,0.72187 0.25335,1.58437 -0.0789,1.91667 -0.3323,0.33229 -0.56864,-0.25834 -0.52522,-1.3125 z M 163.87244,130.25 c -1.24387,-1.58606 -1.2085,-1.62143 0.37756,-0.37756 0.9625,0.75485 1.75,1.54235 1.75,1.75 0,0.82304 -0.82119,0.29331 -2.12756,-1.37244 z M 103,129.62244 c 0,-0.20765 0.7875,-0.99515 1.75,-1.75 1.58606,-1.24387 1.62143,-1.2085 0.37756,0.37756 C 103.82119,129.91575 103,130.44548 103,129.62244 Z m -21.1875,-9.30555 c 0.721875,-0.28887 1.584375,-0.25335 1.916667,0.0789 0.332291,0.3323 -0.258334,0.56864 -1.3125,0.52522 -1.164943,-0.048 -1.4019,-0.28494 -0.604167,-0.60416 z m 60,0 c 0.72187,-0.28887 1.58437,-0.25335 1.91667,0.0789 0.33229,0.3323 -0.25834,0.56864 -1.3125,0.52522 -1.16495,-0.048 -1.4019,-0.28494 -0.60417,-0.60416 z M 85.078947,91.416667 c 0.04798,-1.164943 0.284941,-1.4019 0.604167,-0.604167 0.288871,0.721875 0.253344,1.584375 -0.07895,1.916667 -0.332292,0.332291 -0.568641,-0.258334 -0.52522,-1.3125 z M 87,80.59106 C 87,80.400666 87.675,79.684689 88.5,79 89.364593,78.282451 90,78.185262 90,78.770566 c 0,0.558501 -0.675,1.274478 -1.5,1.59106 -0.825,0.316583 -1.5,0.419828 -1.5,0.229434 z"
         id="path28"
         inkscape:connector-curvature="0" />
      <path
         style="fill:#101010;fill-opacity:1"
         d="m 71.8125,183.31689 c 0.721875,-0.28887 1.584375,-0.25335 1.916667,0.0789 0.332291,0.33229 -0.258334,0.56864 -1.3125,0.52522 -1.164943,-0.048 -1.4019,-0.28494 -0.604167,-0.60416 z m 76.9375,0.0208 c 0.6875,-0.27741 1.8125,-0.27741 2.5,0 0.6875,0.27741 0.125,0.50439 -1.25,0.50439 -1.375,0 -1.9375,-0.22698 -1.25,-0.50439 z M 133.064,76.694671 130.62799,73.5 133.814,76.437091 c 3.31459,3.055633 3.69286,3.600301 2.436,3.50758 -0.4125,-0.03043 -1.8462,-1.492931 -3.186,-3.25 z"
         id="path26"
         inkscape:connector-curvature="0" />
    </g>
  </g>
</svg>
