<?xml version="1.0" encoding="UTF-8" standalone="no"?>
<svg
   xmlns:dc="http://purl.org/dc/elements/1.1/"
   xmlns:cc="http://creativecommons.org/ns#"
   xmlns:rdf="http://www.w3.org/1999/02/22-rdf-syntax-ns#"
   xmlns:svg="http://www.w3.org/2000/svg"
   xmlns="http://www.w3.org/2000/svg"
   xmlns:sodipodi="http://sodipodi.sourceforge.net/DTD/sodipodi-0.dtd"
   xmlns:inkscape="http://www.inkscape.org/namespaces/inkscape"
   version="1.1"
   id="svg12"
   width="15mm"
   height="15mm"
   viewBox="0 0 56.692898 56.692906"
   sodipodi:docname="ThreatImage.svg"
   inkscape:export-filename="C:\dev\ELTA\GitClones\TRADES\bundles\dsm.TRADES.edit\icons\custom\Threat.png"
   inkscape:export-xdpi="27.093334"
   inkscape:export-ydpi="27.093334"
   inkscape:version="0.92.4 (5da689c313, 2019-01-14)">
  <metadata
     id="metadata18">
    <rdf:RDF>
      <cc:Work
         rdf:about="">
        <dc:format>image/svg+xml</dc:format>
        <dc:type
           rdf:resource="http://purl.org/dc/dcmitype/StillImage" />
        <dc:title />
      </cc:Work>
    </rdf:RDF>
  </metadata>
  <defs
     id="defs16" />
  <sodipodi:namedview
     pagecolor="#ffffff"
     bordercolor="#666666"
     borderopacity="1"
     objecttolerance="10"
     gridtolerance="10"
     guidetolerance="10"
     inkscape:pageopacity="0"
     inkscape:pageshadow="2"
     inkscape:window-width="1920"
     inkscape:window-height="1017"
     id="namedview14"
     showgrid="false"
     inkscape:zoom="13.066667"
     inkscape:cx="31.243274"
     inkscape:cy="31.726726"
     inkscape:window-x="-8"
     inkscape:window-y="-8"
     inkscape:window-maximized="1"
     inkscape:current-layer="g20"
     inkscape:document-rotation="0"
     units="mm"
     width="249mm" />
  <g
     inkscape:groupmode="layer"
     inkscape:label="Image"
     id="g20">
    <path
       inkscape:connector-curvature="0"
       id="path32-5"
       d="m 7.9348246,51.710143 c -2.141738,-0.590023 -4.222634,-2.089715 -5.067254,-3.951821 -0.962789,-1.694195 -0.690013,-4.022815 -0.116013,-5.861373 0.661765,-1.709031 1.424508,-2.871493 2.492556,-4.44975 0.656883,-1.716856 1.784088,-3.081302 2.731399,-4.740515 0.612935,-1.616134 1.83028,-2.956058 2.5903564,-4.595677 0.737329,-1.561458 1.940636,-2.928491 2.590355,-4.595678 1.090388,-1.464796 1.591061,-2.863392 2.691385,-4.392901 0.809868,-1.456622 1.668865,-3.239929 2.678172,-4.467713 0.677369,-1.56175 1.683814,-3.199 2.599697,-4.621844 0.989422,-1.697059 1.939483,-3.5406044 3.782265,-4.4884876 1.968586,-0.7997633 4.374513,-0.9010947 6.145485,-0.2376724 1.953524,0.799886 3.232538,2.7825151 4.287711,4.605908 1.184155,1.430551 1.652364,2.967966 2.776896,4.430537 0.60985,1.676954 1.841251,3.041962 2.590356,4.595677 0.795202,1.533289 1.804209,3.063392 2.565006,4.432325 0.795835,1.545611 1.785134,2.892931 2.514678,4.427532 1.013917,1.573254 1.772766,2.851333 2.593049,4.455377 1.009135,1.5751 1.771422,2.851081 2.590356,4.455378 1.166617,1.72065 1.820592,3.148336 2.884187,4.949992 0.685018,1.958146 1.014906,4.581435 -0.256527,6.22825 -1.129549,2.6238 -4.297102,4.075988 -7.101944,3.797513 -12.852326,0.107365 -25.71162,0.235812 -38.5621714,0.02494 z M 48.429039,48.344722 c 1.684285,-0.791683 3.651274,-3.055174 2.522536,-4.806637 -0.601471,-1.668959 -1.760679,-3.182587 -2.595367,-4.6818 -0.858199,-1.745687 -2.01968,-3.249293 -2.857994,-5.16741 -1.113987,-1.429968 -1.825024,-3.081527 -2.768064,-4.728525 -0.909092,-1.260893 -1.535956,-2.512067 -2.257446,-3.903521 -1.059446,-1.4599 -1.819499,-3.22641 -2.730141,-4.464081 -0.801842,-1.553871 -1.789067,-3.201828 -2.573622,-4.482337 -1.002248,-1.885213 -2.149967,-3.713019 -3.182963,-5.592182 -0.791881,-1.99331 -4.257007,-3.6444228 -5.943141,-1.586477 -1.082051,0.546395 -1.530097,1.860215 -2.218105,3.099975 -1.174979,1.699739 -2.023278,3.505659 -3.074055,5.233695 -0.777276,1.504601 -1.753094,2.634605 -2.276437,4.163418 -1.10047,0.993477 -1.327338,2.65452 -2.39475,3.779612 -0.945132,1.898676 -2.04863,3.614562 -3.035701,5.440558 -0.811008,1.048015 -1.364726,2.578276 -2.205132,3.715499 -1.1131034,2.089537 -2.4537514,4.027087 -3.4327044,6.163509 -0.866748,1.468696 -2.143222,2.733885 -1.946171,4.607362 0.315866,1.326774 1.267973,2.788006 2.446557,2.940392 1.580876,1.13024 4.0915264,0.282614 6.0454504,0.558772 11.491298,-0.0211 22.99209,0.06244 34.47725,-0.289822 z M 33.879071,45.573611 c -1.368697,-0.255718 -2.622643,-0.676075 -3.626962,-1.715041 -0.825815,-0.702384 -2.673657,-2.869873 -3.109515,-0.944974 -0.913849,1.118712 -2.467325,1.897573 -3.507203,2.350263 -1.035961,0.315035 -3.947156,0.700815 -1.530665,-0.339837 1.394102,-0.406085 2.348828,-1.66384 3.233206,-2.727531 1.606634,-2.483784 -2.549491,-2.636184 -2.947277,-4.836856 -0.569125,-1.785399 1.384833,1.814881 2.083106,1.983187 2.412677,1.990904 1.620069,-2.858604 0.588415,-3.550953 -0.37801,-0.966688 -1.55449,-1.57022 -2.287049,-2.229797 -0.932189,-0.188003 -1.338896,2.381852 -1.157042,0.155955 -1.059433,-1.923511 -4.622555,-0.688391 -6.11066,0.641708 -0.756848,0.670365 -1.801315,2.383069 -1.006958,0.3187 0.97784,-1.648874 2.492846,-2.845298 4.189699,-3.419296 1.15472,-0.591397 4.056268,0.09837 2.719243,-2.177439 -0.942534,-1.878493 -0.637655,-4.417003 0.224343,-6.017464 1.160363,-2.433109 -0.421941,2.881702 0.799447,3.88342 0.36589,1.1008 1.615291,2.597521 2.300482,2.119937 -0.120411,1.561619 3.363949,2.189966 4.936114,1.712882 1.603713,-0.03698 3.520647,-1.545043 1.08306,-2.351532 0.904459,0.222377 2.219978,1.306525 2.935844,-0.351436 0.656648,-1.473783 1.291671,-2.723521 1.010283,-4.441247 -0.387905,-0.956988 -0.66497,-2.747084 0.25012,-0.698512 0.942954,1.429341 1.220254,3.702602 0.471829,5.454963 -1.036248,1.850848 -0.221075,2.752886 1.706388,2.784008 1.93378,0.555677 3.679836,1.894664 4.691151,3.442999 0.368654,1.823072 -1.4299,-1.150644 -2.699342,-1.307236 -1.905916,-0.930069 -4.397939,-0.487946 -6.180702,0.663854 -1.810715,1.272317 -3.333348,3.743584 -2.473321,5.921511 0.92981,-0.249806 1.772924,-0.615126 0.858302,0.26093 -2.117651,0.485346 0.357255,3.179522 1.215181,3.697495 0.602507,0.974728 4.373399,1.985515 1.340483,1.717318 z m -5.180712,-8.85016 c 1.657965,-0.03675 2.792392,-2.520381 1.593745,-3.742956 -1.188512,-1.869582 -4.305028,-1.212568 -4.61,0.96927 -0.136278,1.494833 1.307466,2.652354 2.676198,3.015569 l 0.238367,-0.06233 z m 3.565178,2.393497 c 1.070081,-1.287766 1.144935,-0.640859 0.09389,0.188434 -0.345042,0.535907 -0.383987,-0.0083 -0.09389,-0.188434 z m 1.335894,-1.601868 c 1.047224,-0.172195 -0.133048,0.427459 0,-9e-6 z m 0.235486,-0.468987 c 1.047225,-0.172195 -0.133047,0.427458 0,-9e-6 z M 21.761552,36.050014 c 0.132685,-1.218966 0.642603,0.72643 0,0 z m 4.464195,-7.754491 c 0.01029,-0.943569 0.849269,0.878687 0,0 z m 3.549927,0.0284 c 0.453642,-1.259646 0.96991,0.483683 0,0 z M 27.6543,28.084999 c -0.905694,-0.841843 3.44587,-0.158358 0.700585,0.16612 l -0.317441,-0.03909 z m -5.358241,-6.515482 c 1.047226,-0.172186 -0.13305,0.427477 0,0 z"
       style="fill:#101010;fill-opacity:1;stroke-width:0.2349897" />
  </g>
</svg>
