<?xml version="1.0" encoding="UTF-8" standalone="no"?>
<!-- Created with Inkscape (http://www.inkscape.org/) -->

<svg
   xmlns:dc="http://purl.org/dc/elements/1.1/"
   xmlns:cc="http://creativecommons.org/ns#"
   xmlns:rdf="http://www.w3.org/1999/02/22-rdf-syntax-ns#"
   xmlns:svg="http://www.w3.org/2000/svg"
   xmlns="http://www.w3.org/2000/svg"
   xmlns:sodipodi="http://sodipodi.sourceforge.net/DTD/sodipodi-0.dtd"
   xmlns:inkscape="http://www.inkscape.org/namespaces/inkscape"
   width="64mm"
   height="64mm"
   viewBox="0 0 63.999999 64.000001"
   version="1.1"
   id="svg1638"
   inkscape:version="0.92.4 (5da689c313, 2019-01-14)"
   sodipodi:docname="icon.svg"
   inkscape:export-filename="C:\dev\ELTA\GitClones\TRADES\bundles\dsm.TRADES.branding\icons\logo_128.png"
   inkscape:export-xdpi="50.799999"
   inkscape:export-ydpi="50.799999">
  <defs
     id="defs1632" />
  <sodipodi:namedview
     id="base"
     pagecolor="#ffffff"
     bordercolor="#666666"
     borderopacity="1.0"
     inkscape:pageopacity="0.0"
     inkscape:pageshadow="2"
     inkscape:zoom="1.979899"
     inkscape:cx="-60.572599"
     inkscape:cy="158.77316"
     inkscape:document-units="mm"
     inkscape:current-layer="layer1"
     showgrid="false"
     inkscape:window-width="1920"
     inkscape:window-height="1017"
     inkscape:window-x="-8"
     inkscape:window-y="-8"
     inkscape:window-maximized="1"
     fit-margin-top="0"
     fit-margin-left="0"
     fit-margin-right="0"
     fit-margin-bottom="0" />
  <metadata
     id="metadata1635">
    <rdf:RDF>
      <cc:Work
         rdf:about="">
        <dc:format>image/svg+xml</dc:format>
        <dc:type
           rdf:resource="http://purl.org/dc/dcmitype/StillImage" />
        <dc:title />
      </cc:Work>
    </rdf:RDF>
  </metadata>
  <g
     inkscape:label="Calque 1"
     inkscape:groupmode="layer"
     id="layer1"
     transform="translate(-43.054958,-114.97047)">
    <g
       id="g829"
       transform="translate(86.656618,19.983923)">
      <g
         style="fill:#03488d;fill-opacity:1;stroke-width:0.04416192;stroke-miterlimit:4;stroke-dasharray:none"
         transform="matrix(0.59033222,0,0,0.60804057,-41.04821,96.584519)"
         id="g6">
        <path
           style="fill:#03488d;fill-opacity:1;stroke-width:0.04416192;stroke-miterlimit:4;stroke-dasharray:none"
           inkscape:connector-curvature="0"
           id="path2"
           d="M 92.3,76.3 67.5,53.6 C 70,48.9 71.3,43.7 71.3,38.2 71.3,29.3 67.8,21 61.6,14.7 55.3,8.5 47,5 38.1,5 29.2,5 20.9,8.5 14.6,14.7 8.3,21 4.9,29.3 4.9,38.2 c 0,8.9 3.5,17.2 9.7,23.5 6.3,6.3 14.6,9.7 23.5,9.7 5.5,0 10.7,-1.3 15.4,-3.8 l 22.6,24.7 0.1,0.1 c 1.6,1.6 3.8,2.6 6.2,2.6 2.3,0 4.5,-0.9 6.2,-2.6 l 3.8,-3.8 c 3.3,-3.3 3.3,-8.9 -0.1,-12.3 z M 18.4,57.9 c -5.3,-5.3 -8.2,-12.3 -8.2,-19.7 0,-7.4 2.9,-14.4 8.2,-19.7 5.3,-5.3 12.3,-8.2 19.7,-8.2 7.4,0 14.4,2.9 19.7,8.2 5.3,5.3 8.2,12.3 8.2,19.7 0,7.4 -2.9,14.4 -8.2,19.7 -5.3,5.3 -12.3,8.2 -19.7,8.2 -7.5,0 -14.5,-2.9 -19.7,-8.2 z m 46.9,0.9 3.5,3.2 -6.9,7 -3.2,-3.5 z m 23.3,26.1 -3.8,3.8 c -0.6,0.6 -1.5,1 -2.4,1 -0.9,0 -1.7,-0.3 -2.4,-1 L 64.5,71.8 71.7,64.6 88.6,80.1 c 1.3,1.3 1.3,3.5 0,4.8 z" />
      </g>
      <path
         style="fill:#03488d;fill-opacity:1;stroke:#03488d;stroke-width:0.13229166;stroke-miterlimit:4;stroke-dasharray:none;stroke-opacity:1"
         d="m -26.86789,130.95649 c -0.279781,-0.0485 -0.526825,-0.1722 -0.683826,-0.34241 -0.235834,-0.25568 -0.318561,-0.37988 -0.341929,-0.51337 -0.01196,-0.0683 -0.03652,-0.14455 -0.05459,-0.16953 -0.05683,-0.0786 0.01019,-0.81918 0.0863,-0.95392 0.03731,-0.066 0.06789,-0.15153 0.06797,-0.19001 7.6e-5,-0.0385 0.0168,-0.07 0.03718,-0.07 0.02037,0 0.03704,-0.0248 0.03704,-0.0551 0,-0.0303 0.025,-0.0775 0.05556,-0.10484 0.03056,-0.0274 0.05556,-0.0821 0.05556,-0.1215 0,-0.0395 0.01249,-0.0777 0.02778,-0.085 0.04049,-0.0194 0.194447,-0.26334 0.194447,-0.30806 0,-0.021 0.05834,-0.13372 0.129633,-0.25058 0.0713,-0.11685 0.129632,-0.23398 0.129632,-0.26028 0,-0.0263 0.04167,-0.10127 0.09259,-0.16659 0.05093,-0.0653 0.09259,-0.1345 0.09259,-0.15371 0,-0.0192 0.04227,-0.10206 0.09393,-0.18412 0.05166,-0.0821 0.08241,-0.14921 0.06834,-0.14921 -0.01408,0 0.0028,-0.0338 0.03744,-0.0752 0.03467,-0.0413 0.09753,-0.1448 0.139693,-0.22987 0.158834,-0.32053 0.22062,-0.43799 0.291663,-0.55448 0.04023,-0.066 0.106175,-0.19402 0.146545,-0.28457 0.04037,-0.0905 0.0986,-0.18719 0.129389,-0.21478 0.03079,-0.0276 0.05599,-0.074 0.05599,-0.10322 0,-0.0292 0.04583,-0.13043 0.101854,-0.22499 0.154234,-0.26032 0.184529,-0.31656 0.275664,-0.51173 0.04621,-0.0989 0.121833,-0.23557 0.168066,-0.30361 0.04623,-0.068 0.08406,-0.1443 0.08406,-0.16947 0,-0.0252 -0.0947,-0.23036 -0.210434,-0.45598 -0.810633,-1.58022 -1.375786,-3.47291 -1.656453,-5.54745 -0.24007,-1.77445 -0.270381,-4.06354 -0.07621,-5.75514 0.07807,-0.68012 0.04097,-0.6549 1.009803,-0.68645 0.798309,-0.026 0.974426,-0.0407 1.655527,-0.13814 1.209069,-0.17298 2.476413,-0.52976 3.619127,-1.01883 0.818084,-0.35014 2.15537,-1.11037 2.421485,-1.37658 0.0704,-0.0704 0.141833,-0.1 0.24157,-0.1 0.149352,0 0.246087,0.0492 0.606843,0.30856 1.327799,0.95466 3.42718,1.79459 5.314919,2.1264 0.831079,0.14608 1.839787,0.2436 2.5197706,0.2436 0.318572,0 0.450446,0.0448 0.533281,0.18129 0.127723,0.21041 0.263301,2.37852 0.223663,3.57669 -0.10092,3.05053 -0.629864,5.55546 -1.6208476,7.67588 -1.326255,2.8378 -3.381803,4.81482 -6.137435,5.90298 -0.446953,0.1765 -1.318848,0.4536 -1.427226,0.4536 -0.08628,0 -0.126746,0.0885 -0.128011,0.27985 -7.94e-4,0.1367 -0.162729,0.47018 -0.307205,0.63305 -0.06549,0.0738 -0.198226,0.18351 -0.29496,0.24372 -0.09674,0.0602 -0.168363,0.11759 -0.159174,0.12751 0.02936,0.0317 -0.0873,0.0385 -1.239051,0.0725 -1.381184,0.0407 -6.1771,0.043 -6.407534,0.003 z m 5.444554,-0.59476 c 1.478015,-0.02 1.889831,-0.0368 1.962999,-0.08 0.127809,-0.0755 0.370379,-0.33083 0.370379,-0.38985 0,-0.0267 0.01831,-0.0551 0.04068,-0.0632 0.06448,-0.0232 0.08762,-0.36713 0.02807,-0.41726 -0.02763,-0.0233 -0.233571,-0.11114 -0.457649,-0.19527 -0.991331,-0.37222 -2.107814,-0.97946 -2.801313,-1.5236 -0.0944,-0.0741 -0.184992,-0.13467 -0.201322,-0.13467 -0.04995,0 -0.201131,0.17052 -0.201131,0.22685 0,0.0292 -0.01439,0.053 -0.03197,0.053 -0.04572,0 -0.167257,0.43581 -0.163693,0.58697 0.0043,0.18144 0.03964,0.22429 0.163116,0.19764 0.139663,-0.0301 0.136869,0.008 -0.0045,0.0609 -0.079,0.0297 -0.111112,0.0678 -0.111112,0.13165 0,0.12068 0.271465,0.56807 0.363911,0.59974 0.04053,0.0139 0.08305,0.0516 0.09448,0.0837 0.01143,0.0321 0.0463,0.0584 0.0775,0.0584 0.03119,0 0.05672,0.019 0.05672,0.0423 0,0.0233 0.01297,0.0337 0.02881,0.0231 0.01585,-0.0106 0.07002,0.0149 0.120373,0.0567 0.111762,0.0927 0.05837,0.0997 -0.229696,0.03 -0.251105,-0.0607 -0.444426,-0.19055 -0.683247,-0.45883 -0.104317,-0.11719 -0.216035,-0.21308 -0.248258,-0.21308 -0.03222,0 -0.11181,0.0715 -0.176858,0.15886 -0.14319,0.19233 -0.545754,0.46159 -0.774129,0.51779 -0.182546,0.0449 -0.355079,0.0537 -0.259281,0.0132 0.137774,-0.0583 0.560814,-0.37831 0.582486,-0.44066 0.01323,-0.0381 0.04654,-0.0875 0.07401,-0.10975 0.02747,-0.0223 0.07311,-0.11223 0.101423,-0.1999 0.04438,-0.13739 0.04407,-0.17179 -0.0021,-0.24933 -0.04564,-0.0765 -0.04588,-0.0899 -0.0016,-0.0899 0.100205,0 0.128688,-0.32054 0.05011,-0.56395 -0.02561,-0.0793 -0.09201,-0.20852 -0.147593,-0.28718 -0.05558,-0.0786 -0.101954,-0.1577 -0.103055,-0.17565 -0.0011,-0.018 -0.08437,-0.0912 -0.185028,-0.16276 l -0.183023,-0.1301 -0.07424,0.0801 -0.07424,0.0801 v -0.0985 c 0,-0.0564 -0.03054,-0.11618 -0.07143,-0.1398 -0.08674,-0.0501 -0.451956,-0.0486 -0.638792,0.003 -0.162631,0.0446 -0.579675,0.37315 -0.624054,0.49165 -0.01728,0.0462 -0.03249,0.0585 -0.03378,0.0274 -0.0013,-0.031 0.04936,-0.14344 0.112557,-0.24974 0.178628,-0.30047 0.521319,-0.56233 0.808963,-0.61815 0.07244,-0.014 0.150789,-0.0418 0.174107,-0.0617 0.02331,-0.0199 0.05665,-0.0334 0.07408,-0.03 0.01741,0.003 0.07783,0.004 0.134236,10e-4 0.09264,-0.004 0.100148,-0.0154 0.07761,-0.11467 -0.01373,-0.0605 -0.03915,-0.11598 -0.05649,-0.12335 -0.01736,-0.007 -0.0217,-0.0306 -0.0096,-0.0517 0.01204,-0.021 -0.0065,-0.12353 -0.04122,-0.22775 -0.05257,-0.15781 -0.05747,-0.24395 -0.02928,-0.51542 l 0.03385,-0.32593 -0.216487,-0.31244 c -0.119068,-0.17184 -0.228151,-0.31678 -0.242404,-0.32209 -0.01426,-0.005 -0.04447,0.0307 -0.06714,0.0799 -0.09639,0.20954 -0.290298,0.57955 -0.371343,0.70857 -0.0481,0.0766 -0.08745,0.15582 -0.08745,0.17613 0,0.0203 -0.04167,0.0959 -0.0926,0.16795 -0.05093,0.0721 -0.09259,0.15702 -0.09259,0.18878 0,0.0318 -0.02357,0.0788 -0.05236,0.10465 -0.0288,0.0258 -0.0913,0.12954 -0.13889,0.23053 -0.145426,0.30859 -0.158687,0.33203 -0.187907,0.33203 -0.01553,0 -0.02826,0.0174 -0.02826,0.0386 0,0.0212 -0.08928,0.20561 -0.198395,0.40978 -0.10912,0.20417 -0.209548,0.40932 -0.223174,0.4559 -0.01363,0.0466 -0.05768,0.11682 -0.0979,0.15611 -0.04022,0.0393 -0.07313,0.0968 -0.07313,0.12788 0,0.031 -0.04365,0.1182 -0.09699,0.19369 -0.05335,0.0755 -0.08524,0.13726 -0.07087,0.13726 0.01437,0 -0.02532,0.0755 -0.0882,0.16779 -0.06287,0.0923 -0.114316,0.1804 -0.114316,0.19581 0,0.0154 -0.06856,0.14982 -0.152345,0.29868 -0.08379,0.14888 -0.15509,0.29014 -0.158451,0.31392 -0.0034,0.0238 -0.01492,0.0612 -0.02566,0.0832 -0.08124,0.16602 0.0484,0.63509 0.215447,0.77958 0.118957,0.10289 0.319278,0.19638 0.454359,0.21204 0.210645,0.0244 3.279373,0.0205 5.296402,-0.007 z m -3.286398,-0.59273 c 0.03604,-0.0101 0.08604,-0.009 0.111112,0.002 0.02508,0.0109 -0.0044,0.0192 -0.06552,0.0184 -0.06111,-7.9e-4 -0.08163,-0.01 -0.04559,-0.0199 z m 0.723733,-1.24414 c -0.05481,-0.0359 -0.118578,-0.11067 -0.141708,-0.16626 -0.03503,-0.0842 -0.01685,-0.0747 0.108911,0.057 0.194241,0.20334 0.198556,0.21772 0.0328,0.1093 z m -0.256931,-0.35728 c -0.04607,-0.0634 -0.04476,-0.0648 0.01397,-0.0151 0.03565,0.0302 0.06482,0.0617 0.06482,0.07 0,0.0329 -0.03042,0.0117 -0.0788,-0.0549 z m -0.180465,-0.49209 c 0,-0.0233 0.01667,-0.0312 0.03704,-0.0176 0.02037,0.0136 0.03704,0.0326 0.03704,0.0423 0,0.01 -0.01667,0.0176 -0.03704,0.0176 -0.02037,0 -0.03704,-0.019 -0.03704,-0.0423 z m 6.942641,0.98667 c 2.846731,-1.02599 4.959993,-3.08265 6.218816,-6.05222 0.91554,-2.15978 1.3943826,-4.79209 1.3943826,-7.66525 0,-0.72311 -0.04852,-1.7743 -0.104156,-2.25652 l -0.02564,-0.22215 -0.6295626,-0.026 c -2.688653,-0.11093 -5.45794,-1.02603 -7.595776,-2.51001 -0.06991,-0.0485 -0.118825,-0.0266 -0.518531,0.23292 -2.06058,1.33766 -4.726186,2.17708 -7.210726,2.2707 -0.628873,0.0237 -0.658906,0.0285 -0.674878,0.10854 -0.104863,0.52531 -0.160735,2.7771 -0.09582,3.8617 0.156859,2.62069 0.668404,4.80785 1.575422,6.73589 0.344096,0.73144 0.387887,0.81624 0.464553,0.89958 0.03056,0.0332 0.08769,0.12337 0.126958,0.20032 0.200882,0.39368 1.066286,1.54257 1.395486,1.85262 0.08953,0.0843 0.287483,0.27995 0.439902,0.43474 0.152418,0.15479 0.314923,0.30003 0.361119,0.32275 0.04619,0.0227 0.08399,0.0564 0.08399,0.0749 0,0.0185 0.025,0.0336 0.05556,0.0336 0.03056,0 0.05556,0.0168 0.05556,0.0373 0,0.0205 0.03387,0.0489 0.07527,0.0631 0.0414,0.0142 0.115638,0.0694 0.164986,0.12263 0.04935,0.0533 0.09702,0.0968 0.105926,0.0968 0.0089,0 0.161144,0.0982 0.338291,0.21826 0.404897,0.27439 1.002146,0.60432 1.482241,0.81882 0.203708,0.091 0.420378,0.19059 0.481491,0.22129 0.06111,0.0307 0.186113,0.0739 0.277783,0.096 0.223983,0.054 0.62651,0.18399 0.740754,0.23918 0.144164,0.0696 0.373065,0.0225 1.016598,-0.20944 z m -1.27875,-2.54291 c -0.707642,-0.22715 -1.429105,-0.5545 -1.635728,-0.74217 -0.05931,-0.0539 -0.145799,-0.0979 -0.192188,-0.0979 -0.04639,0 -0.129305,-0.045 -0.184254,-0.0999 -0.05495,-0.055 -0.10668,-0.0999 -0.114953,-0.0999 -0.06596,0 -0.896821,-0.76187 -1.189675,-1.09089 -0.4977,-0.55915 -1.191337,-1.63717 -1.255123,-1.95065 -0.01455,-0.0715 -0.05388,-0.16182 -0.08739,-0.20065 -0.08011,-0.0928 -0.377941,-0.90963 -0.517392,-1.41896 -0.398145,-1.45421 -0.576324,-3.19118 -0.49044,-4.78105 0.0527,-0.97556 0.08535,-1.18473 0.202269,-1.29587 0.07799,-0.0741 0.153794,-0.087 0.657545,-0.11197 1.810218,-0.0896 3.50729,-0.62162 4.792988,-1.50265 0.239916,-0.1644 0.407977,-0.25312 0.480203,-0.25349 0.07451,-2.7e-4 0.21472,0.0749 0.425632,0.22844 0.381828,0.27803 1.073145,0.64973 1.574406,0.84651 1.09751,0.43084 2.027298,0.62713 3.237288,0.68345 0.804693,0.0374 0.77279,-0.005 0.854972,1.13609 0.142671,1.98086 -0.127119,4.14657 -0.725601,5.82471 -0.432126,1.21168 -1.019802,2.18116 -1.835999,3.02881 -0.890712,0.92504 -1.821371,1.49485 -3.126172,1.91405 l -0.410302,0.13182 z m 0.80714,-0.66396 c 2.585699,-0.85131 4.274598,-3.0303 4.877496,-6.29287 0.08676,-0.46952 0.210971,-1.48183 0.185727,-1.51368 -0.01244,-0.0157 -8.298331,6.00591 -8.37987,6.08987 -0.04073,0.0419 -0.01738,0.0854 0.133167,0.24789 0.374177,0.40389 1.298911,1.00668 1.96056,1.278 0.295916,0.12134 0.78595,0.28807 0.857764,0.29184 0.02761,10e-4 0.191931,-0.044 0.365156,-0.10105 z m 0.751332,-5.14759 c 2.708656,-1.97435 4.255837,-3.07884 4.282374,-3.05707 0.02784,0.0228 0.04923,-0.007 0.06481,-0.0915 0.05837,-0.31503 -0.005,-2.16523 -0.07653,-2.23519 -0.0164,-0.016 -0.242337,-0.0393 -0.502065,-0.0517 -0.378269,-0.0181 -0.472231,-0.012 -0.472231,0.0305 0,0.0292 -2.020872,1.47739 -4.490828,3.21823 -2.469957,1.74084 -4.49607,3.19024 -4.502478,3.22089 -0.03005,0.14375 0.649337,1.40891 0.910031,1.69467 0.06828,0.0748 0.14868,0.18728 0.17866,0.24986 0.04696,0.098 0.07618,0.11369 0.210971,0.11314 0.14565,-5.3e-4 0.449456,-0.2142 4.397282,-3.0918 z m -1.456303,-2.45346 4.350871,-3.06723 -0.34854,-0.0664 c -0.518007,-0.0987 -1.097794,-0.26277 -1.638602,-0.46381 -0.511305,-0.19008 -1.458349,-0.66339 -1.801633,-0.90042 l -0.206367,-0.14249 -0.273801,0.17719 c -1.301753,0.84245 -3.03408,1.39578 -4.655855,1.48714 l -0.469897,0.0265 -0.02939,0.21988 c -0.01617,0.12093 -0.03146,0.67864 -0.03398,1.23933 -0.0059,1.31287 0.08893,2.27258 0.325935,3.29823 0.129374,0.55988 0.347396,1.25932 0.392542,1.25932 0.02082,0 1.995744,-1.38025 4.388723,-3.06723 z m -4.294579,10.08092 c 0.108971,-0.0768 0.202009,-0.2767 0.20639,-0.44349 0.0029,-0.109 -0.0263,-0.16421 -0.155188,-0.29395 -0.08729,-0.0879 -0.200417,-0.17105 -0.251386,-0.18486 -0.125593,-0.034 -0.389141,0.0645 -0.410721,0.15362 -0.0096,0.0394 -0.0294,0.0716 -0.04414,0.0716 -0.01474,0 -0.04895,0.0725 -0.07603,0.16105 -0.04713,0.15413 -0.04455,0.16831 0.05983,0.32982 0.184991,0.28624 0.444497,0.36596 0.67124,0.20621 z m -0.84254,-1.64657 c -0.272245,-0.30234 -0.518736,-0.57669 -0.547759,-0.60967 -0.04597,-0.0522 -0.0495,-0.04 -0.0274,0.0949 0.01394,0.0852 0.03895,0.18411 0.05555,0.21988 0.01659,0.0358 0.05146,0.11421 0.07746,0.17431 0.02601,0.0601 0.07695,0.14364 0.113205,0.18564 0.03626,0.042 0.05739,0.0856 0.04697,0.0968 -0.01042,0.0112 0.0298,0.0168 0.08939,0.0124 0.08612,-0.006 0.104928,0.006 0.09167,0.0607 -0.01688,0.0697 0.100169,0.15914 0.342358,0.26164 0.283268,0.11988 0.247578,0.0465 -0.241446,-0.4966 z"
         id="path1622"
         inkscape:connector-curvature="0" />
    </g>
  </g>
</svg>
