<?xml version="1.0" encoding="UTF-8" standalone="no"?>
<!-- Created with Inkscape (http://www.inkscape.org/) -->

<svg
   xmlns:dc="http://purl.org/dc/elements/1.1/"
   xmlns:cc="http://creativecommons.org/ns#"
   xmlns:rdf="http://www.w3.org/1999/02/22-rdf-syntax-ns#"
   xmlns:svg="http://www.w3.org/2000/svg"
   xmlns="http://www.w3.org/2000/svg"
   xmlns:sodipodi="http://sodipodi.sourceforge.net/DTD/sodipodi-0.dtd"
   xmlns:inkscape="http://www.inkscape.org/namespaces/inkscape"
   width="64mm"
   height="64mm"
   viewBox="0 0 63.999999 64.000001"
   version="1.1"
   id="svg1638"
   inkscape:version="0.92.4 (5da689c313, 2019-01-14)"
   sodipodi:docname="icon.svg"
   inkscape:export-filename="C:\dev\ELTA\GitClones\TRADES\bundles\dsm.TRADES.branding\icons\logo_128.png"
   inkscape:export-xdpi="50.799999"
   inkscape:export-ydpi="50.799999">
  <defs
     id="defs1632" />
  <sodipodi:namedview
     id="base"
     pagecolor="#ffffff"
     bordercolor="#666666"
     borderopacity="1.0"
     inkscape:pageopacity="0.0"
     inkscape:pageshadow="2"
     inkscape:zoom="1.979899"
     inkscape:cx="37.787431"
     inkscape:cy="158.77316"
     inkscape:document-units="mm"
     inkscape:current-layer="layer1"
     showgrid="false"
     inkscape:window-width="1920"
     inkscape:window-height="1017"
     inkscape:window-x="-8"
     inkscape:window-y="1072"
     inkscape:window-maximized="1"
     fit-margin-top="0"
     fit-margin-left="0"
     fit-margin-right="0"
     fit-margin-bottom="0" />
  <metadata
     id="metadata1635">
    <rdf:RDF>
      <cc:Work
         rdf:about="">
        <dc:format>image/svg+xml</dc:format>
        <dc:type
           rdf:resource="http://purl.org/dc/dcmitype/StillImage" />
        <dc:title></dc:title>
      </cc:Work>
    </rdf:RDF>
  </metadata>
  <g
     inkscape:label="Calque 1"
     inkscape:groupmode="layer"
     id="layer1"
     transform="translate(-43.054958,-114.97047)">
    <path
       style="fill:#000000;stroke-width:0.26458332"
       d="m 51.654884,173.43643 c -2.430768,-0.75266 -4.9231,-3.0531 -5.664193,-5.22809 -0.231673,-0.67992 -0.421224,-2.04738 -0.421224,-3.03879 0,-1.64142 0.114506,-2.02159 1.280806,-4.25235 1.724118,-3.29769 20.527024,-35.73968 21.585197,-37.24248 2.847348,-4.04375 8.952132,-4.48751 12.386083,-0.90036 1.079206,1.12736 22.436157,37.74192 23.288717,39.9264 0.68049,1.7436 0.53849,4.51402 -0.3187,6.21771 -0.80603,1.60201 -2.24752,3.07167 -3.850228,3.92546 l -1.322916,0.70475 -23.151042,0.0463 c -12.733073,0.0255 -23.448698,-0.0459 -23.8125,-0.15853 z m 45.58171,-4.0047 c 2.09241,-0.58107 3.597206,-2.69147 3.286096,-4.6086 -0.19029,-1.17263 -21.694413,-38.41358 -22.783634,-39.45682 -1.571688,-1.50534 -4.077663,-1.40668 -5.626782,0.22153 -0.452644,0.47575 -5.675881,9.31844 -11.607192,19.65042 -11.862682,20.66407 -11.603488,20.10908 -10.377232,22.21961 0.336478,0.57912 1.085601,1.3213 1.664718,1.64929 l 1.052941,0.59635 21.695833,0.003 c 14.336411,0.002 22.034847,-0.0913 22.695252,-0.27467 z M 64.156447,166.5213 c -1.191199,-0.36543 -1.075975,-0.45633 0.398797,-0.31462 1.615215,0.1552 3.089377,-0.24879 4.628942,-1.26856 1.248924,-0.82725 2.843615,-2.89848 2.843615,-3.69337 0,-0.24158 -0.577473,-0.81343 -1.283272,-1.27078 -2.059337,-1.3344 -3.185798,-3.43602 -3.323546,-6.20069 l -0.06932,-1.39127 -1.520656,-0.08 c -2.971852,-0.15638 -5.539433,1.32472 -6.905202,3.98324 -0.650561,1.26634 -0.698679,1.30756 -0.547176,0.46874 0.633678,-3.50844 3.989462,-6.56614 7.717442,-7.03192 1.207438,-0.15086 1.435928,-0.25893 1.297521,-0.61366 -1.552958,-3.98023 -0.972364,-7.87768 1.557956,-10.45834 0.746053,-0.7609 1.102162,-1.07811 0.791353,-0.70492 -1.011697,1.21477 -1.496738,2.49359 -1.624836,4.28393 -0.106463,1.48795 -0.0238,1.97527 0.538934,3.17711 1.178289,2.51649 1.190026,2.52331 2.859305,1.66146 1.192861,-0.61588 1.775288,-0.74355 3.421912,-0.75011 1.733542,-0.007 2.177899,0.0974 3.515363,0.82525 l 1.530987,0.83315 0.669991,-1.01243 c 0.778185,-1.17591 1.427409,-3.164 1.427409,-4.37107 0,-1.35995 -0.700416,-3.2991 -1.613956,-4.46835 l -0.849974,-1.0879 1.211572,1.15955 c 1.818397,1.74032 2.6904,3.8611 2.678116,6.51336 -0.0069,1.47858 -0.169739,2.51976 -0.54033,3.45378 l -0.530524,1.33711 1.503625,0.28575 c 3.014887,0.57296 5.267449,2.24587 6.591331,4.89519 0.86454,1.7301 1.126718,3.10576 0.290502,1.52428 -0.696039,-1.31637 -2.600108,-2.99598 -4.004291,-3.53224 -0.771964,-0.29481 -1.736432,-0.42467 -2.762607,-0.37195 l -1.576589,0.081 -0.170995,1.9143 c -0.120576,1.34986 -0.371144,2.25583 -0.849783,3.07257 -0.726753,1.24011 -2.210083,2.67431 -3.261297,3.15327 -0.773438,0.3524 -0.683948,1.02105 0.344697,2.57544 1.333613,2.01522 3.890899,3.28985 6.257033,3.1187 1.176875,-0.0851 1.42998,-0.0446 1.066845,0.17081 -0.261845,0.15533 -1.550149,0.28241 -2.862898,0.28241 -2.166572,0 -2.550816,-0.0807 -4.16416,-0.87498 -1.20042,-0.59097 -2.134206,-1.2982 -2.87672,-2.17878 l -1.099372,-1.30379 -1.35105,1.40187 c -1.896411,1.96775 -3.897276,2.89274 -6.473734,2.99279 -1.111586,0.0432 -2.408019,-0.0402 -2.880961,-0.18532 z m 8.117665,-8.54078 c -0.127458,-0.68225 -0.363908,-1.48741 -0.525447,-1.78924 -0.490079,-0.91572 -2.148585,-2.62909 -2.942126,-3.03944 l -0.747488,-0.38654 0.01161,1.13127 c 0.0226,2.20151 1.257068,4.4205 3.117592,5.60396 0.881032,0.56042 0.987989,0.57624 1.144715,0.16931 0.09509,-0.24688 0.0686,-1.00707 -0.05886,-1.68932 z m 6.315265,1.56886 c 1.776423,-0.92804 3.212354,-3.38517 3.222196,-5.51372 0.0064,-1.3824 -0.09756,-1.46277 -1.059796,-0.81932 -2.076887,1.38881 -3.128214,3.04259 -3.359637,5.28485 -0.160994,1.55989 -0.01945,1.68382 1.197237,1.04819 z m -2.471036,-3.47595 c 1.62561,-0.77141 1.972265,-2.82869 0.692311,-4.10865 -2.29177,-2.29177 -5.949628,0.77515 -3.952557,3.31401 0.945396,1.20188 1.907754,1.43644 3.260246,0.79464 z m 2.064157,-7.03406 c 1.166844,-0.59527 1.087604,-0.88354 -0.432652,-1.57389 -1.479177,-0.6717 -4.159178,-0.66477 -5.655899,0.0146 -0.618464,0.28073 -1.12448,0.62173 -1.12448,0.75779 0,0.3193 1.718461,1.14226 2.910417,1.39379 1.281303,0.27038 3.103245,0.0196 4.302614,-0.5923 z"
       id="path830"
       inkscape:connector-curvature="0" />
  </g>
</svg>
