<?xml version="1.0" encoding="UTF-8" standalone="no"?>
<!-- Created with Inkscape (http://www.inkscape.org/) -->

<svg
   xmlns:dc="http://purl.org/dc/elements/1.1/"
   xmlns:cc="http://creativecommons.org/ns#"
   xmlns:rdf="http://www.w3.org/1999/02/22-rdf-syntax-ns#"
   xmlns:svg="http://www.w3.org/2000/svg"
   xmlns="http://www.w3.org/2000/svg"
   xmlns:sodipodi="http://sodipodi.sourceforge.net/DTD/sodipodi-0.dtd"
   xmlns:inkscape="http://www.inkscape.org/namespaces/inkscape"
   width="64mm"
   height="64mm"
   viewBox="0 0 63.999999 64.000001"
   version="1.1"
   id="svg1638"
   inkscape:version="0.92.4 (5da689c313, 2019-01-14)"
   sodipodi:docname="icon.svg"
   inkscape:export-filename="C:\dev\ELTA\GitClones\TRADES\bundles\dsm.TRADES.branding\icons\logo_256.png"
   inkscape:export-xdpi="101.6"
   inkscape:export-ydpi="101.6">
  <defs
     id="defs1632" />
  <sodipodi:namedview
     id="base"
     pagecolor="#ffffff"
     bordercolor="#666666"
     borderopacity="1.0"
     inkscape:pageopacity="0.0"
     inkscape:pageshadow="2"
     inkscape:zoom="1.979899"
     inkscape:cx="31.60382"
     inkscape:cy="158.77316"
     inkscape:document-units="mm"
     inkscape:current-layer="layer1"
     showgrid="false"
     inkscape:window-width="1920"
     inkscape:window-height="1017"
     inkscape:window-x="-8"
     inkscape:window-y="-8"
     inkscape:window-maximized="1"
     fit-margin-top="0"
     fit-margin-left="0"
     fit-margin-right="0"
     fit-margin-bottom="0" />
  <metadata
     id="metadata1635">
    <rdf:RDF>
      <cc:Work
         rdf:about="">
        <dc:format>image/svg+xml</dc:format>
        <dc:type
           rdf:resource="http://purl.org/dc/dcmitype/StillImage" />
        <dc:title />
      </cc:Work>
    </rdf:RDF>
  </metadata>
  <g
     inkscape:label="Calque 1"
     inkscape:groupmode="layer"
     id="layer1"
     transform="translate(-43.054958,-114.97047)">
    <path
       style="fill:#2e90f1;fill-opacity:1;stroke:none;stroke-width:0.06537043;stroke-opacity:1"
       d="m 98.285833,174.03425 c -0.256701,-0.0466 -0.580286,-0.12155 -0.719074,-0.16661 -0.500255,-0.16232 -1.259112,-0.5878 -1.731597,-0.97086 -0.640559,-0.51935 -12.910571,-12.82348 -13.220137,-13.25692 -0.317412,-0.44442 -0.737989,-1.34901 -0.850198,-1.82862 -0.04924,-0.21045 -0.116123,-0.37751 -0.148641,-0.37124 -0.03252,0.006 -0.262612,0.13505 -0.51132,0.28615 -0.679762,0.41296 -2.129433,1.1212 -2.980968,1.45632 -3.951602,1.5552 -8.505745,1.80414 -12.719116,0.69525 -1.902968,-0.50083 -4.173937,-1.49612 -5.612116,-2.45954 -0.17929,-0.1201 -0.351618,-0.21836 -0.382956,-0.21836 -0.03133,0 -0.237643,0.14229 -0.458464,0.31623 -0.220822,0.17391 -0.577993,0.43449 -0.793716,0.57909 -0.57087,0.38259 -3.017023,1.65412 -3.182189,1.65412 -0.07741,0 -0.620551,-0.25006 -1.206981,-0.55565 -0.586433,-0.30562 -1.082662,-0.55565 -1.102733,-0.55565 -0.02008,0 -0.0061,0.0569 0.03117,0.12644 0.159271,0.29761 0.02196,0.80672 -0.273352,1.01357 -0.187708,0.13147 -0.699135,0.13147 -0.886843,0 -0.259104,-0.18148 -0.36022,-0.46591 -0.313246,-0.88109 0.02566,-0.22696 0.01378,-0.43577 -0.03034,-0.53261 -0.07091,-0.15562 -0.09011,-0.15928 -0.835795,-0.15859 -0.602081,0 -0.841997,-0.0273 -1.136351,-0.13197 -0.40527,-0.14409 -0.443995,-0.12549 -0.443995,0.21331 0,0.2191 -0.167452,0.52712 -0.335447,0.61703 -0.07589,0.0406 -0.23805,0.0738 -0.360357,0.0738 -0.72981,0 -0.877837,-0.87215 -0.218657,-1.28826 l 0.272201,-0.17185 -0.354248,-0.37145 c -0.194836,-0.20428 -0.389654,-0.43762 -0.43293,-0.51853 -0.04328,-0.0809 -0.108452,-0.14708 -0.144841,-0.14708 -0.03638,0 -0.200432,0.13237 -0.364545,0.29417 -0.252587,0.24902 -0.338175,0.29416 -0.557591,0.29416 -0.369266,0 -0.641366,-0.27734 -0.641366,-0.65371 0,-0.21293 0.04122,-0.31273 0.191082,-0.46259 0.16713,-0.16714 0.238837,-0.19122 0.571992,-0.19209 0.51094,-0.003 0.540708,-0.0279 0.47534,-0.42392 -0.02968,-0.17976 -0.05571,-0.46659 -0.05785,-0.63735 l -0.0039,-0.31052 h -0.419894 c -0.351597,0 -0.451226,-0.0265 -0.61254,-0.16211 -0.284572,-0.23945 -0.376602,-0.50501 -0.283128,-0.817 0.114033,-0.38063 0.400461,-0.58979 0.807654,-0.58979 0.302644,0 0.352864,0.0228 0.570116,0.25808 l 0.238237,0.25805 0.304961,-0.46136 0.304961,-0.46133 -0.09913,-0.46677 c -0.05452,-0.2567 -0.125939,-0.84915 -0.158711,-1.31657 -0.07974,-1.13734 -0.08011,-6.57397 -5.29e-4,-6.70047 0.03396,-0.0539 0.717444,-0.33572 1.518862,-0.62624 l 1.457124,-0.52816 -0.03268,-0.51776 c -0.07695,-1.21899 -0.02447,-4.04114 0.08984,-4.83219 0.655209,-4.53363 2.624934,-8.50164 5.792711,-11.66941 3.325538,-3.32554 7.593476,-5.3586 12.290431,-5.85462 1.335566,-0.14104 3.748245,-0.0958 5.033522,0.0944 4.726488,0.69944 8.950354,2.93488 12.13984,6.42491 2.924789,3.20039 4.713227,7.1615 5.219491,11.56036 0.13833,1.20192 0.101415,3.96854 -0.06716,5.03351 -0.443433,2.80136 -1.243168,5.10373 -2.561412,7.37418 -0.236014,0.4065 -0.418502,0.74774 -0.405532,0.75835 0.01296,0.0106 0.224914,0.0688 0.470984,0.12935 0.531199,0.1307 1.232818,0.47061 1.775193,0.85998 0.215723,0.15485 3.294542,3.1887 6.841818,6.74187 6.754163,6.76534 6.797263,6.81188 7.206363,7.78462 0.34848,0.82865 0.48091,1.81253 0.36727,2.72862 -0.38209,3.07975 -3.26391,5.19727 -6.318656,4.64286 z m 1.770677,-2.95355 c 0.66719,-0.2354 1.16769,-0.68685 1.46546,-1.32193 0.15013,-0.32018 0.17226,-0.45138 0.17226,-1.02108 0,-1.15901 0.54464,-0.52861 -6.817534,-7.8908 -7.36218,-7.36219 -6.731799,-6.81755 -7.890807,-6.81755 -0.572921,0 -0.700042,0.0217 -1.028655,0.17574 -0.736616,0.34522 -1.288346,1.0904 -1.423868,1.92307 -0.06794,0.41743 0.03703,1.08537 0.231672,1.47428 0.143891,0.28747 12.926221,13.0895 13.279284,13.29973 0.554672,0.33028 1.375685,0.40312 2.012188,0.17854 z M 52.311905,159.42742 c 0.27803,-0.27802 0.245909,-0.41981 -0.191111,-0.84367 -0.210209,-0.20389 -0.408771,-0.41561 -0.441251,-0.47051 -0.03248,-0.0549 -0.190436,-0.20199 -0.351015,-0.32687 l -0.291959,-0.22701 0.226589,0.32684 c 0.212913,0.30713 0.226928,0.36004 0.232193,0.87664 0.0052,0.51393 0.0172,0.55975 0.183414,0.70274 0.235863,0.20288 0.402141,0.19285 0.63314,-0.0382 z m 3.895241,-1.01597 c 1.194255,-0.61624 1.756664,-0.9574 2.303214,-1.39713 l 0.287459,-0.23128 -0.247004,-0.20738 -0.247002,-0.20735 -0.525849,0.37666 c -0.603655,0.43238 -2.587977,1.50077 -2.787393,1.50077 -0.183941,0 -2.110129,-1.02351 -2.728024,-1.44957 -1.053626,-0.72652 -2.184982,-2.07068 -2.686383,-3.19172 -0.268285,-0.59984 -0.532069,-1.41854 -0.647822,-2.01065 -0.13811,-0.70646 -0.200438,-6.44099 -0.07255,-6.67448 0.06339,-0.11573 0.296878,-0.23241 0.934321,-0.46686 l 0.849815,-0.31258 -0.02127,-0.31708 c -0.01169,-0.17438 -0.03227,-0.32805 -0.04569,-0.34147 -0.01341,-0.0135 -0.572127,0.17494 -1.241562,0.41863 l -1.217158,0.44307 0.02537,3.53576 0.02537,3.53573 0.171355,0.65836 c 0.220615,0.84762 0.426673,1.39009 0.809699,2.13172 0.622922,1.20608 1.682719,2.40477 2.792455,3.15841 0.537626,0.3651 2.877257,1.65899 3.010035,1.66465 0.03275,0.003 0.599115,-0.2759 1.258599,-0.61621 z m -7.874003,0.17748 c 0.05472,-0.0629 0.11942,-0.2454 0.143775,-0.40555 0.05325,-0.35013 0.240871,-0.67112 0.500232,-0.8558 0.302546,-0.21542 0.444812,-0.0374 0.188301,0.23564 l -0.13439,0.14306 0.412213,0.11041 c 0.271362,0.0727 0.590907,0.10345 0.935175,0.09 l 0.522965,-0.0204 -0.382751,-0.28495 c -0.350084,-0.26064 -0.373867,-0.29385 -0.27866,-0.38905 0.09521,-0.0952 0.130025,-0.0858 0.407972,0.1101 0.234686,0.16541 0.17068,0.0828 -0.281099,-0.36272 -0.321736,-0.31729 -0.730911,-0.77105 -0.909277,-1.00835 l -0.3243,-0.43149 -0.115893,0.15365 c -0.07462,0.0989 -0.182986,0.15364 -0.304284,0.15364 -0.267105,0 -0.404923,-0.16256 -0.380958,-0.44937 0.01603,-0.19187 0.05877,-0.25569 0.22438,-0.33507 l 0.204579,-0.0981 -0.296058,-0.58833 c -0.162833,-0.32358 -0.375148,-0.80425 -0.471811,-1.06817 l -0.175752,-0.47983 -0.215111,0.33523 c -0.118314,0.18439 -0.197096,0.35325 -0.175078,0.37526 0.02201,0.022 0.180242,0.0756 0.351605,0.11917 0.23399,0.0594 0.311568,0.10985 0.311568,0.20262 0,0.1043 -0.04062,0.11993 -0.261482,0.10064 -0.389081,-0.034 -0.629743,-0.15589 -1.038495,-0.52607 -0.418804,-0.37928 -0.614659,-0.41867 -0.860219,-0.17311 -0.192963,0.19296 -0.209814,0.48315 -0.04022,0.6926 0.103463,0.12779 0.18782,0.15015 0.604679,0.16033 0.26644,0.007 0.587396,0.0562 0.713234,0.11033 0.288232,0.12407 0.653706,0.42887 0.653706,0.54518 0,0.17677 -0.137228,0.16563 -0.375057,-0.0304 -0.133686,-0.1102 -0.265779,-0.20037 -0.293542,-0.20037 -0.100282,0 -0.04752,0.78026 0.08087,1.19594 0.135678,0.43926 0.515821,1.07138 0.810858,1.34832 0.09272,0.0871 0.176048,0.14586 0.185179,0.13076 0.0091,-0.0151 0.04922,-0.0863 0.08909,-0.15825 0.11326,-0.20426 0.255725,-0.16338 0.245933,0.0706 -0.01119,0.26731 -0.2379,0.59984 -0.588402,0.86305 -0.30912,0.23212 -0.360886,0.41113 -0.177487,0.61378 0.136813,0.15118 0.364937,0.15356 0.494008,0.005 z m 24.497369,-1.03187 c 3.834582,-0.47475 7.245191,-2.10712 10.029708,-4.80039 2.838376,-2.7454 4.617392,-6.23681 5.180566,-10.16714 0.150092,-1.04749 0.169156,-3.64194 0.03386,-4.60862 -0.461275,-3.29588 -1.720779,-6.26757 -3.712631,-8.75964 -0.56978,-0.71287 -1.988757,-2.13213 -2.703819,-2.70436 -1.413881,-1.13146 -3.489759,-2.28517 -5.131581,-2.85197 -0.977596,-0.33749 -2.308127,-0.66648 -3.33389,-0.82434 -0.971709,-0.14955 -3.778125,-0.17273 -4.70667,-0.0389 -1.907019,0.2749 -3.761497,0.82996 -5.350327,1.6014 -1.188051,0.57684 -1.977377,1.05787 -2.984402,1.81873 -0.725509,0.54817 -1.795016,1.48768 -1.747555,1.53514 0.0127,0.0127 0.427532,-0.12437 0.921827,-0.30463 0.494295,-0.18025 0.980427,-0.34408 1.080296,-0.36405 0.135044,-0.027 1.964323,0.61179 7.137908,2.49264 8.418745,3.06062 7.932579,2.87533 8.061735,3.07245 0.09333,0.14243 0.103886,0.84529 0.10332,6.87776 -7.94e-4,7.14274 -0.01283,7.48241 -0.326975,9.13831 -0.577117,3.04199 -1.988897,6.13446 -3.846451,8.4256 -0.22103,0.27262 -0.401873,0.51067 -0.401873,0.52901 0,0.0667 0.905856,0.0309 1.69695,-0.067 z m -3.156392,-0.40627 c 2.212872,-2.50389 3.670818,-5.40007 4.302678,-8.54718 0.331001,-1.64864 0.327228,-1.55038 0.327228,-8.52072 v -6.55962 l -2.38602,-0.8691 c -1.312312,-0.47801 -3.930398,-1.43342 -5.817967,-2.12313 -1.887572,-0.68972 -3.919657,-1.43076 -4.515747,-1.64676 l -1.0838,-0.39273 -1.988611,0.72391 c -1.320501,0.4807 -2.027158,0.77057 -2.103342,0.86279 -0.192572,0.23311 -1.048472,1.62967 -1.017656,1.66048 0.01588,0.0159 0.174215,-0.0254 0.351837,-0.0917 2.670075,-0.99701 4.684456,-1.70667 4.844397,-1.70667 0.109881,0 0.755428,0.20261 1.434547,0.45025 4.786807,1.7455 10.611045,3.89403 10.753293,3.96684 0.09381,0.048 0.20556,0.1718 0.248335,0.27507 0.05879,0.14194 0.07195,1.64649 0.05389,6.16425 -0.02106,5.26505 -0.03719,6.05428 -0.135565,6.63017 -0.632864,3.70462 -2.140312,6.72433 -4.642275,9.29933 -0.35828,0.36875 -0.639337,0.68234 -0.624573,0.69689 0.04284,0.0422 0.910328,0.15137 1.27571,0.16052 0.33315,0.008 0.334293,0.008 0.723643,-0.43288 z m -13.767572,-0.0924 c 0.483012,-0.25754 1.093242,-0.61264 1.356069,-0.78909 l 0.477864,-0.32083 -0.314439,-0.26713 c -0.623083,-0.52935 -2.094479,-2.05835 -2.627715,-2.73063 -0.299437,-0.37753 -0.599281,-0.75187 -0.666319,-0.8319 -0.06704,-0.08 -1.115515,-0.8853 -2.329947,-1.78946 -1.214429,-0.90418 -2.248278,-1.67619 -2.297438,-1.71558 -0.07524,-0.0603 -0.08406,0.14533 -0.05575,1.29918 0.03674,1.49723 0.124082,1.97649 0.5553,3.04702 0.497382,1.23476 1.564952,2.56966 2.654612,3.31938 0.36657,0.2522 2.199407,1.24566 2.299888,1.24661 0.03832,0 0.46486,-0.21005 0.947873,-0.46757 z m 10.77873,-0.73139 c 0.397193,-0.35419 0.722167,-0.66603 0.722167,-0.69297 0,-0.0356 -10.571009,-8.04237 -13.152204,-9.96187 l -0.249942,-0.18587 0.19013,0.51271 c 0.960165,2.58929 2.144718,4.48998 3.960688,6.35518 1.641621,1.68611 3.549412,3.02329 5.525215,3.87263 0.742563,0.31919 2.044842,0.77414 2.170475,0.75827 0.06122,-0.008 0.436279,-0.30388 0.833471,-0.65808 z m -19.986095,0.17381 c 0.331017,-0.29398 0.455774,-0.53874 0.247322,-0.48519 -0.05393,0.0138 -0.25985,0.0318 -0.457595,0.0398 -0.465394,0.019 -0.441327,0.0111 -0.526222,0.16987 -0.135564,0.25328 0.04193,0.55133 0.344271,0.57808 0.02577,0.003 0.202266,-0.13388 0.392224,-0.3026 z m 2.143064,-1.06916 c 0,-0.03 -0.03198,-0.0743 -0.07107,-0.0984 -0.09077,-0.0561 -0.218731,0.0682 -0.163015,0.15841 0.0464,0.0751 0.234082,0.027 0.234082,-0.06 z m 20.203742,-1.81694 c 0.843812,-1.25923 1.41587,-2.44025 1.88192,-3.88525 0.432041,-1.33956 0.632598,-0.99642 -1.506664,-2.57781 -2.152552,-1.59125 -12.916324,-9.55783 -14.496315,-10.72915 -0.865574,-0.64169 -1.086199,-0.77789 -1.130855,-0.6981 -0.03051,0.0545 -0.127011,0.44502 -0.214437,0.86777 -0.424429,2.05226 -0.474578,4.11564 -0.153424,6.31239 l 0.07473,0.51118 1.118942,0.8677 c 0.615415,0.47723 3.957188,2.99074 7.426158,5.58559 l 6.307217,4.71792 0.119843,-0.14809 c 0.06591,-0.0814 0.323712,-0.45231 0.572885,-0.82415 z M 52.815616,149.9927 c -0.761153,-1.34067 -1.684528,-3.73724 -1.916649,-4.97457 -0.03471,-0.18499 -0.07091,-0.23442 -0.152284,-0.20793 -0.05871,0.019 -0.371501,0.13316 -0.695084,0.25347 l -0.588335,0.21876 -0.0176,1.23565 -0.01762,1.23569 1.810409,1.35644 c 0.995725,0.74602 1.818468,1.35641 1.828319,1.35641 0.0098,0 -0.103169,-0.21326 -0.251161,-0.47392 z m 18.81948,-9.04582 0.03058,-5.49947 -0.184343,-0.0659 c -0.101391,-0.0363 -2.258224,-0.8228 -4.792962,-1.74786 -2.534737,-0.92506 -4.964295,-1.81073 -5.399016,-1.96815 l -0.7904,-0.28622 -2.837656,1.01903 c -1.560714,0.56047 -2.914309,1.04706 -3.00799,1.08132 -0.225592,0.0825 -0.392536,0.535 -0.249579,0.67647 0.05118,0.0506 3.917228,2.96011 8.591212,6.46548 l 8.498157,6.37339 0.05571,-0.27429 c 0.03064,-0.15087 0.06947,-2.74905 0.08629,-5.77377 z"
       id="path1625"
       inkscape:connector-curvature="0" />
  </g>
</svg>
